<svg width="683" height="650" viewBox="0 0 683 650" fill="none" xmlns="http://www.w3.org/2000/svg">
<path fill-rule="evenodd" clip-rule="evenodd" d="M52.7727 408.883C67.1336 427.774 85.7525 442.943 101.972 460.269C123.089 482.825 140.159 509.151 152.129 537.625C164.515 567.087 172.274 600.069 195.075 622.483C227.876 654.73 282.054 654.06 324.552 636.414C390.888 608.869 437.842 548.678 473.789 486.551C481.009 474.074 488.332 460.95 500.259 452.84C521.942 438.096 550.815 444.367 576.93 446.824C595.492 448.57 614.824 447.942 631.87 440.396C657.397 429.095 674.5 403.161 680.034 375.824C685.567 348.487 680.779 319.95 671.828 293.532C647.281 221.087 590.743 160.692 521.198 128.688C451.654 96.6839 370.167 92.7756 296.944 115.143C264.864 124.943 233.337 140.305 211.69 165.903C192.597 188.483 182.217 217.77 161.254 238.629C141.182 258.602 113.646 268.706 88.6589 282.046C63.6722 295.386 38.9182 314.975 33.2288 342.698C28.46 365.935 38.4117 389.991 52.7727 408.883Z" fill="#6F42C1"/>
<path fill-rule="evenodd" clip-rule="evenodd" d="M573.799 169.893L573.226 169.924C563.123 170.505 551.456 174.795 549.052 184.625C542.067 159.566 526.14 137.098 504.807 122.211C511.375 136.113 513.941 151.879 512.12 167.147C506.413 152.636 495.868 140.076 482.565 131.942C488.591 140.479 492.038 150.811 492.344 161.256C492.567 168.851 491.008 176.803 486.253 182.729C483.182 186.557 478.981 189.306 474.692 191.691C473.619 192.287 472.536 192.863 471.443 193.418C471.009 193.638 470.574 193.855 470.138 194.068C469.126 194.564 468.107 195.041 467.08 195.501C466.16 195.913 465.235 196.311 464.303 196.695L463.687 196.947C463.073 197.196 462.456 197.438 461.837 197.675L460.817 198.058L460.246 198.268L459.138 198.663L458.718 198.809L457.75 199.138C457.103 199.355 456.454 199.565 455.803 199.768L454.5 200.166L453.65 200.416L452.628 200.707L451.69 200.963L450.347 201.314L449.759 201.462L448.855 201.683L448.332 201.806L447.414 202.017L446.716 202.171L446.267 202.268L445.05 202.52L443.809 202.762L442.614 202.981L441.42 203.186L440.16 203.388L439.003 203.56L437.759 203.73L436.532 203.884L435.423 204.012L434.732 204.085L433.69 204.188L432.949 204.255L432.191 204.318L430.959 204.41L430.56 204.437L429.316 204.511L428.103 204.57L426.923 204.615L426.153 204.638L424.995 204.661L424.453 204.668L423.22 204.675L421.986 204.667L421.455 204.66L420.347 204.637L419.051 204.595L418.297 204.565L417.156 204.508L415.906 204.433L414.691 204.347L413.459 204.246L412.862 204.192L411.664 204.074L410.403 203.937L409.772 203.862L408.638 203.719L407.426 203.554L406.721 203.451L406.135 203.362L405.549 203.27L404.422 203.085L403.677 202.955L403.174 202.865L402.531 202.746L401.309 202.51L400.752 202.397L400.135 202.269L399.05 202.035L397.801 201.751L396.645 201.475L395.992 201.313L394.871 201.026L394.195 200.846L393.046 200.53L391.867 200.192L391.328 200.033L390.624 199.82L389.494 199.468L388.961 199.297L388.386 199.109L387.723 198.889L387.257 198.73L386.574 198.495L385.458 198.098L384.877 197.886L383.723 197.453L382.624 197.027L381.489 196.572L380.463 196.148L379.737 195.84L378.653 195.369L378.116 195.13L377.611 194.902L377.017 194.629L376.447 194.363L375.95 194.128L374.814 193.579L374.293 193.321L373.756 193.052L372.723 192.522L372.101 192.196L371.569 191.913L370.457 191.308L370.019 191.065L369.363 190.695L368.937 190.452L368.382 190.131L367.853 189.82L367.323 189.505L366.286 188.874L365.288 188.251L364.694 187.873L364.235 187.576L363.686 187.217L363.247 186.925L362.665 186.534L362.224 186.233L361.714 185.882L361.153 185.489L360.696 185.165L360.165 184.783C359.953 184.63 359.742 184.476 359.532 184.321C359.455 183.224 359.54 182.263 359.753 181.403C360.626 180.86 361.489 180.263 362.341 179.611C365.315 177.333 368.1 173.501 370.695 168.114L371.378 167.183C375.2 161.916 378.092 156.856 378.27 156.05C379.449 150.686 379.806 145.219 379.741 139.725L379.748 139.692C380.3 135.936 380.029 132.097 379.129 128.253C378.97 126.339 378.793 124.428 378.616 122.523L377.814 123.794L377.739 123.584C376.852 121.115 375.128 125.832 373.185 131.117L368.389 138.709C371.202 119.559 363.981 99.2153 349.725 86.1232C356.734 113.934 348.568 145.086 328.818 165.883C305.666 190.262 269.69 199.592 247.53 224.876C227.63 247.58 222.217 279.136 209.59 306.577L209.167 307.49C204.655 317.137 198.519 326.916 188.715 331.077C179.161 335.131 168.244 332.994 158.101 330.796L129.63 324.625C139.577 346.617 168.934 357.31 190.694 346.866C183.604 357.078 170.509 362.762 158.207 360.966C140.413 358.369 126.527 341.983 108.571 341C103.86 340.742 98.7308 341.802 95.6026 345.334C91.0982 350.42 92.7255 359.023 97.7719 363.571C102.818 368.12 110.179 369.227 116.929 368.46C108.644 365.326 99.8172 348.573 105.725 349.199C119.995 350.711 142.6 362.323 158.737 374.973C155.14 373.992 150.862 374.632 147.208 373.89C138.657 372.153 135.498 370.507 128.075 368.46C132.024 376.93 141.642 378.842 151.51 383.683C135.867 381.432 120.911 376.998 105.268 374.747C99.6247 373.935 85.1434 379.327 85.4894 381.736C85.6107 382.58 95.6501 382.43 97.3694 382.384C103.996 382.206 108.817 380.942 114.579 384.219C130.874 393.486 153.657 394.715 171.175 388.041L168.189 390.311L165.938 392.009C155.408 399.907 144.474 407.42 132.024 411.52C117.664 416.25 100.662 415.686 88.791 406.376L88.3837 406.052C79.1758 398.6 67.5699 394.16 55.7396 393.564C69.1322 399.995 81.4335 408.691 91.9635 419.172C82.5018 413.279 69.9594 412.695 59.9913 417.684C67.5834 417.84 75.1272 419.952 81.6962 423.761C84.3551 425.303 87.1711 428.456 85.4894 431.029C84.7328 432.186 83.2988 432.685 81.9432 432.959C71.3783 435.096 61.562 428.393 52.6556 421.917L49.9733 419.963C40.3687 412.984 27.1611 406.88 17.2304 413.387C36.4797 424.131 49.8435 445.296 71.2292 450.646C88.3023 454.918 106.061 447.844 121.622 439.622L125.407 437.614L126.982 436.786C135.753 432.202 144.907 428.013 154.631 428.727C166.354 429.588 177.881 441.625 173.264 452.434C170.256 459.475 162.006 462.732 154.385 463.458C146.763 464.184 138.956 463.128 131.501 464.867C114.854 468.75 104.168 483.659 91.4879 495.153L88.5892 497.745L87.7328 498.502C80.9259 504.495 71.8114 511.874 62.226 514.602C51.4487 517.67 40.0074 514.49 33.8801 514.602C21.3755 514.832 7.90387 518.732 0.744263 528.987L2.59729 528.46L3.85425 528.112C11.3702 526.064 18.4303 524.727 25.4006 526.208C28.8019 526.931 49.3344 538.761 71.2292 530.227C88.7202 523.41 102.678 508.426 109.772 503.133C120.168 495.377 153.54 477.784 149.86 481.725C149.43 483.04 151.074 482.662 154.201 481.041L153.668 482.189C147.508 495.7 147.022 506.317 152.21 514.04C157.61 522.079 165.532 523.28 175.976 517.642L178.358 516.043C184.468 511.93 188.64 509.012 190.875 507.29C193.024 505.634 187.503 541.382 175.976 552.631C170.581 557.895 153.201 561.308 138.507 568.286C134.349 570.26 129.72 574.279 124.62 580.342C131.566 576.844 137.713 574.613 143.059 573.648C166.227 569.466 182.821 574.743 192.682 561.847C202.542 548.952 201.29 544.291 202.334 533.307L204.174 514.04C215.353 530.463 225.818 541.268 235.57 546.455C244.303 551.1 253.113 551.05 262 546.303L262.416 546.077L262.23 546.188C254.903 550.507 248.535 553.494 243.125 555.147C237.018 557.014 229.294 558.048 219.955 558.251C246.773 574.493 270.169 572.619 290.144 552.631L291.23 551.536C302.119 540.486 317.154 522.788 325.411 496.859L326.026 494.902C329.597 483.645 332.876 476.719 330.175 455.161L329.863 452.743C329.203 447.423 328.482 438.524 329.997 430.065C330.664 426.338 333.115 420.833 337.352 413.55C354.651 434.162 363.91 454.581 365.13 474.806C366.35 495.032 361.873 518.246 351.698 544.449L351.493 544.995L351.334 545.451C349.069 547.855 346.873 550.689 344.827 554.128C334.323 571.79 319.818 588.759 319.113 609.296C318.672 622.136 324.199 635.057 333.787 643.607C325.67 622.538 331.932 596.758 348.742 581.707L349.255 581.254C367.575 565.291 379.211 541.884 380.878 517.642C380.748 518.126 380.607 518.594 380.456 519.048C382.667 508.611 383.64 497.955 383.374 487.078L383.343 485.951C382.966 474.147 381.095 457.533 377.731 436.109L378.589 438.433C381.867 447.41 384.169 454.876 384.886 458.989C390.035 488.52 389.169 526.664 384.886 546.645L387.303 547.425C426.004 559.867 446.653 564.259 449.248 560.601L458.439 546.645C486.77 497.008 494.88 432.551 481.825 375.322L481.423 373.59L481.68 374.352C486.82 389.719 491.521 412.277 492.99 432.605L493.082 433.935C494.48 455.394 492.061 474.117 492.962 478.124L492.99 478.243C495.652 488.404 482.314 527.47 466.423 554.559C456.264 571.876 440.373 581.502 442.267 584.685C443.732 587.147 466.078 572.483 484.396 555.167L485.427 554.185C502.189 538.092 514.997 519.841 515.321 522.878C517.23 540.791 492.99 576.203 492.99 580.148L492.995 581.981C493.073 598.674 494.301 612.353 500.335 626.586L500.821 627.717C504.174 635.416 508.779 643.617 516.87 645.42C509.08 633.598 503.511 620.317 500.538 606.475C499.235 600.408 498.426 594.133 499.373 588C500.621 579.911 504.844 572.57 509.774 566.037C522.348 549.372 540.668 535.165 543.96 514.55C545.661 503.895 542.955 493.033 543.33 482.249C543.69 471.884 546.883 461.833 548.143 451.538C551.304 425.684 541.378 398.564 522.272 380.86C542.862 382.856 562.72 391.775 577.889 405.841C584.892 412.333 590.982 419.929 598.964 425.171C609.182 431.881 621.593 434.16 633.63 436.291C611.913 421.751 593.079 402.924 578.532 381.212C589.835 395.817 607.022 405.73 625.324 408.202L624.045 407.367C612.768 399.944 601.928 391.237 595.319 379.498C588.461 367.315 587.068 351.204 595.055 339.729C603.042 328.255 621.65 324.633 631.43 334.624C621.217 321.699 605.546 313.235 589.138 311.781C573.101 310.36 552.318 312.733 538.133 305.017C562.609 300.06 587.392 296.62 612.293 294.725C617.012 294.366 622.691 293.597 627.893 292.64C633.192 291.95 637.749 290.931 641.312 289.131C641.706 288.952 642.049 288.776 642.333 288.602C642.455 288.527 642.567 288.455 642.671 288.386L642.91 288.223L642.968 288.177C645.342 286.392 641.629 286.209 639.946 285.658C640.68 284.788 642.67 284.246 642.786 283.415C642.795 283.352 642.772 283.286 642.725 283.217L642.783 283.036C642.866 282.124 640.606 282.058 640.688 281.146C641.346 279.84 642.537 279.763 642.557 279.118L642.668 278.995C643.187 278.385 643.094 277.929 640.913 277.955L640.688 277.959C635.73 278.083 633.426 278.466 628.945 280.506L628.874 280.525L629.911 279.402C631.191 277.989 632.707 276.05 631.155 275.344C631.108 275.312 631.051 275.289 630.984 275.276C630.702 275.176 630.336 275.11 629.875 275.084C622.322 274.664 621.365 278.551 615.128 278.645L613.618 278.664C588.542 278.915 543.564 276.426 545.13 275.887C546.727 275.337 577.656 252.827 596.802 253.375C606.285 253.647 616.312 256.906 624.904 252.884C609.198 246.39 591.044 244.376 575.205 250.541C566.267 254.02 558.467 259.895 549.782 263.967C531.039 272.754 508.271 272.435 489.781 263.125C510.181 263.606 530.682 258.911 548.839 249.601C522.799 252.393 496.16 249.46 471.351 241.069C490.449 230.053 512.492 225.29 534.635 224.445L537.781 224.445C542.783 224.433 546.606 224.371 549.498 224.446L550.433 224.477C577.708 225.577 604.518 231.523 631.321 236.691C632.221 236.864 633.205 236.962 634.206 236.976L634.457 236.978C638.809 236.978 643.391 235.384 642.783 231.462C629.153 231.212 617.174 223.027 604.867 217.164C588.974 209.592 571.371 205.639 553.768 205.676L552.808 205.681L551.848 205.695C552.105 205.408 552.366 205.123 552.628 204.84L553.21 204.224L553.725 203.693L554.246 203.167C554.911 202.505 555.591 201.857 556.285 201.225L556.884 200.687L557.479 200.165L558.3 199.467L558.809 199.045L559.366 198.595L560.135 197.99L560.487 197.719L561.024 197.313L561.868 196.693L562.435 196.289L563.302 195.688L563.455 195.584C563.883 195.294 564.315 195.01 564.75 194.731L565.208 194.439L565.771 194.088L566.377 193.72L567.048 193.322L567.874 192.848L568.579 192.456L569.175 192.134L569.758 191.826L570.637 191.377L571.298 191.051L572.247 190.598L572.935 190.282L573.797 189.9L574.705 189.514L575.424 189.22C575.869 189.041 576.316 188.868 576.765 188.699L577.439 188.45C578.091 188.214 578.747 187.989 579.407 187.774C579.699 187.679 579.991 187.587 580.283 187.496L580.925 187.302C581.147 187.236 581.37 187.171 581.594 187.108L582.252 186.924C592.238 184.2 600.462 175.802 602.977 165.762C594.307 170.601 583.737 169.392 573.799 169.893ZM532.667 306.148L532.47 306.21C529.84 307.005 526.138 307.894 521.639 308.596C525.307 307.745 528.983 306.929 532.667 306.148ZM628.208 276.105L628.196 276.111L627.604 276.324C627.085 276.507 626.502 276.702 625.851 276.9L626.358 276.662C626.954 276.392 627.57 276.16 628.208 276.105Z" fill="#170229"/>
<path fill-rule="evenodd" clip-rule="evenodd" d="M335.16 366.966C337.337 366.525 339.885 366.194 341.525 367.693C358.704 383.386 367.867 405.86 375.175 427.95C380.116 442.886 384.48 458.128 385.989 473.788C387.203 486.387 386.553 499.083 385.902 511.724C385.306 523.295 384.71 534.867 384.113 546.439C385.445 547.337 409.691 510.75 401.316 462.595C392.942 414.44 371.737 372.349 357.37 358.11C337.152 343.316 315.169 371.019 335.16 366.966Z" fill="#6F42C1"/>
<path d="M576.052 254.857C567.531 258.291 560.452 264.501 552.407 268.936C543.644 273.768 533.865 276.425 524.108 278.645C490.575 286.273 589.142 249.583 576.052 254.857Z" fill="#170229"/>
<path fill-rule="evenodd" clip-rule="evenodd" d="M374.47 279.308C350.905 260.941 346.436 270.449 341.083 267.893C347.26 272.941 353.926 278.875 354.584 286.825C354.99 291.737 352.965 296.492 350.905 300.971C348.049 307.183 344.981 313.42 340.39 318.487C331.059 328.787 371.472 305.404 374.866 297.788C376.433 294.274 378.034 290.547 377.608 286.723C377.307 284.028 376.367 280.786 374.47 279.308Z" fill="white"/>
<path d="M367.705 237.033C366.658 231.86 362.457 227.95 358.167 224.875C345.135 215.531 329.078 210.479 313.043 210.677C314.136 210.161 311.75 210.503 309.255 212.586C306.148 215.178 304.532 217.061 303.28 221.588C307.367 220.83 311.151 218.54 313.717 215.27C312.626 221.049 307.784 225.935 302.015 227.078C305.264 227.923 308.238 229.792 310.407 232.354C305.082 230.397 298.526 232.687 295.578 237.534C303.682 236.478 312.207 239.311 318.067 245.009C309.032 241.647 298.103 244.182 291.469 251.176C304.64 250.16 317.847 249.62 331.057 249.557C324.106 250.95 317.752 255.119 313.707 260.94C314.662 260.943 320.534 260.354 331.057 257.478C337.63 255.682 356.241 249.557 356.241 249.557C356.241 249.557 358.175 248.393 359.045 247.827C365.433 243.666 368.32 240.068 367.705 237.033Z" fill="#170229"/>
<ellipse rx="3.18778" ry="3.74814" transform="matrix(-1 0 0 1 348.881 222.145)" fill="#EF3BDD"/>
<path fill-rule="evenodd" clip-rule="evenodd" d="M357.798 0.674782C358.268 0.80558 359.011 0.716613 358.936 0.234506C358.655 0.0902908 358.341 -0.0580997 358.036 0.0229957C357.73 0.104091 357.532 0.54591 357.777 0.74461L357.798 0.674782Z" fill="#44D9E8"/>
<ellipse rx="3.50152" ry="4" transform="matrix(-1 0 0 1 336.098 243)" fill="#EF3BDD"/>
<path fill-rule="evenodd" clip-rule="evenodd" d="M90.0824 495.841L90.3593 495.593C93.6024 492.692 96.7097 489.557 99.8123 486.428C109.061 477.099 118.268 467.812 130.908 464.867C135.466 463.805 140.156 463.785 144.854 463.766C147.849 463.753 150.848 463.741 153.818 463.458C161.448 462.732 169.708 459.475 172.719 452.434C177.341 441.625 165.801 429.588 154.065 428.727C143.066 427.92 132.796 433.372 122.984 438.58C122.327 438.929 121.671 439.277 121.017 439.622C105.439 447.844 87.6593 454.918 70.5665 450.646C57.8383 447.466 47.9485 438.696 37.9717 429.849C31.1661 423.815 24.3201 417.744 16.5051 413.387C26.4473 406.88 39.6702 412.984 49.2859 419.963C49.7461 420.297 50.2089 420.634 50.6742 420.973C59.9318 427.718 70.2002 435.2 81.2928 432.959C82.6499 432.685 84.0856 432.186 84.8431 431.029C86.5268 428.456 83.7075 425.303 81.0455 423.761C74.4689 419.952 66.9164 417.84 59.3155 417.684C69.2952 412.695 81.8521 413.279 91.3247 419.172C80.7826 408.691 68.467 399.995 55.0589 393.564C66.903 394.16 78.5223 398.6 87.7408 406.052C99.642 415.672 116.89 416.305 131.431 411.52C145.973 406.736 158.449 397.309 170.628 388.041C153.09 394.715 130.28 393.486 113.966 384.219C109.393 381.621 105.412 381.878 100.653 382.184C99.4089 382.264 98.1118 382.347 96.7369 382.384C95.0156 382.43 84.9645 382.58 84.8431 381.736C84.4967 379.327 98.9948 373.935 104.645 374.747C112.475 375.872 120.134 377.543 127.792 379.215C135.451 380.886 143.11 382.557 150.94 383.683C148.571 382.522 146.216 381.529 143.95 380.574C136.768 377.548 130.483 374.899 127.478 368.46C130.245 369.222 132.42 369.929 134.502 370.605C138.013 371.745 141.26 372.799 146.633 373.89C148.318 374.232 150.135 374.28 151.957 374.329C154.091 374.386 156.233 374.444 158.176 374.973C142.02 362.323 119.389 350.711 105.102 349.199C99.1875 348.573 108.024 365.326 116.319 368.46C109.561 369.227 102.192 368.12 97.1398 363.571C92.0876 359.023 90.4584 350.42 94.968 345.334C98.0998 341.802 103.235 340.742 107.952 341C117.394 341.517 125.713 346.283 134.065 351.068C141.613 355.393 149.188 359.733 157.645 360.966C169.961 362.762 183.072 357.078 190.17 346.866C168.384 357.31 138.993 346.617 129.035 324.625L157.539 330.796C167.694 332.994 178.624 335.131 188.188 331.077C198.004 326.916 204.146 317.137 208.663 307.49C213.028 298.168 216.526 288.35 220.017 278.552C226.881 259.286 233.719 240.093 247.071 224.876C258.518 211.831 273.646 203.033 288.793 194.224C303.005 185.959 317.234 177.684 328.454 165.883C348.226 145.086 356.402 113.934 349.385 86.1232C363.657 99.2153 370.886 119.559 368.07 138.709L378.309 122.523C379.348 133.699 380.376 145.088 377.962 156.05C375.548 167.012 369.094 177.679 358.866 182.328C373.474 168.937 380.477 147.768 376.732 128.32C374.874 135.003 370.674 141.012 365.034 145.058C368.304 125.535 363.412 104.778 351.767 88.7624C358.745 118.776 348.131 152.215 325.116 172.731C315.214 181.557 303.489 187.941 291.77 194.323C279.576 200.962 267.389 207.598 257.266 216.979C237.156 235.614 227.618 262.697 218.955 288.694C213.864 303.974 207.926 320.468 194.318 329.104C175.946 340.764 151.933 333.364 131.574 325.673C142.411 347.333 173.416 355.767 193.753 342.587C189.311 355.263 175.966 364.23 162.538 363.562C152.742 363.076 143.718 358.132 134.805 353.25C123.99 347.326 113.337 341.49 101.665 343.815C99.7767 344.19 97.8809 344.809 96.4033 346.042C92.1875 349.558 93.2312 356.748 97.07 360.672C100.909 364.595 106.522 366.099 111.847 367.441C107.158 364.627 102.092 361.341 100.575 356.091C99.0572 350.841 100.026 347.69 104.645 347.69C122.576 347.69 142.152 360.963 158.224 371.861C159.668 372.84 161.083 373.799 162.467 374.729C151.574 376.955 139.931 375.321 130.074 370.184C139.176 377.199 150.495 381.297 161.983 381.736C151.261 389.016 137.912 385.329 124.536 381.635C111.289 377.977 98.0154 374.311 87.2382 381.279C98.2855 376.867 109.831 380.875 121.521 384.933C131.795 388.5 142.181 392.105 152.437 390.066C154.712 389.613 157.016 388.889 159.316 388.166C165.078 386.354 170.823 384.548 176.078 387.025C162.32 398.477 146.489 407.435 129.583 413.335C120.612 416.466 110.801 418.74 101.68 416.078C95.7589 414.35 90.6669 410.701 85.5858 407.059C80.0897 403.121 74.6063 399.191 68.1002 397.712C80.1846 405.083 90.8403 414.781 99.3086 426.115C88.8513 417.814 74.6244 414.455 61.5528 417.203C64.1361 418.013 66.8553 418.265 69.5698 418.517C72.7377 418.81 75.899 419.103 78.83 420.283C84.2726 422.474 88.0798 430.389 83.4988 434.052C82.0576 435.204 80.1492 435.59 78.3071 435.71C68.1026 436.373 59.2584 430.239 50.4528 424.131C41.3258 417.801 32.2403 411.499 21.7245 412.825C31.7741 422.955 42.0434 433.118 54.3417 440.363C66.6401 447.607 81.364 451.741 95.3347 448.8C104.192 446.936 112.136 442.418 120.051 437.917C122.148 436.725 124.243 435.534 126.352 434.393C136.422 428.949 147.927 424.475 159.115 426.906C170.303 429.336 179.918 441.324 175.967 452.059C173.115 459.807 164.626 464.029 156.496 465.511C152.967 466.154 149.38 466.427 145.795 466.701C141.119 467.057 136.449 467.413 131.922 468.588C118.716 472.016 108.845 481.619 98.8789 491.315C91.4134 498.578 83.8942 505.893 74.8795 510.704C66.2344 515.317 64.5668 517.383 62.4453 518.093C60.4188 518.771 57.9781 518.212 48.6462 517.453C33.64 516.232 16.4027 515.412 5.92212 526.208C17.6121 519.866 25.162 522.747 33.7352 526.018C40.3536 528.543 47.5818 531.301 57.7954 530.227C72.3125 528.702 83.8785 518.947 95.3793 509.248C99.6583 505.639 103.928 502.038 108.338 498.871C111.161 496.843 113.772 494.836 116.262 492.922C128.11 483.812 137.22 476.808 153.514 479.708C149.276 488.5 148.084 498.723 150.188 508.252C151.275 513.177 153.615 518.346 158.212 520.431C164.164 523.131 170.978 519.589 176.366 515.891C186.918 508.646 196.752 500.356 205.676 491.183C206.475 490.361 207.271 489.529 208.068 488.696C213.236 483.296 218.464 477.831 225.145 474.569C245.325 464.716 270.089 479.5 281.046 499.086C277.405 485.467 266.79 473.908 253.519 469.112C240.248 464.316 224.686 466.415 213.164 474.555C210.599 476.367 208.048 478.499 205.481 480.644C197.182 487.578 188.711 494.656 179.044 491.549C189.227 492.122 197.196 485.464 205.333 478.664C210.312 474.504 215.354 470.291 221.005 467.648C236.864 460.232 256.225 466.309 269.936 477.189C278.439 483.936 285.977 495.414 280.97 505.039C273.216 484.308 249.426 468.112 228.76 476.092C220.184 479.403 213.564 486.113 207.059 492.706C206.103 493.674 205.15 494.64 204.193 495.593C196.631 503.122 188.478 510.059 179.835 516.321C174.788 519.976 169.054 523.549 162.835 523.105C154.196 522.488 147.825 513.974 146.633 505.404C145.441 496.835 146.599 489.949 149.288 481.725C152.973 477.784 119.562 495.377 109.153 503.133C107.4 504.44 105.228 506.337 102.688 508.556C94.937 515.326 83.7551 525.093 70.5665 530.227C52.2332 537.365 34.854 530.257 27.665 527.318C26.2585 526.742 25.242 526.327 24.6848 526.208C16.7522 524.525 8.70319 526.482 -6.10352e-05 528.987C7.16785 518.732 20.655 514.832 33.1741 514.602C35.0337 514.568 37.3821 514.837 40.0527 515.142C46.192 515.844 54.0338 516.74 61.5528 514.602C72.6356 511.451 83.0895 502.098 90.0824 495.841ZM154.54 382.922C153.6 382.653 152.587 382.641 151.641 382.887L151.697 383.071C152.645 383.162 153.607 383.111 154.54 382.922ZM575.929 254.857C570.749 256.942 566.101 260.05 561.446 263.164L561.446 263.164C558.435 265.178 555.42 267.194 552.256 268.936C543.483 273.768 533.693 276.425 523.925 278.645C490.353 286.273 455.72 289.223 421.34 287.384C409.421 286.746 397.199 285.441 386.595 279.971C373.387 273.157 363.74 259.853 361.378 245.193C366.653 245.503 370.392 239.206 369.343 234.033C368.294 228.86 364.088 224.95 359.794 221.875C346.746 212.531 330.671 207.479 314.617 207.677C315.671 207.181 316.435 206.584 317.214 205.976C318.252 205.167 319.314 204.337 321.117 203.702C316.969 201.779 312.611 202.957 309.09 205.872C310.796 202.643 310.509 198.462 308.378 195.496C304.392 203.513 297.58 210.092 289.424 213.802C298.007 212.117 305.495 205.685 308.448 197.46C309.164 202.506 307.638 207.822 304.388 211.744C308.309 207.438 313.754 204.535 319.524 203.702C311.53 206.53 305.101 213.424 302.841 221.588C306.933 220.83 310.721 218.54 313.29 215.27C312.197 221.049 307.351 225.935 301.575 227.078C304.827 227.923 307.805 229.792 309.976 232.354C304.645 230.397 298.082 232.687 295.13 237.534C303.244 236.478 311.778 239.311 317.645 245.009C308.6 241.647 297.658 244.182 291.017 251.176C304.203 250.16 317.425 249.62 330.65 249.557C323.691 250.95 317.33 255.119 313.28 260.94C317.536 260.953 321.786 259.603 325.252 257.136C322.093 256.689 318.787 257.361 316.054 259.004C321.727 254.046 328.703 250.589 336.087 249.074C322.178 247.536 308.076 247.751 294.221 249.714C301.586 244.593 311.561 243.456 319.891 246.789C315.355 239.574 306.5 235.318 298.025 236.279C301.741 232.677 307.958 231.996 312.367 234.709C311.6 230.995 308.577 227.841 304.896 226.913C307.734 225.433 310.681 223.861 312.535 221.253C314.39 218.646 314.749 214.677 312.455 212.445C311.088 215.279 308.859 217.688 306.151 219.291C305.826 219.572 305.438 219.79 304.968 219.925C305.371 219.731 305.766 219.519 306.151 219.291C307.222 218.364 307.613 216.741 308.018 215.061C308.411 213.432 308.816 211.749 309.867 210.595C311.424 208.887 314.031 208.748 316.342 208.837C333.229 209.487 349.83 216.043 362.597 227.102C365.751 229.834 368.93 233.915 367.35 237.774C366.574 239.67 364.811 240.95 363.133 242.127L351.547 250.253C354.209 250.012 356.816 249.189 359.134 247.86C362.34 262.445 372.469 275.351 385.883 281.943C395.702 286.768 406.801 288.24 417.708 289.124C449.562 291.707 481.776 289.827 513.113 283.556C515.411 283.096 517.706 282.613 520.003 282.129L520.004 282.129C528.48 280.343 536.962 278.556 545.592 277.959C555.902 277.247 568.129 278.117 580.106 278.97C598.35 280.269 616.014 281.526 625.44 277.086C625.54 277.039 625.641 276.99 625.742 276.942C626.792 276.44 627.898 275.911 629.08 276.153C632.012 276.153 629.11 278.265 626.388 280.247C625.183 281.124 624.013 281.976 623.401 282.607C626.398 281.978 628.974 281.419 631.55 280.86C634.126 280.301 636.702 279.742 639.7 279.113C645.695 277.854 633.998 282.981 629.858 283.763C630.789 283.695 632.159 283.547 633.636 283.388C638.18 282.9 643.742 282.301 640.684 283.556C638.659 284.388 636.771 285.062 634.882 285.737C632.994 286.411 631.106 287.086 629.08 287.917C630.104 287.892 631.627 287.782 633.251 287.665L633.253 287.665C637.961 287.324 643.517 286.922 640.202 288.357C635.743 290.286 619.22 292.485 608.028 293.265C579.531 295.249 551.047 298.634 523.32 305.497C519.929 306.336 516.537 307.229 513.142 308.123C498.129 312.074 483.043 316.045 467.606 315.508C467.6 317.463 470.207 318.124 472.165 318.097C484.065 317.935 495.699 314.991 507.261 312.065C508.669 311.709 510.076 311.353 511.482 311.002C544.536 302.759 578.286 297.307 612.256 294.725C622.867 293.919 638.329 291.047 642.331 288.602C645.185 286.858 643.115 286.4 641.242 285.985C640.488 285.818 639.766 285.658 639.41 285.424L639.447 285.411C640.717 284.977 642.387 284.406 642.782 283.036C642.823 282.58 642.278 282.336 641.733 282.091C641.188 281.847 640.643 281.602 640.684 281.146C640.72 280.759 641.289 280.261 641.845 279.774C642.954 278.803 644.013 277.876 640.684 277.959C635.687 278.084 633.383 278.471 628.837 280.548C628.969 280.397 629.14 280.215 629.332 280.01C630.856 278.379 633.736 275.3 629.858 275.084C625.764 274.856 623.605 275.892 621.495 276.904C619.709 277.761 617.957 278.602 615.094 278.645C590.335 279.017 543.416 276.437 545.016 275.887C545.275 275.798 546.304 275.133 547.929 274.083C556.337 268.649 580.685 252.916 596.748 253.375C599.514 253.454 602.326 253.787 605.135 254.119L605.135 254.119C611.969 254.928 618.786 255.735 624.882 252.884C609.157 246.39 590.983 244.376 575.126 250.541C570.036 252.52 565.314 255.274 560.589 258.031C557.006 260.12 553.422 262.211 549.673 263.967C530.908 272.754 508.114 272.435 489.603 263.125C510.026 263.606 530.551 258.911 548.729 249.601C522.659 252.393 495.989 249.46 471.152 241.069C494.824 227.429 523.018 223.376 550.324 224.477C573.921 225.428 597.169 229.996 620.366 234.555L620.366 234.555L620.37 234.556C624.016 235.272 627.662 235.989 631.307 236.691C636.184 237.63 643.543 236.364 642.782 231.462C632.149 231.267 622.52 226.255 612.957 221.277L612.957 221.277C610.247 219.866 607.542 218.459 604.822 217.164C588.332 209.317 570.003 205.357 551.741 205.695C559.811 196.704 570.517 190.102 582.181 186.924C592.178 184.2 600.412 175.802 602.93 165.762C596.165 169.534 588.244 169.631 580.368 169.728C577.944 169.758 575.525 169.788 573.145 169.924C563.03 170.505 551.349 174.795 548.942 184.625C541.949 159.566 526.004 137.098 504.646 122.211C511.222 136.113 513.79 151.879 511.968 167.147C506.254 152.636 495.697 140.076 482.378 131.942C488.411 140.479 491.863 150.811 492.169 161.256C492.392 168.851 490.831 176.803 486.071 182.729C482.996 186.557 478.79 189.306 474.496 191.691C438.703 211.57 391.342 208.364 358.56 183.844C369.809 196.744 386.478 204.14 403.44 206.506C420.403 208.872 437.715 206.567 454.358 202.526C468.724 199.038 484.152 193.135 490.92 180.007C498.017 166.241 493.058 149.399 486.092 135.567C497.472 145.088 506.606 157.271 512.55 170.859C515.258 157.136 514.24 142.699 509.635 129.491C528.842 144.646 542.498 166.67 547.523 190.598C551.633 180.035 562.163 172.275 573.48 171.469C576.529 171.252 579.653 171.486 582.764 171.719C588.555 172.153 594.297 172.584 599.411 170.09C596.695 178.229 587.998 181.462 579.556 184.602L579.555 184.602C577.329 185.429 575.121 186.25 573.044 187.153C562.218 191.86 553.532 200.3 545.105 208.562C561.46 205.234 578.497 209.011 594.076 214.998C601.847 217.984 609.392 221.513 616.937 225.043C624.516 228.588 632.094 232.134 639.903 235.129C630.011 235.455 620.281 233.003 610.668 230.58C610.067 230.429 609.468 230.278 608.869 230.127C570.824 220.582 529.784 214.124 493.065 227.91C489.722 229.165 486.44 230.581 483.159 231.996C478.534 233.991 473.911 235.986 469.12 237.529C441.228 246.513 410.93 239.424 382.773 231.308C406.014 244.005 433.638 248.511 459.716 243.859C467.371 242.494 475.076 244.634 482.635 246.735C483.776 247.052 484.914 247.368 486.048 247.671C501.829 251.888 518.265 253.65 534.583 252.875C511.364 263.278 485.355 261.132 459.351 258.986C433.245 256.833 407.146 254.679 383.881 265.224C415.731 257.776 449.26 257.585 481.193 264.669C484.464 265.395 487.758 266.196 491.064 267C507.6 271.022 524.459 275.122 540.501 270.277C547.587 268.137 553.988 264.369 560.395 260.597C566.076 257.253 571.762 253.905 577.938 251.685C590.768 247.073 605.409 247.727 617.777 253.464C603.788 251.482 589.034 249.583 575.929 254.857ZM303.76 212.461C303.965 212.218 304.174 211.979 304.388 211.744C304.185 211.989 303.976 212.228 303.76 212.461ZM326.788 217.499L327.629 216.664C326.563 215.211 326.645 213.028 327.817 211.658C327.552 211.161 326.769 211.186 326.358 211.571C325.948 211.957 325.819 212.548 325.73 213.104C325.478 214.673 325.503 216.562 326.788 217.499ZM327.522 236.13C326.228 233.594 325.938 230.563 326.728 227.829C327.313 227.824 327.892 227.575 328.296 227.154C327.687 230.094 327.81 233.183 328.65 236.067C328.301 235.878 327.847 235.904 327.522 236.13ZM353.845 227.828C354.334 227.892 354.62 228.403 354.403 228.845C353.062 231.573 348.753 239.805 344.381 242.369C344.044 242.375 343.711 242.177 343.557 241.878C347.88 239.125 352.074 230.434 353.076 228.256C353.212 227.961 353.523 227.786 353.845 227.828ZM327.615 254.576L329.392 252.887C328.382 252.519 327.147 252.9 326.522 253.773C325.896 254.647 325.934 255.937 326.61 256.772C326.888 257.115 327.272 257.387 327.708 257.458C328.042 257.512 328.382 257.447 328.714 257.381C330.045 257.12 331.4 256.849 332.589 256.195C333.777 255.541 334.792 254.43 334.98 253.088C333.047 254.671 330.614 255.636 328.12 255.807L327.615 254.576ZM334.709 256.873C339.653 257.795 344.532 259.066 349.298 260.67C345.201 260.784 341.144 262.083 337.743 264.369C333.378 267.303 328.213 269.038 322.96 269.336C328.564 270.737 334.821 269.193 339.127 265.346C341.203 263.49 344.006 262.605 346.783 262.379C349.56 262.152 352.347 262.532 355.104 262.93C351.139 259.151 345.616 257.582 340.328 256.142C338.384 255.613 335.904 255.252 334.709 256.873ZM340.688 267.893C346.047 270.449 350.718 274.427 354.091 279.308C355.633 281.54 356.93 284.028 357.232 286.723C357.659 290.547 356.055 294.273 354.487 297.788C351.089 305.404 347.605 313.155 342.044 319.374C333.427 329.011 321.07 333.76 308.825 338.466L308.825 338.466L308.824 338.467C305.623 339.697 302.431 340.924 299.315 342.234C256.888 360.078 224.821 396.392 200.559 435.469L200.351 435.804C197.201 440.881 193.918 446.171 188.787 449.216C215.025 401.666 253.204 358.416 303.595 338.056C305.762 337.18 307.966 336.337 310.176 335.491L310.177 335.491L310.177 335.491L310.178 335.49L310.179 335.49L310.18 335.49L310.181 335.489L310.182 335.489L310.182 335.489L310.183 335.488L310.184 335.488L310.185 335.488L310.186 335.487L310.187 335.487L310.187 335.487C321.124 331.301 332.225 327.053 339.994 318.487C344.591 313.42 347.661 307.183 350.522 300.971C352.583 296.492 354.611 291.737 354.204 286.825C353.546 278.875 346.872 272.941 340.688 267.893ZM480.184 487.506C478.379 497.166 476.102 506.775 472.562 515.943C469.31 524.366 465.001 532.382 459.766 539.741C478.83 519.234 484.421 489.782 486.533 461.877C488.219 439.586 488.212 417.168 486.51 394.878C492.988 428.607 494.303 463.663 486.88 497.197C479.456 530.732 462.918 562.71 437.41 585.74C436.331 586.714 437.348 588.693 438.771 588.996C440.193 589.298 441.604 588.546 442.862 587.817C469.534 572.356 496.409 554.272 511.029 527.151C511.643 526.012 511.987 524.181 510.754 523.784C493.782 548.082 471.252 568.481 445.381 582.973C478.507 550.909 494.373 503.939 495.645 457.881C496.918 411.823 484.814 366.352 468.664 323.193C466.584 317.633 464.285 311.878 459.849 307.93C484.23 364.005 491.41 427.407 480.184 487.506ZM167.564 466.887C170.904 467.705 174.521 467.347 177.635 465.89C170.829 470.691 164.64 476.362 159.264 482.72C163.096 481.849 166.65 479.797 169.318 476.915L163.774 487.207L173.157 478.941L170.091 487.737C186.061 474.804 198.902 458.465 211.708 442.171C227.35 422.268 242.94 402.431 264.115 388.949C286.611 374.626 313.352 368.87 339.455 363.369C337.744 362.254 336.744 360.138 336.97 358.11C351.354 372.349 362.883 389.455 370.678 408.125C373.928 415.909 376.531 423.944 379.129 431.968C382.511 442.413 385.906 452.908 387.644 463.747C390.08 478.944 389.206 494.453 388.325 509.819L386.394 543.507C386.302 545.11 385.102 547.337 383.768 546.439L385.558 511.724C386.21 499.083 386.861 486.387 385.646 473.788C384.135 458.128 379.766 442.886 374.819 427.95C367.503 405.86 358.329 383.386 341.131 367.693C339.488 366.194 336.937 366.525 334.758 366.966C314.744 371.019 294.893 376.55 276.565 385.546C258.238 394.543 241.418 407.16 229.398 423.65C211.999 447.523 192.434 469.819 171.021 490.177C169.273 489.557 168.091 487.632 168.331 485.795C167.107 487.745 164.79 488.958 162.487 488.853L162.286 484.149C160.731 485.413 158.301 485.445 156.713 484.223C159.83 478.516 164.413 473.616 169.901 470.122L166.007 469.875C164.494 468.15 166.649 465.674 168.578 464.431L191.255 449.816C184.412 456.802 176.36 462.604 167.564 466.887ZM633.618 436.291C621.567 434.16 609.142 431.881 598.912 425.171C593.493 421.617 588.945 416.98 584.393 412.338C582.232 410.135 580.07 407.93 577.813 405.841C562.626 391.775 542.745 382.856 522.132 380.86C541.259 398.564 551.197 425.684 548.032 451.538C547.519 455.722 546.687 459.866 545.855 464.008C544.641 470.056 543.427 476.097 543.213 482.25C543.059 486.691 543.427 491.145 543.796 495.593C544.321 501.945 544.846 508.283 543.844 514.55C541.461 529.459 531.207 541.017 520.952 552.577L520.952 552.578L520.951 552.578C517.027 557.001 513.103 561.425 509.619 566.037C504.684 572.57 500.455 579.911 499.205 588C498.258 594.133 499.067 600.408 500.372 606.475C503.349 620.317 508.924 633.598 516.723 645.42C508.224 643.528 503.567 634.593 500.169 626.586C493.908 611.835 487.983 595.425 492.816 580.148C494.768 573.978 498.331 568.542 501.9 563.098C503.548 560.583 505.198 558.066 506.69 555.474C517.078 537.435 519.664 515.084 513.668 495.154C516.76 516.516 512.133 538.91 500.828 557.304C499.751 559.055 498.613 560.78 497.474 562.504C494.221 567.431 490.966 572.36 489.145 577.943C487.459 583.113 487.088 588.63 487.288 594.064C488.004 613.505 496.155 632.581 509.714 646.547C511.84 648.736 515.13 650.928 517.677 649.247C520.267 647.539 519.462 643.583 518.216 640.745C516.414 636.639 514.289 632.599 512.163 628.559L512.163 628.559C506.609 618.003 501.056 607.449 501.277 595.74C501.578 579.733 512.644 566.175 523.487 554.384L524.025 553.8C534.716 542.179 546.129 529.774 548.352 514.186C549.25 507.888 548.552 501.55 547.853 495.197C547.373 490.832 546.891 486.459 546.927 482.087C546.98 475.513 548.197 469.044 549.417 462.568C550.247 458.157 551.078 453.742 551.542 449.288C553.958 426.106 545.833 402.032 529.858 385.043C546.617 388.381 562.441 396.278 575.176 407.658C577.773 409.979 580.249 412.445 582.724 414.909L582.724 414.909L582.725 414.91C587.471 419.636 592.212 424.357 597.786 428.037C609.963 436.074 624.921 438.398 639.359 440.53C640.334 439.274 639.027 437.553 637.816 436.52L599.549 403.898C610.617 409.037 622.887 411.569 635.087 411.233C633.411 410.079 631.722 408.936 630.031 407.792L630.031 407.792L630.03 407.791L630.028 407.79L630.026 407.789L630.022 407.786C620.955 401.652 611.845 395.489 604.598 387.337C595.996 377.662 590.263 364.397 593.108 351.774C595.954 339.151 609.594 328.853 621.95 332.74C624.911 333.672 627.571 335.285 630.237 336.901C632.348 338.181 634.462 339.463 636.731 340.409C632.169 322.67 613.01 312.51 594.872 309.823C586.108 308.524 577.226 308.451 568.346 308.378H568.346H568.346H568.346H568.345H568.345H568.345H568.345H568.345H568.345H568.345H568.345C558.848 308.299 549.354 308.221 540.01 306.644C549.647 312.55 561.147 312.131 572.73 311.709C578.222 311.509 583.734 311.308 589.074 311.781C605.502 313.235 621.191 321.699 631.416 334.624C621.625 324.633 602.995 328.255 594.998 339.729C587.002 351.204 588.396 367.315 595.263 379.498C602.129 391.681 613.558 400.597 625.302 408.202C606.979 405.73 589.773 395.817 578.457 381.212C593.021 402.924 611.876 421.751 633.618 436.291ZM183.078 600.276C192.252 611.469 207.401 616.085 221.863 616.869C237.174 617.698 252.672 614.849 266.685 608.63C269.522 607.37 272.32 605.962 274.762 604.048C276.895 602.377 278.719 600.35 280.523 598.328C300.287 576.185 319.576 552.717 329.931 524.914C331.625 520.369 333.087 515.582 332.679 510.75C326.865 528.489 318.494 545.391 307.904 560.771C300.498 571.528 292.038 581.512 283.593 591.476C280.568 595.046 277.522 598.636 273.919 601.623C265.726 608.413 255.168 611.666 244.704 613.62C226.889 616.947 207.162 616.569 192.3 606.209C191.532 605.674 190.777 605.112 190.023 604.551L190.022 604.55L190.019 604.548C187.82 602.911 185.618 601.273 183.078 600.276ZM320.929 212.336C319.898 214.241 318.95 216.191 318.089 218.179C317.636 215.802 318.407 213.226 320.092 211.488L320.929 212.336ZM320.477 240.508C319.263 237.222 318.03 233.829 318.172 230.328C318.194 229.792 318.12 229.078 317.592 228.982C315.994 232.937 316.793 237.754 319.583 240.983L320.477 240.508ZM340.953 219.992C336.971 219.993 332.989 220.741 329.279 222.186C332.555 219.72 336.737 218.483 340.829 218.768C342.249 218.867 343.459 220.227 343.389 221.647C343.32 223.067 341.984 224.304 340.561 224.265C340.585 223.642 341.021 223.155 341.449 222.676C341.564 222.547 341.679 222.418 341.785 222.288C342.284 221.674 342.556 220.631 341.9 220.187C341.629 220.004 341.281 219.992 340.953 219.992ZM93.0334 600.517C96.7997 599.156 100.665 598.091 104.527 597.027L119.823 592.812C144.27 586.077 169.642 579.282 194.679 583.31C198.613 583.943 202.566 584.84 206.52 585.737C217.333 588.191 228.157 590.648 238.652 587.715C239.527 587.471 240.472 586.235 239.617 585.928C228.891 588.845 217.787 586.439 206.758 584.049C203.543 583.353 200.335 582.657 197.145 582.096C185.756 580.091 174.066 579.802 162.591 581.242C151.788 582.597 141.239 585.464 130.734 588.322L100.47 596.556C96.6434 597.597 92.81 598.64 89.0972 600.034C81.2202 602.989 73.9409 607.524 67.8182 613.29C68.5418 613.919 69.6248 613.821 70.574 613.685C102.272 609.13 133.55 601.662 163.884 591.406C181.291 585.521 201.797 590.037 215.112 602.69C205.002 604.072 194.537 602.778 185.071 598.973C189.413 602.302 194.731 604.346 200.187 604.783C203.081 605.015 206.047 604.818 209.001 604.621C214.439 604.259 219.832 603.9 224.64 606.231L216.686 600.912C206.998 594.433 196.764 587.754 185.152 586.711C175.954 585.885 166.891 588.7 158.049 591.445L157.561 591.597C157.307 591.675 157.053 591.754 156.799 591.833C129.473 600.293 101.526 606.754 73.257 611.147C79.2824 606.665 85.9689 603.071 93.0334 600.517ZM336.573 414.68C332.682 421.46 330.428 429.168 330.055 436.973C329.787 442.559 330.465 448.116 331.143 453.678V453.679V453.679C331.627 457.641 332.11 461.606 332.253 465.587C332.945 484.908 325.581 503.668 316.184 520.571C305.83 539.195 292.026 557.05 272.599 565.845C253.173 574.639 227.238 571.717 214.505 554.625C227.995 558.25 242.882 556.371 255.045 549.507C244.334 550.597 232.997 546.798 225.88 538.729C218.762 530.661 216.502 518.318 221.225 508.654C225.948 498.99 237.845 493.116 248.174 496.151C258.503 499.185 265.383 511.448 261.749 521.571C260.109 526.139 256.449 530.091 251.788 531.461C247.126 532.83 241.575 531.261 238.799 527.277C234.05 520.463 239.477 510.379 247.201 507.31C239.213 505.438 230.717 512.691 230.568 520.885C230.418 529.078 237.789 536.405 245.968 537.047C254.147 537.689 262.187 532.241 265.465 524.729C268.743 517.217 267.543 508.162 263.221 501.196C258.069 492.891 248.639 487.46 238.871 486.935C229.103 486.411 219.238 490.723 212.818 498.094C203.719 508.541 202.028 523.493 202.71 537.323C203.62 555.811 186.384 573.118 167.87 572.306C152.104 571.614 136.172 575.169 122.199 582.496C125.565 572.415 136.534 567.144 146.749 564.173C148.259 563.734 149.789 563.314 151.326 562.892C160.185 560.458 169.241 557.97 175.642 551.558C182.175 545.015 184.474 535.962 186.797 526.818C188.162 521.443 189.536 516.036 191.782 511.089C189.487 528.362 185.875 547.814 171.246 557.305C165.712 560.896 159.251 562.553 152.816 564.205L152.816 564.205L152.816 564.205C151.073 564.652 149.333 565.098 147.613 565.583C139.542 567.856 131.18 571.498 126.864 578.68C135.904 572.606 147.133 571.867 158.176 571.14H158.177C160.564 570.983 162.942 570.826 165.288 570.617C178.485 569.437 193.385 564.788 198.395 552.536C200.592 547.161 200.451 541.263 200.311 535.393L200.311 535.391C200.27 533.679 200.229 531.969 200.246 530.276C200.446 510.667 211.521 489.378 230.66 485.009C243.974 481.969 258.91 488.563 265.622 500.444C270.31 508.743 270.92 519.496 266.187 527.77C261.454 536.044 251.122 541.061 241.893 538.646C232.664 536.232 225.982 525.891 228.51 516.703C231.038 507.515 243.152 502.126 251.259 507.15C247.343 508.598 243.511 510.711 241.047 514.078C238.583 517.445 237.795 522.276 239.998 525.818C243.97 532.205 254.824 529.966 258.666 523.501C263.361 515.602 259.68 504.241 251.603 499.848C243.527 495.454 232.607 498.001 226.608 504.964C220.609 511.927 219.521 522.429 223.097 530.892C226.551 539.068 234.125 545.381 242.797 547.312C251.468 549.243 261.01 546.741 267.614 540.806C269.147 542.979 266.775 545.758 264.564 547.238C252.864 555.07 238.883 559.461 224.801 559.726C239.245 570.922 260.611 569.596 276.535 560.622C292.459 551.648 303.837 536.411 313.202 520.725C321.914 506.134 329.47 490.163 329.955 473.181C330.13 467.03 329.371 460.918 328.611 454.802C328.028 450.114 327.445 445.424 327.283 440.711C326.908 429.849 329.275 418.028 337.456 410.862C362.254 438.092 372.426 477.89 363.731 513.661C359.238 532.142 350.164 549.18 340.233 565.406C339.53 566.555 338.821 567.704 338.111 568.854C332.07 578.638 325.973 588.514 322.936 599.565C319.543 611.915 320.644 626.327 329.211 635.855C325.449 620.132 328.95 602.827 338.531 589.798C341.905 585.208 345.946 581.179 349.989 577.149C353.476 573.672 356.965 570.193 360.029 566.352C371.104 552.469 375.971 534.788 380.573 517.642C378.905 541.884 367.255 565.291 348.914 581.254C331.699 596.237 325.22 622.326 333.428 643.607C323.829 635.057 318.296 622.136 318.737 609.296C319.29 593.203 328.326 579.302 337.271 565.541L337.272 565.539L337.276 565.533C339.745 561.735 342.207 557.948 344.481 554.128C357.279 532.633 364.785 507.721 364.016 482.724C363.248 457.728 353.876 432.755 336.573 414.68Z" fill="#44D9E8"/>
<path fill-rule="evenodd" clip-rule="evenodd" d="M440.307 158.541C436.361 158.431 434.749 157.862 431.144 159.687C414.449 168.141 426.262 182.678 441.153 172.818C449.485 167.301 443.522 152.888 442.843 146.274C442.17 139.716 441.371 135.932 445.945 136.995C457.655 139.716 454.784 150.406 455.253 155.116C455.462 157.205 458.264 159.933 460.191 157.12C464.954 150.165 463.362 138.88 457.655 132.854C454.982 130.031 451.116 128.593 448.348 125.867C445.658 123.217 444.273 119.354 441.431 116.872C437.378 113.332 436.389 121.671 436.361 122.299C435.833 134.124 435.411 144.966 439.319 155.829L440.307 158.541Z" fill="#EF3BDD"/>
<path fill-rule="evenodd" clip-rule="evenodd" d="M118.934 224.88C120.179 220.353 123.332 226.001 123.534 227.451C123.762 229.088 119.673 239.835 124.138 236.837C132.597 231.158 124.851 224.592 122.616 218.525C121.792 216.286 122.576 213.716 122 211.402C121.9 210.996 121.14 210.901 120.77 211.101C113.049 215.284 117.521 227.851 114.044 231.836C112.756 233.313 111.051 230.417 108.37 230.175C105.064 229.876 101.365 230.916 102.093 235.167C103.411 242.872 110.148 246.505 115.108 236.23C118.648 228.895 117.642 229.578 118.934 224.88Z" fill="#EF3BDD"/>
</svg>
