<svg width="567" height="676" viewBox="0 0 567 676" fill="none" xmlns="http://www.w3.org/2000/svg">
<ellipse cx="269" cy="361.414" rx="269" ry="282.586" fill="#6F42C1"/>
<path fill-rule="evenodd" clip-rule="evenodd" d="M319.804 191.598C333.027 213.31 346.566 234.532 362.588 254.269L364.298 256.367L372.132 265.909C388.213 285.558 403.914 306.073 407.774 330.81C406.832 345.539 410.082 365.099 406.026 383.776C403.22 396.691 398.538 409.166 393.084 419.259L391.806 423.343C390.67 426.958 389.54 430.511 388.464 433.833L386.61 439.519L385.6 442.651C379.461 461.816 374.075 481.444 374.54 501.499C374.889 516.565 378.605 531.544 385.339 545.026C388.698 551.753 392.881 558.204 398.603 563.081C413.215 575.537 435.773 575.242 452.746 566.265C469.72 557.289 481.845 541.185 490.868 524.236C492.318 521.511 496.038 520.68 498.985 521.598C501.932 522.515 504.262 524.747 506.399 526.974C527.734 549.211 541.562 578.528 545.15 609.135C545.736 614.133 546.041 619.303 544.521 624.1C543.001 628.896 539.297 633.284 534.371 634.306C530.435 635.122 526.42 633.742 522.422 633.329C508.088 631.85 495.362 641.711 483.981 650.753C423.368 698.909 343.213 671.847 312.319 618.516C288.944 578.164 289.63 515.92 289.63 494.032C289.63 472.144 330.224 372.289 344.286 359.133L345.756 357.268L348.647 353.616C354.744 345.881 360.65 337.935 363.676 328.634C367.717 316.21 366.133 302.504 361.776 290.187C357.419 277.87 351.205 265.351 344.286 254.269L317.966 214.661C316.469 212.296 314.803 209.929 312.319 208.687C309.609 207.333 303.202 214.661 304.498 207.534C305.795 200.407 311.205 192.206 319.804 191.598Z" fill="#170229"/>
<path fill-rule="evenodd" clip-rule="evenodd" d="M484.575 458.38C479.352 442.433 472.327 427.076 463.677 412.696C451.748 392.863 433.376 373.238 410.234 373.587C402.778 394.283 403.314 369.557 400.085 369.63C396.504 369.711 393.281 366.184 393.685 362.625C394.09 359.066 398.021 356.35 401.492 357.232C397.389 356.929 392.82 356.4 390.177 353.246C387.534 350.092 389.417 343.727 393.497 344.264C390.745 344.486 389.527 340.307 391.213 338.121C392.899 335.934 395.912 335.379 398.644 334.981C405.453 333.989 412.261 332.998 419.07 332.006C415.474 328.294 412.327 324.148 409.717 319.687C422.107 315.764 435.45 322.961 444.488 332.3C453.526 341.639 460.085 353.253 469.767 361.922C491.507 381.384 509.847 404.632 523.713 430.305C529.714 441.415 534.89 452.996 538.689 465.038C548.797 497.085 548.785 532.242 538.655 564.282C311.634 627.748 400.246 481.942 385.392 451.558C383.843 448.389 395.051 500.608 419.07 527.425C428.969 538.478 442.617 541.962 455.963 540.609C510.364 535.096 485.118 460.039 484.575 458.38Z" fill="#170229"/>
<path fill-rule="evenodd" clip-rule="evenodd" d="M110.888 583.719C227.199 652.579 280.242 628.073 290.677 627.748C330.839 626.494 401.037 538.249 407.752 530.658C409.428 528.764 410.308 525.922 410.003 523.412C409.844 522.111 407.382 522.471 406.626 521.402C404.183 517.947 402.38 514.063 400.659 510.197C384.739 474.439 386.707 429.274 372.655 392.741C364.444 371.392 333.755 294.972 302.516 283.359C295.102 280.603 284.948 276.927 277.226 275.215C277.117 275.191 278.87 259.432 278.87 259.432H270.842C270.842 259.432 260.973 274.691 260.643 273.569C257.944 264.395 257.944 243.502 256.927 223.775C256.295 211.527 221.62 196.571 221.62 196.571C220.728 196.22 207.148 238.002 192.329 265.83C189.916 270.362 175.468 265.83 175.468 265.83C175.468 265.83 172.331 266.44 170.362 268.375C168.394 270.31 163.981 277.691 163.981 277.691C163.981 277.691 172.389 288.381 172.301 288.533C169.282 293.755 82.1715 376.931 91.5954 518.208C91.5954 518.208 92.5931 529.736 94.5329 536.323C95.984 541.25 57 547.158 57 547.158C57 547.158 72.8646 571.124 85.8808 577.67C98.8971 584.216 106.514 574.75 107.374 577.67C108.164 580.353 110.888 583.719 110.888 583.719Z" fill="#170229"/>
<path fill-rule="evenodd" clip-rule="evenodd" d="M244.429 290.325C235.598 279.174 233.39 269.098 233.831 253.922C233.983 248.688 235.419 243.504 237.197 238.58C241.295 227.234 245.976 216.069 251.393 205.291C253.028 202.039 255.921 204.455 256.548 206.171C257.409 208.534 258.092 211.043 258.083 213.558C258.049 223.456 256.089 233.313 256.419 243.206C256.685 251.153 261.869 267.287 260.004 276.778C257.916 287.407 254.398 286.797 245.84 291.238L244.429 290.325Z" fill="white"/>
<path fill-rule="evenodd" clip-rule="evenodd" d="M111.645 578.175C125.191 576.955 140.86 574.971 151.796 565.718C155.62 562.483 157.37 556.641 161.971 554.663C163.851 553.854 202.154 593.67 259.645 599.621C301.969 604.002 324.001 581.855 324.425 585.248C324.936 589.342 331.164 608.945 330.103 612.932C329.57 614.934 327.605 616.578 325.653 617.272C306.826 623.96 289.703 631.548 270.41 636.739C264.983 638.199 259.315 638.639 253.71 639.049C248.769 639.411 243.744 639.799 238.846 639.049C225.172 636.956 211.54 634.304 198.224 630.555C187.526 627.543 177.225 623.212 167.014 618.825C158.093 614.994 149.045 611.211 140.899 605.93C133.595 601.196 127.346 594.977 121.012 589.008C118.969 587.082 117.582 584.563 115.868 582.341L111.645 578.175Z" fill="#170229"/>
<ellipse cx="253.708" cy="134.26" rx="68.3369" ry="93.2596" fill="#170229"/>
<circle cx="293.5" cy="177.5" r="5.5" fill="#EF3BDD"/>
<path fill-rule="evenodd" clip-rule="evenodd" d="M326.923 0C299.638 23.0028 264.832 34.669 230.937 45.837C246.304 34.8236 262.67 22.4338 267.792 4.23506C250.737 18.1443 233.138 31.3871 215.049 43.9232C214.692 44.171 214.333 44.4189 213.975 44.6669C205.614 50.4536 197.092 56.3519 191.153 64.5816C184.958 73.1641 182.089 85.0155 186.871 94.458C189.411 99.4735 188.244 105.355 187.13 110.965C186.992 111.665 186.853 112.36 186.724 113.05C181.382 141.388 192.49 172.234 214.672 190.661C219.18 194.406 217.922 201.525 216.129 207.105C209.971 226.275 202.274 244.952 193.137 262.896C191.356 266.393 186.491 270.159 184.357 266.866C181.357 262.237 174.334 261.538 169.601 264.371C164.868 267.204 162.212 272.616 161.136 278.026C180.459 297.319 204.013 312.352 229.648 321.754C233.835 323.29 238.707 324.627 242.562 322.386C214.71 316.627 191.084 298.868 168.49 281.594C163.59 277.849 167.478 269.071 173.485 267.677C179.493 266.282 185.508 269.592 190.646 273.004C209.448 285.489 226.15 301.13 239.842 319.074C229.238 298.656 211.496 282.651 191.887 270.618C206.774 248.346 216.97 222.954 221.62 196.571C229.633 210.406 243.696 220.59 259.339 223.888C253.148 239.563 251.691 257.072 255.204 273.554C256.095 277.733 253.666 281.76 251.436 285.46C251.315 285.659 251.196 285.858 251.077 286.056C246.465 293.738 243.102 302.168 241.158 310.915C240.942 311.887 240.748 312.93 241.111 313.858C242.351 317.028 247.169 315.067 249.544 312.628C262.484 299.337 272.723 283.427 279.459 266.143C280.685 262.998 281.186 258.373 278.01 257.23C276.614 256.727 275.069 257.227 273.712 257.826C266.999 260.79 261.477 266.361 258.573 273.101C256.673 258.924 257.018 244.449 259.591 230.38C260.238 226.841 261.801 222.58 265.377 222.183C278.737 220.7 288.346 208.86 295.247 197.324C312.162 169.052 322.151 133.682 309.828 103.127L333.465 115.656C329.956 109.551 327.196 103.696 324.437 97.8405C321.677 91.9854 318.918 86.1303 315.409 80.0252C329.066 76.6684 341.27 71.0872 353.42 63.707C365.571 56.3268 374.411 44.3455 380.547 31.5216C354.917 50.4854 322.383 59.8954 290.587 57.5412C296.27 52.2834 301.397 45.5675 301.671 37.8305C296.093 45.6764 287.152 51.0438 277.604 52.2786C275.783 50.6261 278.496 47.976 280.754 47.0039C301.441 38.0991 318.39 20.8436 326.923 0ZM210.508 137.054L210.55 137.286C212.396 147.394 214.797 157.399 217.741 167.243C219.246 160.792 219.771 154.182 220.297 147.568C220.665 142.923 221.035 138.276 221.743 133.679C223.462 122.535 227.694 111.009 236.836 104.41C241.302 101.186 246.608 99.38 251.826 97.6184C254.998 96.5476 258.322 95.462 261.63 95.9718C263.924 96.3252 266.025 97.4224 268.078 98.5033L290.73 110.427C288.758 105.395 285.9 100.711 282.326 96.6565C288.722 97.1506 295.074 98.2109 301.284 99.8208C302.648 100.174 304.066 100.588 305.078 101.569C305.919 102.384 306.385 103.501 306.804 104.594C313.079 120.966 313.669 139.251 309.793 156.351C305.918 173.451 297.718 189.399 287.157 203.396C283.697 207.981 279.901 212.445 275.061 215.54C266.678 220.901 255.443 221.461 246.568 216.962C239.379 213.317 234.259 207.015 229.11 200.677C225.049 195.678 220.97 190.656 215.843 186.898C203.226 177.651 194.908 163.283 191.195 148.088C187.481 132.893 188.103 116.894 190.953 101.514C196.109 107.65 200.543 114.391 204.136 121.555C199.121 118.59 192.427 123.84 191.935 129.645C191.444 135.449 195.019 140.779 198.844 145.173C200.423 146.987 202.144 148.788 204.36 149.721C206.576 150.655 209.416 150.506 211.072 148.762C204.428 147.371 198.585 142.602 195.89 136.373C194.101 132.236 194.29 126.343 198.371 124.429C201.483 122.97 205.334 124.783 207.33 127.582C209.279 130.318 209.904 133.743 210.508 137.054ZM288.344 94.5349C283.993 94.0568 279.311 93.5423 276.432 90.3247C269.661 82.7584 261.112 76.7926 251.675 73.0469C250.314 72.5069 248.094 72.551 248.119 74.0146C262.688 80.1194 275.331 90.7342 283.865 104.027C267.188 93.5522 247.377 84.1828 228.421 89.5244C232.251 91.2391 236.668 91.1431 241.024 91.0484C246.437 90.9307 251.757 90.8151 255.742 94.1787C245.919 95.8409 236.38 100.345 229.804 107.831C218.646 120.534 217.76 138.982 217.442 155.886C217.301 155.255 217.102 154.351 216.858 153.235C214.914 144.363 210.048 122.148 207.33 118.004C206.248 116.356 205.187 114.759 204.156 113.207C196.178 101.198 189.997 91.893 190.142 82.5639C190.294 72.8411 197.594 62.9136 210.55 54.0023C220.652 47.0543 229.819 39.2806 238.991 31.503C246.73 24.9406 254.472 18.3755 262.781 12.3013C256.078 23.4383 245.638 31.7319 235.424 39.7728L214.432 56.2997C226.743 51.5328 239.108 47.5049 251.474 43.4769C263.84 39.449 276.205 35.421 288.516 30.6541C299.436 26.4255 310.508 18.9986 318.617 10.5493C311.144 25.9215 295.482 35.3008 280.657 43.8086C276.616 46.1277 272.063 48.531 267.528 47.4653C256.57 44.8905 244.593 46.9912 235.166 53.1417C243.675 50.9458 252.407 49.121 261.182 49.5974C269.957 50.0739 278.873 53.0745 285.026 59.3494L270.002 57.863C268.798 57.7439 267.162 57.9398 266.996 59.1384C266.821 60.4027 268.5 60.994 269.772 61.1001C303.672 63.9265 338.283 58.1103 369.314 44.1702C350.17 63.879 322.907 72.9841 296.758 81.4155C297.41 83.0679 299.754 83.2344 301.399 82.5639C301.983 82.3259 302.544 82.0187 303.104 81.7124C304.12 81.156 305.131 80.6023 306.269 80.4693C309.502 80.0916 312.001 83.1356 313.754 85.8783C318.708 93.6322 323.167 101.702 327.097 110.022C316.216 101.579 302.987 96.1958 289.303 94.6414C288.986 94.6054 288.666 94.5702 288.344 94.5349ZM274.329 271.727C270.536 279.004 266.385 286.094 261.896 292.964C256.705 300.907 250.995 308.628 243.793 314.805C242.94 313.777 243.162 312.259 243.467 310.958C247.24 294.916 256.581 280.826 265.935 267.259C267.028 265.674 268.135 264.077 269.546 262.767C271.175 261.255 273.189 260.161 275.344 259.618C276.285 259.381 277.38 259.278 278.138 259.884C279.41 260.901 278.787 262.922 278.058 264.379C276.828 266.835 275.599 269.291 274.329 271.727ZM295.203 49.1641L292.948 51.961C291.704 53.5039 290.371 55.1133 288.516 55.811C286.661 56.5087 284.151 55.8753 283.503 54.0023C287.614 52.1506 291.574 49.9609 295.327 47.4627C295.949 47.7049 295.622 48.6445 295.203 49.1641ZM194.676 111.695C194.208 111.572 193.697 111.42 193.43 111.016C193.162 110.612 193.379 109.903 193.863 109.919C194.576 110.125 195.029 110.975 194.8 111.682L194.676 111.695ZM191.233 113.971C190.747 113.323 191.423 112.157 191.797 111.943C192.082 111.779 192.68 112.75 192.551 113.215C192.398 113.765 191.793 114.249 191.233 113.971ZM309.632 120.089C307.216 122.088 303.725 121.88 300.605 121.566L293.365 120.836C292.185 120.717 290.666 120.245 290.677 119.06C290.684 118.199 291.577 117.618 292.411 117.404C294.395 116.894 296.376 117.52 298.376 118.151C300.019 118.67 301.674 119.193 303.355 119.094C303.878 119.063 304.396 118.971 304.914 118.879C305.519 118.772 306.124 118.664 306.738 118.655C307.876 118.636 309.139 119.063 309.632 120.089ZM260.328 119.368C259.589 118.271 258.16 117.901 256.848 117.733C252.038 117.114 247.18 118.063 242.424 119.008L234.238 120.634L227.199 122.032C229.029 124.054 231.882 124.884 234.609 124.912C236.889 124.936 239.134 124.471 241.372 124.007C241.811 123.915 242.251 123.824 242.69 123.737C248.094 122.663 253.617 122.149 259.123 122.346C260.444 122.393 261.066 120.466 260.328 119.368ZM341.202 325.525C336.107 317.187 330.954 308.774 324.168 301.742C319.477 296.88 314.062 292.746 308.301 289.214C299.684 283.931 290.256 279.971 280.45 277.517C279.446 277.266 278.37 276.99 277.692 276.209C277.013 275.429 277.045 273.967 278 273.569C313.422 281.714 343.385 310.251 353.247 345.234L341.202 325.525ZM179.093 441.765C179.396 440.354 180.849 438.555 181.829 439.615C177.944 464.551 171.245 489.048 161.9 512.491C159.721 511.531 160.16 508.348 160.95 506.102C168.346 485.068 174.409 463.565 179.093 441.765ZM525.438 590.583C530.663 602.297 534.326 614.923 534.17 627.748C538.331 624.817 537.663 618.537 536.332 613.624C530.438 591.872 520.37 571.259 506.839 553.237C505.748 553.998 506.313 555.696 506.983 556.845C508.056 558.687 509.138 560.525 510.22 562.363L510.22 562.364L510.221 562.365L510.221 562.366C515.649 571.587 521.082 580.818 525.438 590.583ZM227.811 314.184C227.17 313.474 227.845 312.187 228.794 312.068C229.743 311.949 230.628 312.697 230.99 313.582C231.352 314.467 231.313 315.458 231.267 316.413C229.811 316.786 228.154 315.699 227.915 314.215L227.811 314.184ZM145.354 325.228C124.844 354.839 107.617 386.975 97.0371 421.407C86.4576 455.838 82.6789 492.672 88.8599 528.158C89.3072 530.726 91.5105 534.073 93.638 532.567C93.638 473.683 96.1316 446.536 110.888 406.683C125.645 366.831 143.71 331.223 169.665 297.573C171.294 295.46 173.026 292.779 171.986 290.322C162.58 301.541 153.69 313.193 145.354 325.228ZM166.005 548.648C150.369 559.474 133.454 568.45 115.725 575.332C106.755 578.813 96.9884 581.794 87.6326 579.548C75.7852 576.704 67.4858 566.265 60.7603 556.105C58.951 553.372 57.1265 550.433 57.0047 547.158C56.8828 543.882 59.1652 540.286 62.4416 540.192C84.2853 539.571 106.032 535.648 126.716 528.598C128.198 528.093 129.683 527.571 131.173 527.047L131.178 527.045L131.181 527.044C141.149 523.539 151.305 519.968 161.722 521.056C168.496 521.764 175.979 525.641 176.869 532.394C177.767 539.209 171.657 544.736 166.005 548.648ZM62.6793 548.634C67.667 554.733 72.0878 561.295 75.8661 568.208C79.3519 574.587 87.0739 577.727 94.3423 577.669C101.611 577.612 108.571 574.898 115.257 572.046C131.408 565.158 147.113 557.225 162.242 548.313C165.261 546.535 168.316 544.667 170.559 541.976C172.802 539.285 174.127 535.583 173.143 532.221C171.456 526.454 164.295 524.446 158.287 524.447C147.242 524.45 136.611 527.95 126.065 531.423L126.064 531.423L126.063 531.424L126.062 531.424L126.061 531.425L126.06 531.425L126.059 531.425L126.058 531.426L126.057 531.426L126.056 531.426C124.141 532.057 122.228 532.687 120.317 533.294C108.027 537.201 95.4648 540.249 82.7516 542.409C82.3204 542.482 81.888 542.555 81.4548 542.628L81.4541 542.628C74.8878 543.731 68.1327 544.866 62.6793 548.634ZM359.365 250.382L319.235 198.445L315.343 204.954C327.313 222.182 339.294 239.426 350.049 257.438C361.331 276.333 371.546 297.625 368.694 319.447C366.15 338.914 353.841 354.992 341.713 370.834C338.916 374.487 336.129 378.128 333.473 381.795C289.896 441.962 278.099 523.865 302.924 593.885C296.65 583.906 293.052 572.468 290.564 560.945C275.338 490.426 300.931 415.512 345.436 358.731C346.273 357.663 347.119 356.596 347.967 355.527L347.974 355.517C354.69 347.047 361.499 338.459 364.826 328.231C368.867 315.807 367.283 302.102 362.926 289.785C358.569 277.467 351.595 266.274 344.676 255.192L319.52 214.903C317.916 212.333 316.179 209.64 313.469 208.285C310.76 206.931 306.805 207.592 305.662 210.397C303.807 201.707 310.94 192.225 319.804 191.598C333.027 213.31 347.716 234.13 363.739 253.867C365.663 256.237 367.615 258.609 369.574 260.991L369.574 260.992C386.881 282.028 404.767 303.77 408.925 330.407C405.543 321.624 401.573 313.066 397.051 304.811C386.439 285.435 372.872 267.863 359.365 250.382ZM315.287 195.342C312.616 197.596 310.194 200.144 308.08 202.928C307.735 203.382 307.383 203.885 307.376 204.456C307.367 205.142 307.944 205.786 308.627 205.852C309.362 205.923 310.014 205.415 310.564 204.923C313.293 202.484 315.706 199.692 317.724 196.639C318.017 196.196 318.314 195.664 318.142 195.161C317.775 194.091 316.152 194.613 315.287 195.342ZM280.14 185.781C284.342 184.865 288.942 186.002 292.234 188.769C292.576 186.744 291.015 184.786 289.129 183.973C287.243 183.16 285.111 183.221 283.059 183.297L264.687 183.972C261.437 184.092 258 184.17 255.156 182.592L254.98 182.494C253.751 181.809 252.226 180.958 251.219 181.886C252.982 184.735 256.286 186.562 259.636 186.54L271.141 186.465C274.155 186.445 277.195 186.423 280.14 185.781ZM191.812 118.227C192.624 117.199 193.646 120.03 193.052 120.663C192.815 120.914 191.7 120.784 191.489 120.152C191.277 119.52 191.812 118.227 191.812 118.227ZM198.372 158.345C199.065 159.021 199.079 160.269 198.4 160.96C196.57 159.304 198.372 158.345 198.372 158.345ZM205.402 157.993C206.384 157.63 206.946 156.405 206.581 155.424L206.462 155.534C205.822 155.28 205.01 155.617 204.738 156.249C204.465 156.881 204.778 157.702 205.402 157.993ZM270.922 171.246C271.206 169.679 273.583 169.803 274.881 170.726C275.121 170.897 275.362 171.084 275.605 171.272C276.678 172.102 277.796 172.967 279.059 172.671C279.977 172.457 280.639 171.661 281.119 170.85C283.585 166.691 282.947 161.692 282.317 156.76V156.76V156.76V156.76V156.76V156.759V156.759V156.759L282.317 156.759C282.137 155.35 281.958 153.946 281.852 152.569C281.374 146.342 282.51 140.115 283.662 133.976C283.855 132.946 284.068 131.871 284.718 131.049C285.368 130.227 286.6 129.762 287.496 130.306C284.845 137.619 283.78 145.503 284.395 153.257C284.486 154.396 284.612 155.534 284.738 156.672L284.738 156.673C285.016 159.178 285.294 161.682 285.19 164.196C285.038 167.852 283.962 171.648 281.323 174.182C280.718 174.764 280.008 175.284 279.184 175.442C277.772 175.711 276.408 174.881 275.21 174.087L270.922 171.246ZM189.439 125.816C189.094 126.28 189.309 127.637 189.647 127.629C189.985 127.621 191.078 126.296 191.019 125.78C190.959 125.263 189.784 125.351 189.439 125.816ZM198.061 115.676C197.198 116.028 197.049 117.423 197.819 117.948L197.824 118.046C198.915 117.913 199.103 116.022 198.061 115.676ZM299.27 141.337C302.585 141.042 305.871 139.391 307.649 136.579C307.777 136.377 307.9 136.158 307.903 135.919C307.91 135.35 307.21 134.996 306.654 135.116C306.154 135.223 305.753 135.572 305.364 135.911C305.32 135.95 305.277 135.988 305.233 136.025C301.932 138.867 296.956 139.589 292.983 137.803C292.879 137.756 292.774 137.708 292.669 137.659C291.89 137.298 291.075 136.92 290.253 137.112C289.321 137.33 288.782 138.802 289.64 139.226C292.625 140.698 295.956 141.632 299.27 141.337ZM198.103 149.738C198.646 150.124 198.921 150.965 198.487 151.469C197.888 152.164 196.766 151.618 196.047 151.049C195.402 150.539 194.688 149.86 194.826 149.05C194.965 148.24 197.56 149.353 198.103 149.738ZM185.487 568.875C179.274 563.52 173.053 558.157 166.347 553.481C192.846 588.479 237.594 608.81 281.385 605.749C290.34 605.123 299.454 603.507 307.192 598.957C319.038 591.992 326.045 579.247 332.486 567.108L327.406 588.691L353.745 571.201L340.678 590.807L355.907 579.169C357.419 578.013 360.412 577.454 360.498 579.356L345.691 593.397C351.31 591.222 357.22 589.008 363.196 589.77C344.607 610.324 320.236 625.592 293.631 633.351C267.026 641.109 238.269 641.336 211.545 633.998C204.773 632.138 198.138 629.807 191.597 627.251C164.656 616.724 139.226 602.336 116.328 584.663C114.716 583.419 112.248 582.203 110.888 583.719C131.545 604.8 157.759 619.771 185.155 630.752C192.762 633.801 200.493 636.566 208.403 638.708C261.299 653.038 321.349 636.845 359.869 597.865C361.981 595.728 364.161 593.22 364.169 590.216C364.178 587.212 360.565 584.331 358.157 586.126C360.122 584.472 362.204 582.63 362.739 580.119C363.275 577.608 361.257 574.485 358.742 575C358.003 575.151 357.303 575.58 356.619 575.999C355.554 576.651 354.529 577.279 353.459 576.8C355.728 574.397 357.804 570.039 354.953 568.369C353.044 567.25 350.699 568.692 348.976 570.079C343.57 574.431 338.224 578.858 332.941 583.359C332.401 580.726 333.465 578.087 334.478 575.573L334.568 575.349C334.612 575.24 334.655 575.132 334.698 575.024C335.769 572.347 336.654 569.252 335.385 566.663C334.117 564.073 329.716 563.229 328.508 565.848C322.961 577.872 315.883 590.06 304.304 596.484C295.1 601.59 284.17 602.406 273.644 602.433C253.021 602.485 231.844 599.761 213.723 589.916C203.374 584.293 194.438 576.591 185.487 568.875ZM248.221 305.859C248.095 304.905 248.17 303.86 248.766 303.106C249.363 302.352 250.611 302.076 251.299 302.747C252.089 303.518 251.695 304.837 251.251 305.847C250.865 306.724 250.35 307.712 249.411 307.906C248.472 308.101 247.555 306.642 248.401 306.192L248.221 305.859ZM248.581 141.353C253.114 141.243 257.176 138.685 260.976 136.211C261.619 135.793 261.232 134.669 260.504 134.427C259.776 134.186 258.993 134.524 258.318 134.888C257.697 135.223 257.09 135.587 256.483 135.951L256.482 135.952C255.177 136.735 253.873 137.518 252.436 138.005C248.43 139.365 244.3 138.243 240.115 137.107C237.308 136.344 234.475 135.575 231.638 135.543C230.692 135.532 229.379 136.306 229.961 137.052C230.138 137.28 230.44 137.365 230.72 137.436L241.96 140.297C244.133 140.85 246.339 141.407 248.581 141.353ZM386.647 451.874C393.697 462.321 397.205 474.562 400.699 486.753C401.615 489.948 402.53 493.14 403.507 496.295C408.213 511.489 415.31 527.126 428.836 535.495C442.662 544.049 461.899 542.7 474.395 532.298C484.564 523.834 489.851 510.525 490.782 497.327C491.714 484.13 488.693 470.953 484.575 458.38C479.352 442.433 472.327 427.076 463.677 412.696C451.748 392.863 433.376 373.238 410.234 373.587C402.778 394.283 395.625 415.088 388.78 435.993C381.856 457.136 375.175 478.854 375.69 501.096C376.04 516.163 379.756 531.142 386.489 544.624C389.849 551.351 394.031 557.801 399.753 562.679C414.365 575.135 436.923 574.839 453.897 565.863C470.87 556.886 482.996 540.783 492.018 523.834C493.468 521.109 497.188 520.278 500.135 521.195C503.083 522.113 505.412 524.344 507.549 526.572C528.884 548.809 542.712 578.126 546.3 608.733C546.886 613.73 547.192 618.901 545.671 623.697C544.151 628.494 540.448 632.882 535.521 633.904C532.792 634.47 530.024 633.979 527.251 633.488L527.249 633.488C526.024 633.271 524.797 633.054 523.572 632.927C511.183 631.649 500.334 639.453 489.977 646.904C488.351 648.074 486.737 649.235 485.131 650.351C440.255 681.531 375.925 681.451 331.127 650.159C325.163 645.994 319.323 641.066 316.503 634.36C339.794 656.124 370.972 669.261 402.815 670.727C434.659 672.193 466.912 661.978 492.105 642.446C492.831 641.883 493.561 641.31 494.296 640.732C501.704 634.91 509.61 628.697 518.85 629.312C521.006 629.456 523.193 629.974 525.366 630.489C529.59 631.489 533.761 632.477 537.558 630.679C544.033 627.612 544.72 618.757 543.938 611.635C540.438 579.797 525.922 549.276 503.434 526.469C500.906 523.904 496.015 521.711 494.377 524.918C486.271 540.798 476.014 556.11 461.453 566.399C446.892 576.688 427.365 581.224 410.818 574.584C394.629 568.087 383.876 552.194 378.382 535.637C370.195 510.962 371.71 483.931 377.811 458.659C383.065 436.899 391.569 416.114 400.056 395.373L400.056 395.372C401.425 392.025 402.794 388.68 404.149 385.332C405.36 382.338 406.584 379.184 406.218 375.974C405.852 372.765 403.314 369.557 400.085 369.63C396.504 369.711 393.281 366.184 393.685 362.625C394.021 359.67 396.787 357.297 399.703 357.08C400.304 357.14 400.903 357.188 401.492 357.232C400.903 357.082 400.299 357.036 399.703 357.08C396.116 356.723 392.44 355.947 390.177 353.246C387.675 350.261 389.229 344.397 392.863 344.236C393.064 344.272 393.275 344.282 393.497 344.264C393.279 344.236 393.068 344.227 392.863 344.236C390.568 343.826 389.663 340.131 391.213 338.121C392.899 335.934 395.912 335.379 398.644 334.981L419.07 332.006C415.474 328.294 412.327 324.148 409.717 319.687C422.107 315.764 435.45 322.961 444.488 332.3C448.462 336.406 451.956 340.952 455.448 345.494C459.897 351.283 464.342 357.065 469.767 361.922C491.507 381.384 509.847 404.632 523.713 430.305C529.714 441.415 534.89 452.996 538.689 465.038C548.797 497.085 548.785 532.242 538.655 564.282C535.015 559.716 536.584 553.102 537.975 547.432C546.099 514.3 541.52 478.742 528.327 447.283C515.133 415.824 493.682 388.28 468.659 365.095C463.454 360.273 459.158 354.615 454.858 348.951C451.722 344.821 448.583 340.687 445.087 336.872C436.799 327.824 425.2 320.282 413.033 321.874C415.886 323.702 418.93 325.768 420.012 328.978C421.094 332.188 418.803 336.59 415.444 336.146C407.346 335.076 398.909 336.761 391.844 340.86L412.613 344.022C404.719 344.818 396.941 346.768 389.605 349.791L412.734 358.437C406.745 358.271 400.718 359.834 395.565 362.89C400.179 369.065 408.074 370.232 416.033 371.408C419.48 371.918 422.939 372.43 426.148 373.35C434.775 375.825 442.062 381.646 448.301 388.097C463.602 403.92 473.805 423.953 482.161 444.316C488.147 458.903 493.363 474.128 493.799 489.889C494.236 505.65 489.306 522.179 477.664 532.812C462.243 546.896 436.093 547.084 420.471 533.222C409.681 523.647 404.478 509.411 399.974 495.707C395.205 481.198 390.761 466.582 386.647 451.874Z" fill="#44D9E8"/>
<path fill-rule="evenodd" clip-rule="evenodd" d="M284.731 576.878C259.278 532.657 274.224 386.942 289.359 423.962C291.038 428.067 288.708 447.049 285.866 464.533C282.651 484.308 279.564 515.958 282.069 535.815C283.407 546.425 293.639 592.353 284.731 576.878Z" fill="white"/>
<path fill-rule="evenodd" clip-rule="evenodd" d="M540.705 193.29C536.759 193.18 535.147 192.611 531.542 194.436C514.848 202.89 526.66 217.427 541.551 207.567C549.883 202.05 543.92 187.637 543.241 181.024C542.568 174.465 541.769 170.682 546.344 171.745C558.053 174.465 555.183 185.155 555.652 189.866C555.86 191.955 558.663 194.682 560.589 191.869C565.353 184.914 563.76 173.629 558.053 167.603C555.381 164.781 551.514 163.343 548.746 160.616C546.056 157.966 544.671 154.104 541.829 151.621C537.776 148.082 536.787 156.42 536.759 157.049C536.232 168.873 535.81 179.715 539.717 190.578L540.705 193.29Z" fill="#EF3BDD"/>
<circle cx="241" cy="177" r="7" fill="#EF3BDD"/>
<path fill-rule="evenodd" clip-rule="evenodd" d="M557.332 228.982C558.577 224.455 561.73 230.102 561.932 231.552C562.16 233.189 558.071 243.936 562.536 240.939C570.995 235.26 563.249 228.694 561.015 222.627C560.19 220.387 560.974 217.817 560.399 215.503C560.298 215.098 559.538 215.002 559.168 215.203C551.447 219.385 555.919 231.952 552.443 235.937C551.155 237.414 549.449 234.519 546.769 234.276C543.463 233.977 539.763 235.017 540.491 239.268C541.809 246.974 548.547 250.607 553.506 240.331C557.046 232.997 556.04 233.679 557.332 228.982Z" fill="#EF3BDD"/>
</svg>
