<svg width="614" height="623" viewBox="0 0 614 623" fill="none" xmlns="http://www.w3.org/2000/svg">
<path fill-rule="evenodd" clip-rule="evenodd" d="M569.764 499.088C684.613 396.616 536.334 338.145 563.662 251.549C590.99 164.953 660.161 34.7229 402.07 57.6669C143.978 80.6109 -70.2914 341.282 21.7193 463.964C113.73 586.645 454.915 601.561 569.764 499.088Z" fill="#6F42C1"/>
<path fill-rule="evenodd" clip-rule="evenodd" d="M356.699 289.009C364.155 292.629 371.61 296.25 379.066 299.87C390.811 305.573 402.759 311.414 412.229 320.383C421.699 329.352 428.474 342.11 427.054 355.051C425.385 370.263 413.321 381.983 401.992 392.315C387.225 405.785 372.458 419.254 357.69 432.723C351.219 438.626 344.132 447.031 347.617 455.053C356.669 475.887 364.868 499.586 356.637 520.756C354.313 526.733 349.502 532.903 343.076 532.609C338.294 532.39 334.502 528.645 331.426 524.99C319.201 510.463 310.129 493.315 305.011 475.055C298.457 451.674 299.257 424.273 315.207 405.923C327.601 391.663 348.957 382.074 350.276 363.257C326.13 342.826 291.2 335.864 261.024 345.467C230.848 355.07 206.435 380.916 198.644 411.509C194.401 428.17 203.899 445.321 215.581 457.968C227.264 470.616 241.595 481.101 250.584 495.772C268.662 525.277 260.77 563.059 252.311 596.585C249.375 608.219 231.661 610.16 222.843 601.993C214.024 593.826 212.506 580.485 213.44 568.525C214.375 556.565 217.177 544.476 214.827 532.711C208.76 502.346 173.087 488.484 155.606 462.888C142.358 443.489 140.533 418.108 145.438 395.158C150.344 372.209 161.313 351.066 172.166 330.242C151.97 299.436 143.492 261.198 148.782 224.782C151.451 206.407 127.178 192.269 129.706 173.875C131.723 159.194 149.009 152.565 163.62 149.803C191.43 144.546 219.868 142.603 248.137 144.028C254.458 144.346 257.239 135.197 254.074 129.737C250.908 124.276 244.727 121.465 239.608 117.757C229.295 110.287 222.815 98.5098 219.242 86.3148C214.657 70.6646 214.648 52.8947 223.164 38.9734C225.292 35.4943 228.951 30.3377 234.518 35.3347C236.189 26.6127 253.922 18.2296 265.26 22.912C272.055 25.7184 279.296 19.9631 283.615 14.0296C287.933 8.09598 292.111 0.93113 299.287 -0.67893C312.137 -3.56189 320.367 13.5716 318.887 26.6127C317.407 39.6538 311.651 53.431 317.302 65.2858C319.451 69.7932 323.173 73.6959 323.886 78.635C324.505 82.9197 323.396 81.249 320.983 91.1137C318.571 100.978 312.759 104.147 310.363 109.604C306.675 118.004 307.229 125.382 299.523 132.817C298.226 134.068 300.867 136.935 299.934 139.059C318.913 139.33 333.331 155.1 348.021 167.077C366.289 181.972 388.637 192.392 412.155 194.413C435.673 196.434 460.283 189.559 477.842 173.84C484.716 167.687 501.113 175.726 502.31 166.596C502.54 164.23 501.91 163.212 499.663 162.63C498.499 162.329 495.748 162.955 494.894 161.86C492.391 158.651 506.972 153.118 506.356 157.525C506.198 158.654 505.535 159.488 505.619 160.219C505.864 162.345 507.078 163.001 508.952 163.376C512.904 163.622 518.565 160.922 520.928 157.525C522.511 155.25 521.894 154.646 520.652 154.546C518.622 154.381 514.923 155.562 516.438 152.979C518.302 149.803 523.105 146.791 527.674 149.556C528.661 150.153 528.314 151.312 527.808 152.45C526.88 154.539 525.416 156.558 530.662 154.916C538.769 152.379 539.233 152.854 541.328 153.474C543.422 154.094 546.498 157.775 548.466 161.214C552.517 168.289 556.672 175.71 557.051 183.847C557.43 191.984 552.719 200.982 544.708 202.609C544.637 204.977 545.799 207.208 547.562 208.777C549.483 210.487 554.422 209.445 553.592 210.973C550.896 215.937 544.331 217.21 539.163 215.473C537.744 214.996 541.018 212.553 541.328 210.86C541.824 208.149 541.26 205.23 539.602 203.015C534.928 204.986 530.253 206.957 525.578 208.929C526.936 210.657 526.317 212.709 527.674 214.437C528.955 216.069 532.243 215.656 532.794 217.972C533.393 220.491 528.539 221.548 526.031 221.783C523.282 222.041 519.005 222.323 517.724 220.491C516.269 218.408 520.829 217.741 521.04 215.562C521.27 213.183 520.397 210.641 518.302 209.49C514.287 207.285 508.527 211.345 509.276 215.851C511.164 227.204 506.443 239.411 497.398 246.566C488.353 253.721 475.35 255.534 464.681 251.128C455.034 247.144 444.349 252.269 434.367 255.323C411.737 262.249 385.914 257.832 366.897 243.783C365.799 259.488 362.781 276.499 352.706 288.079C354.34 289.009 353.5 289.009 356.699 289.009Z" fill="#170229"/>
<ellipse cx="256.038" cy="113.5" rx="5.5" ry="5.4819" fill="#EF3BDD"/>
<circle cx="295.5" cy="102.5" r="5.5" fill="#EF3BDD"/>
<path fill-rule="evenodd" clip-rule="evenodd" d="M327.621 347.487C325.145 346.377 322.665 345.266 320.17 344.184C301.904 336.26 279.995 330.561 262.761 340.518C260.129 323.765 278.155 310.97 294.743 307.18C299.293 306.14 303.987 305.403 308.682 304.666C321.105 302.715 333.531 300.763 343.283 293.211C357.762 281.998 361.623 262.011 362.897 243.783C381.914 257.832 407.737 262.249 430.367 255.323C432.095 254.795 433.843 254.204 435.603 253.609C444.016 250.768 452.704 247.833 460.681 251.128C471.35 255.534 484.353 253.721 493.398 246.566C502.443 239.411 507.164 227.204 505.276 215.851C504.527 211.345 510.287 207.285 514.302 209.49C516.397 210.641 517.27 213.183 517.04 215.562C516.946 216.537 515.98 217.21 515.072 217.842C513.952 218.622 512.92 219.34 513.724 220.491C515.005 222.323 519.282 222.041 522.031 221.783C524.539 221.548 529.393 220.491 528.794 217.972C528.478 216.645 527.264 216.214 526.043 215.781C525.134 215.458 524.221 215.134 523.674 214.437C522.996 213.573 522.811 212.628 522.626 211.683C522.442 210.738 522.257 209.793 521.578 208.929L535.602 203.015C537.26 205.23 537.824 208.149 537.328 210.86C537.194 211.588 536.513 212.455 535.893 213.244C535.07 214.291 534.354 215.201 535.163 215.473C540.331 217.21 546.896 215.937 549.592 210.973C550.014 210.196 548.944 210.084 547.538 209.936C546.179 209.793 544.506 209.617 543.562 208.777C541.799 207.208 540.637 204.977 540.708 202.609C548.719 200.982 553.43 191.984 553.051 183.847C552.672 175.71 548.517 168.289 544.466 161.214C542.498 157.775 539.422 154.094 537.328 153.474C537.198 153.436 537.074 153.398 536.954 153.361C535.146 152.807 534.265 152.537 526.662 154.916C521.953 156.39 522.65 154.914 523.514 153.086C523.612 152.877 523.713 152.664 523.808 152.45C524.314 151.312 524.661 150.153 523.674 149.556C519.105 146.791 514.302 149.803 512.438 152.979C511.325 154.876 513.024 154.743 514.81 154.604C515.456 154.553 516.113 154.502 516.652 154.546C517.894 154.646 518.511 155.25 516.928 157.525C514.565 160.922 508.904 163.622 504.952 163.376C503.078 163.001 501.864 162.345 501.619 160.219C501.574 159.83 501.741 159.412 501.93 158.937C502.097 158.518 502.282 158.054 502.356 157.525C502.972 153.118 488.391 158.651 490.894 161.86C491.451 162.574 492.813 162.557 494.016 162.541C494.66 162.533 495.258 162.526 495.663 162.63C497.91 163.212 498.54 164.23 498.31 166.596C497.657 171.581 492.471 171.447 486.778 171.3C482.045 171.178 476.962 171.047 473.842 173.84C456.283 189.559 431.673 196.434 408.155 194.413C384.637 192.392 362.289 181.972 344.021 167.077C341.499 165.021 338.986 162.853 336.456 160.672C324.247 150.143 311.656 139.284 295.934 139.059C296.396 138.008 295.983 136.775 295.604 135.647C295.218 134.494 294.868 133.449 295.523 132.817C299.582 128.901 301.655 121.274 303.451 114.668C305.064 108.731 306.454 103.62 308.858 102.771C313.669 101.072 315.08 96.8303 316.708 91.9377C316.799 91.6649 316.891 91.3902 316.983 91.1137C317.539 89.4577 318.034 88.1204 318.456 86.981C319.748 83.4963 320.352 81.864 319.886 78.635C319.421 75.4146 317.677 72.6348 315.923 69.8406C314.988 68.3495 314.05 66.8543 313.302 65.2858C309.191 56.6614 311.117 47.0195 313.042 37.3839C313.763 33.7747 314.483 30.1663 314.887 26.6127C316.367 13.5716 308.137 -3.56189 295.287 -0.67893C289.025 0.725971 285.047 6.36024 281.265 11.7154C280.713 12.4974 280.165 13.2735 279.615 14.0296C275.296 19.9631 268.055 25.7184 261.26 22.912C249.922 18.2296 232.189 26.6127 230.518 35.3347C224.951 30.3377 221.292 35.4943 219.164 38.9734C210.648 52.8947 210.657 70.6646 215.242 86.3148C218.815 98.5098 225.295 110.287 235.608 117.757C236.919 118.707 238.3 119.598 239.682 120.489C243.695 123.079 247.719 125.675 250.074 129.737C253.239 135.197 250.458 144.346 244.137 144.028C215.868 142.603 187.43 144.546 159.62 149.803C145.009 152.565 127.723 159.194 125.706 173.875C124.445 183.052 129.855 191.17 135.262 199.283C140.692 207.431 146.119 215.575 144.782 224.782C139.492 261.198 147.97 299.436 168.166 330.242C157.313 351.066 146.344 372.209 141.438 395.158C136.533 418.108 138.358 443.489 151.606 462.888C158.51 472.997 168.252 481.276 177.886 489.463C192.647 502.007 207.156 514.338 210.827 532.711C212.552 541.347 211.501 550.159 210.45 558.966C210.069 562.156 209.689 565.345 209.44 568.525C208.506 580.485 210.024 593.826 218.843 601.993C223.878 606.656 231.813 608.024 238.242 606.173C238.187 607.157 238.13 608.072 238.076 608.933C237.784 613.624 237.592 616.701 238.417 620.348C238.632 621.298 238.982 622.38 239.895 622.726C241.713 623.414 242.926 620.64 242.803 618.756C242.337 611.622 241.445 607.596 240.587 605.323C244.328 603.659 247.262 600.74 248.311 596.585C256.77 563.059 264.662 525.277 246.584 495.772C240.612 486.025 232.282 478.125 223.937 470.212C219.721 466.214 215.502 462.213 211.581 457.968C199.899 445.321 190.401 428.17 194.644 411.509C202.435 380.916 226.848 355.07 257.024 345.467C287.2 335.864 322.13 342.826 346.276 363.257C345.377 376.074 335.183 384.61 324.856 393.256C320.022 397.304 315.159 401.376 311.207 405.923C295.257 424.273 294.457 451.674 301.011 475.055C306.129 493.315 315.201 510.463 327.426 524.99C330.502 528.645 334.294 532.39 339.076 532.609C345.502 532.903 350.313 526.733 352.637 520.756C360.868 499.586 352.669 475.887 343.617 455.053C340.132 447.031 347.219 438.626 353.69 432.723L397.992 392.315C409.321 381.983 421.385 370.263 423.054 355.051C424.474 342.11 417.699 329.352 408.229 320.383C398.759 311.414 386.811 305.573 375.066 299.87L352.699 289.009C360.072 298.451 371.2 303.752 382.157 308.971C384.274 309.979 386.384 310.984 388.46 312.015C401.28 318.386 414.441 327.683 417.376 341.654C420.983 358.817 407.88 374.571 395.732 387.26C380.35 403.327 364.833 419.51 346.559 432.22C340.342 436.544 333.447 440.568 325.869 440.839C318.291 441.11 310.048 436.377 308.858 428.915C307.784 422.179 312.441 416.005 316.821 410.763L349.21 371.995C354.132 366.103 360.617 364.57 368.331 362.746C371.045 362.104 373.911 361.427 376.914 360.51C358.74 361.434 343.265 354.499 327.621 347.487ZM196.538 243.295C197.845 255.029 201.473 266.779 208.83 276.033C216.187 285.288 227.65 291.73 239.488 291.219C243.452 291.047 244.722 285.171 242.368 281.988C240.327 279.228 236.951 277.971 233.678 276.753C233.177 276.567 232.679 276.381 232.189 276.191C228.49 274.761 224.546 272.367 223.878 268.47C234.315 276.561 249.897 277.312 261.069 270.262C264.958 281.382 277.857 288.059 289.531 286.223C301.205 284.387 310.963 275.09 314.835 263.964C314.909 263.751 314.982 263.536 315.055 263.321C315.643 261.589 316.248 259.809 317.585 258.583C318.83 257.44 320.528 256.955 322.16 256.505L354.08 247.71C354.872 247.492 355.771 247.286 356.474 247.711C357.223 248.164 357.43 249.139 357.54 250.006C359.748 267.454 349.918 285.781 334.132 293.647C325.667 297.865 315.995 299.243 306.405 300.61C293.892 302.392 281.521 304.155 272.16 312.178C267.066 316.544 263.531 322.279 259.99 328.026C258.298 330.771 256.605 333.519 254.739 336.121C243.298 352.08 222.284 362.887 203.622 356.651C192.91 353.072 184.584 344.602 177.741 335.645C157.14 308.682 146.265 274.496 147.518 240.631C147.745 234.487 148.378 228.266 150.608 222.533C164.751 238.909 181.104 253.389 199.088 265.458C198.46 262.208 196.2 259.54 193.95 257.104C187.513 250.135 180.409 243.607 173.313 237.087C156.81 221.925 140.35 206.802 132.424 186.241C130.681 181.721 129.393 176.787 130.466 172.065C132.901 161.355 145.533 156.897 156.336 154.722C182.281 149.501 208.76 146.914 235.229 147.016C236.634 163.352 250.276 177.963 266.59 180.114C282.904 182.265 300.096 171.386 304.677 155.638C304.813 155.17 304.94 154.697 305.068 154.222C305.637 152.106 306.212 149.968 307.573 148.274C309.239 146.2 312.627 145.18 314.571 146.998C328.983 160.47 344.107 173.422 361.341 183.057C378.576 192.692 398.157 198.906 417.9 198.035C384.176 210.294 349.706 220.513 314.741 228.616C312.067 229.236 308.756 229.642 307.037 227.51C300.947 219.951 291.016 215.637 281.313 216.336C271.61 217.035 262.405 222.727 257.47 231.081C255.683 234.105 251.225 233.725 247.833 232.779C240.778 230.812 233.517 227.786 229.348 221.783C228.644 220.77 228.034 219.679 227.425 218.591C226.234 216.461 225.047 214.338 223.167 212.817C220.508 210.665 217.026 210.141 213.577 209.621C212.618 209.477 211.662 209.333 210.727 209.154C200.08 207.123 190.651 199.578 186.361 189.659C196.398 182.962 209.952 186.14 221.034 190.93C222.779 191.684 224.529 192.476 226.285 193.272C235.68 197.527 245.266 201.868 255.401 200.94C264.018 200.152 271.538 195.684 279.091 191.197C285.769 187.229 292.471 183.247 299.978 181.78C319.238 178.016 338.143 192.306 347.16 209.676C347.229 209.809 347.298 209.943 347.367 210.077C348.843 212.928 350.438 216.013 353.396 217.21C350.378 200.303 337.633 185.473 321.331 179.901C305.03 174.328 285.832 178.238 273.033 189.738C265.091 196.874 253.023 197.378 242.658 194.756C236.82 193.278 231.256 190.965 225.688 188.651C221.371 186.856 217.051 185.06 212.599 183.652C202.406 180.429 190.634 179.475 181.561 185.116C178.837 179.136 175.194 173.572 170.796 168.681C175.154 193.602 197.966 214.092 223.295 215.836L209.24 221.157C205.956 222.4 202.552 223.721 200.142 226.268C196.015 230.629 195.874 237.338 196.538 243.295ZM189.604 417.611C188.238 424.47 187.489 431.902 190.568 438.185C192.227 441.572 194.877 444.354 197.483 447.09L197.662 447.277C213.336 463.739 228.059 481.099 241.734 499.245C235.662 505.056 228.903 510.154 221.641 514.4C219.618 515.582 217.434 516.731 215.089 516.689C211.594 516.626 208.754 513.994 206.296 511.519C189.124 494.232 172.396 476.508 156.133 458.37C150.962 452.603 145.704 446.564 143.354 439.194C140.367 429.826 142.482 419.69 144.614 410.093C150.495 383.628 156.681 356.44 172.014 334.049C180.628 349.461 196.581 360.585 214.064 363.37C201.941 379.301 193.509 398.001 189.604 417.611ZM298.842 122.556C296.277 127.9 291.95 132.621 286.339 134.578C278.859 137.188 270.631 134.577 263.307 131.558C259.502 129.989 255.656 128.249 252.709 125.382C250.207 122.95 248.493 119.84 246.905 116.737C241.961 107.073 237.876 96.9732 234.712 86.5944C232.096 78.0118 230.748 67.1515 237.712 61.4672C245.666 67.5503 256.365 69.0763 266.325 67.9222C275.181 66.8961 283.664 63.9631 292.102 61.0456C293.155 60.6816 294.207 60.3178 295.259 59.958C296.461 59.5471 297.883 59.1676 298.92 59.8985C299.714 60.4577 299.994 61.4836 300.21 62.4279C303.414 76.4716 304.347 91.0269 302.963 105.363C302.394 111.259 301.407 117.213 298.842 122.556ZM330.802 523.754C316.542 504.813 306.99 482.38 303.229 459.001C301.614 448.963 301.092 438.443 304.449 428.843C307.655 441.416 322.841 449.446 335.089 445.043C338.286 451.604 341.192 458.306 343.796 465.122C350.638 483.031 355.296 503.411 347.718 521.023C345.896 525.257 342.298 529.765 337.725 529.089C334.76 528.65 332.6 526.142 330.802 523.754ZM235.86 34.6838C239.465 28.2502 247.397 24.9816 254.766 25.6C256.485 25.7443 258.198 25.9619 259.877 26.1752C265.195 26.8509 270.169 27.4828 273.925 25.6C279.644 22.7334 282.033 18.7484 284.466 14.6923C286.09 11.9846 287.732 9.24527 290.397 6.78572C292.083 5.22972 293.962 3.73648 296.207 3.24461C300.796 2.23871 305.203 5.72125 307.817 9.61255C313.428 17.9641 314.168 29.3311 309.688 38.3351C304.754 48.2511 294.583 54.456 284.407 58.8938C277.081 62.0888 269.328 64.6805 261.333 64.8452C253.337 65.01 245.017 62.4868 239.504 56.7146C233.991 50.9423 231.962 41.6412 235.86 34.6838ZM213.316 556.522C212.973 553.989 212.703 551.159 214.246 549.117C220.568 549.684 227.094 547.401 231.672 543.02C230.28 540.156 225.969 540.35 223.246 542.012C222.2 542.651 221.24 543.434 220.283 544.216C218.747 545.47 217.217 546.719 215.354 547.349C213.553 545.573 213.876 542.439 215.374 540.402C216.872 538.366 219.226 537.165 221.492 536.036L235.762 528.924C233.02 526.22 228.45 526.185 224.951 527.803C221.452 529.42 218.775 532.356 216.198 535.216C213.338 530.239 215.379 523.096 220.442 520.365L238.929 510.396C240.365 509.622 241.888 508.826 243.52 508.874C247.055 508.979 249.187 512.792 250.154 516.18C252.951 525.984 252.098 536.404 251.222 546.558C249.933 561.49 248.624 576.537 244.421 590.927C242.972 595.887 240.686 601.289 235.874 603.212C230.654 605.298 224.514 602.132 221.393 597.471C218.271 592.81 217.441 587.04 216.69 581.487L213.316 556.522ZM459.776 217.972C461.777 217.728 463.511 215.424 462.535 213.666L455.663 201.28C454.757 199.648 453.831 197.947 453.71 196.086C453.59 194.226 454.523 192.157 456.303 191.582C458.851 190.758 461.194 193.213 462.669 195.441C465.777 200.136 468.487 205.091 470.76 210.238C473.458 206.656 470.511 201.71 467.818 198.124C465.126 194.539 462.769 189.041 466.137 186.075C469.463 183.146 474.749 186.148 477.298 189.77C478.636 191.673 479.736 193.783 480.832 195.886C482.956 199.959 485.064 204.003 488.859 206.446C490.498 205.448 489.682 202.946 488.688 201.308L475.953 180.303C474.815 178.425 476.697 175.878 478.876 175.561C481.055 175.244 483.158 176.405 484.979 177.64C493.736 183.581 500.71 192.674 502.356 203.102C504.001 213.53 499.533 225.115 490.35 230.379C487.573 231.971 484.479 232.963 481.334 233.572C462.19 237.281 441.238 225.069 435.1 206.625C434.161 203.802 433.934 199.946 436.6 198.609C438.632 197.59 441.087 198.801 442.78 200.316C445.225 202.505 446.972 205.306 448.72 208.108C450.404 210.807 452.089 213.508 454.399 215.665C455.871 217.039 457.774 218.216 459.776 217.972ZM260.066 238.696C262.418 238.768 264.855 238.843 266.81 240.105C268.967 241.496 269.907 245.018 267.864 246.571C267.091 247.158 266.088 247.329 265.128 247.483C256.206 248.908 246.027 250.017 239.09 244.246C237.531 244.955 237.076 247.093 237.712 248.679C238.349 250.265 239.765 251.394 241.183 252.354C247.477 256.619 255.013 259.041 262.622 259.246C257.639 263.546 250.345 265.01 244.079 262.966C241.62 262.163 238.16 261.248 237.072 263.588C241.897 268.184 249.262 268.537 255.937 268.623C244.013 274.285 228.368 270.598 220.253 260.213C219.676 259.473 218.373 259.851 217.914 260.669C217.455 261.487 217.58 262.493 217.718 263.42C218.42 268.138 219.384 273.326 223.143 276.28C225.132 277.844 227.601 278.525 230.071 279.207C231.056 279.478 232.042 279.75 232.998 280.079C236.349 281.229 239.813 283.754 239.845 287.286C229.049 288.213 218.48 282.117 211.945 273.505C205.409 264.894 202.406 254.097 201.022 243.389C200.664 240.621 200.412 237.755 201.219 235.082C202.826 229.761 208.102 226.544 212.964 223.822C216.491 221.847 221.355 220.028 224.152 222.939C233.267 232.426 246.171 238.194 259.343 238.672C259.583 238.681 259.824 238.688 260.066 238.696ZM283.222 257.824L421.385 219.714C427.401 218.054 434.522 216.603 439.337 220.563C384.635 237.407 329.231 251.992 273.317 264.267C270.273 264.935 265.934 264.801 265.403 261.741C267.241 261.809 267.233 259.756 267.226 257.585C267.218 255.448 267.21 253.196 268.962 252.741L429.968 210.84C430.942 210.587 432.177 210.418 432.774 211.224C433.745 212.536 431.758 214.001 430.182 214.437L276.625 256.974C278.018 258.882 280.939 258.453 283.222 257.824ZM438.998 246.842C429.03 253.497 416.376 255.244 404.46 253.836C392.545 252.429 381.186 248.108 370.145 243.429L436.248 224.967C438.565 224.32 441.426 223.811 443.061 225.571C456.474 240.011 480.881 242.588 497.034 231.269C495.15 240.255 486.993 247.566 477.826 248.483C472.604 249.006 467.461 247.656 462.345 246.312C460.988 245.956 459.633 245.6 458.279 245.279C451.818 243.751 444.514 243.159 438.998 246.842ZM256.325 136.258C257.269 134.911 259.3 134.169 260.609 135.168C268.28 141.026 278.944 142.756 288.083 139.624C291 138.625 294.319 140.694 295.523 143.524C296.727 146.354 296.241 149.632 295.183 152.519C291.962 161.31 283.291 167.85 273.925 168.554C264.559 169.258 255.002 164.087 250.494 155.877C249.103 153.342 248.638 149.369 251.323 148.277C254 147.187 254.767 143.829 255.056 140.961L255.065 140.874C255.227 139.266 255.397 137.58 256.325 136.258ZM511.77 206.631C510.691 206.922 509.549 207.208 508.47 206.92C507.39 206.632 506.437 205.55 506.709 204.47C516.371 202.941 525.697 199.344 533.873 193.992C537.058 191.907 540.438 188.274 538.831 184.832C537.765 182.55 534.905 181.672 532.38 181.774C528.725 181.923 525.318 183.557 522.031 185.159L504.302 193.8C503.478 192.827 503.82 191.263 504.692 190.332C505.532 189.435 506.724 188.975 507.875 188.531L508.003 188.481C516.052 185.368 523.55 180.85 530.054 175.192C531.958 173.536 530.969 170.122 528.794 168.837C526.619 167.552 523.886 167.805 521.4 168.268C514.19 169.61 507.251 172.382 501.107 176.374C498.083 178.34 493.789 180.516 491.315 177.895C497.992 171.152 507.145 167.553 516.012 164.137L533.171 157.525C534.364 157.066 535.654 156.599 536.893 156.915C538.579 157.345 539.567 159.043 540.331 160.602C544.665 169.445 547.855 178.843 549.799 188.491C550.081 189.891 550.315 191.438 549.592 192.67C548.936 193.788 547.657 194.36 546.457 194.854C535.161 199.51 523.568 203.446 511.77 206.631ZM430.619 207.221C429.977 207.902 429.019 208.168 428.111 208.405L270.539 249.513C272.985 243.626 280.176 241.612 286.424 240.253C329.899 230.798 372.488 217.76 415.031 204.736C417.45 203.995 419.869 203.255 422.288 202.515C424.387 201.873 426.673 201.234 428.73 202.001C430.786 202.768 432.123 205.627 430.619 207.221ZM217.355 50.4434C218.32 47.2946 219.898 42.9436 222.368 40.7562C223.627 39.6409 225.332 38.4513 226.848 39.1847C227.801 39.6457 228.268 40.7117 228.658 41.6926C229.243 43.1596 230.077 45.1265 230.911 47.0935C231.745 49.0605 232.579 51.0274 233.163 52.4944C233.983 54.5521 234.775 57.7498 233.273 58.7891C226.848 63.2329 228.31 79.4564 231.187 86.921C231.874 88.7034 232.463 92.3555 231.871 95.0181C231.279 97.6807 228.31 100.076 225.882 98.8171C224.489 98.0951 222.279 94.2686 221.479 92.8827C221.406 92.7561 221.345 92.6498 221.297 92.5681C209.461 72.3886 216.022 54.1603 217.203 50.8786C217.276 50.675 217.329 50.5289 217.355 50.4434ZM269.279 268.944C279.801 267.001 290.215 264.476 300.456 261.384C300.615 261.336 300.774 261.288 300.933 261.24C304.121 260.274 307.356 259.295 310.682 259.311C310.265 264.558 307.34 269.418 303.328 272.841C299.316 276.263 294.292 278.348 289.146 279.534C285.244 280.433 281.13 280.837 277.252 279.839C273.375 278.84 269.758 276.258 268.284 272.548C267.756 271.218 267.868 269.204 269.279 268.944ZM282.324 237.645C275.613 238.593 268.52 238.107 262.479 235.045C261.202 234.398 261.863 232.452 262.765 231.343C267.403 225.641 274.428 221.931 281.767 221.307C289.106 220.684 296.66 223.155 302.2 227.992C303.116 228.792 304.046 230.057 303.428 231.102C303.103 231.652 302.451 231.906 301.848 232.122C295.469 234.403 289.035 236.698 282.324 237.645ZM261.648 175.619C255.682 173.755 251.012 169.023 247.601 163.801C245.533 160.636 243.841 157.254 242.148 153.871C241.048 151.672 239.948 149.474 238.744 147.333C240.955 146.967 243.107 148.469 244.333 150.338C245.209 151.673 245.739 153.183 246.27 154.695C246.483 155.3 246.696 155.906 246.93 156.5C251.342 167.661 264.481 174.354 276.314 172.142C288.147 169.93 297.742 159.545 299.794 147.725C300.009 146.483 300.401 144.946 301.641 144.7C302.982 145.815 303.042 147.832 302.805 149.556C301.088 162.071 289.702 171.487 277.539 175.043C272.377 176.552 266.781 177.223 261.648 175.619ZM498.183 183.112C505.638 177.314 514.426 173.227 523.674 171.256C524.785 171.019 526.451 171.263 526.351 172.39C526.319 172.746 526.087 173.049 525.858 173.324C521.264 178.846 514.539 182.077 508.031 185.143C506.208 186.002 504.286 186.881 502.273 186.757C500.26 186.633 498.18 185.122 498.183 183.112ZM530.447 185.891C531.405 185.586 532.454 185.3 533.395 185.652C534.337 186.004 534.959 187.293 534.297 188.046C528.589 194.539 520.048 197.743 511.716 200.102C509.537 200.719 506.334 200.703 505.962 198.477C513.345 192.964 521.659 188.69 530.447 185.891ZM306.295 90.7683C306.777 87.7971 307.353 84.247 307.353 81.951C307.353 78.7967 307.833 74.9388 310.785 73.8155C313.614 72.7386 316.811 75.3223 317.356 78.2911C317.901 81.2599 314.536 93.2465 312.864 95.7636C312.101 96.9138 311.212 98.0612 309.956 98.6394C308.699 99.2176 306.988 99.0305 306.219 97.8841C305.818 97.2873 305.728 96.542 305.66 95.8272C305.591 95.1106 305.914 93.121 306.295 90.7683ZM306.363 53.4307C306.51 53.6419 306.574 53.8983 306.633 54.1487C307.859 59.334 308.334 64.6948 308.04 70.014C306.634 70.6443 305.47 68.774 305.056 67.2939L303.289 60.9626C302.594 58.4706 302.033 55.4213 303.89 53.6139C304.564 52.9577 305.825 52.6599 306.363 53.4307ZM231.967 109.848C230.14 108.59 228.658 107.57 228.658 104.458C228.658 100.776 232.652 97.1872 233.522 97.8841C236.686 100.418 242.373 112.983 242.658 117.018C240.277 116.049 238.522 114.728 235.318 112.315C234.62 111.79 233.854 111.214 232.998 110.577C232.647 110.317 232.301 110.079 231.967 109.848ZM252.733 253.399L259.186 252.039C259.991 251.87 260.969 251.753 261.508 252.373C262.545 253.568 260.502 255.077 258.917 255.106C256.748 255.146 254.572 254.546 252.733 253.399ZM448.627 194.318C449.795 194.45 450.781 195.935 450.013 196.821L449.942 196.901C448.934 197.669 447.774 198.479 446.518 198.299C445.262 198.118 444.378 196.285 445.417 195.561C446.38 194.889 447.46 194.186 448.627 194.318ZM457.912 213.543L456.445 213.329L456.302 213.315L453.195 208.552C455.92 207.673 458.956 210.886 457.912 213.543ZM451.087 204.947C449.893 205.004 448.935 203.521 449.481 202.462C450.028 201.403 451.797 201.318 452.444 202.319C453.091 203.321 452.281 204.889 451.087 204.947ZM288.197 49.6043L276.979 54.8967C268.408 58.9402 257.643 57.8926 250.019 52.2732C248.943 52.0246 248.01 53.3064 248.192 54.3919C248.374 55.4773 249.259 56.2983 250.147 56.9536C256.293 61.4929 264.697 62.0616 272.111 60.1803C279.525 58.299 286.174 54.2488 292.615 50.136C292.149 48.5071 289.734 48.8794 288.197 49.6043ZM277.65 74.1587C276.729 74.9804 275.133 73.8649 275.148 72.6326C275.163 71.4003 276.165 70.4097 277.2 69.7337C281.536 66.8993 287.754 67.3393 291.645 70.7559C290.786 72.1627 288.779 71.8365 287.088 71.5617C286.956 71.5402 286.825 71.519 286.697 71.499C283.487 70.9961 280.072 72.0001 277.65 74.1587ZM256.875 78.815C258.346 78.4803 259.904 77.358 259.764 75.8604C259.646 74.5978 258.371 73.7597 257.145 73.4198C254.255 72.6185 250.936 73.6601 249.028 75.9673C247.12 78.2745 246.729 81.7196 248.071 84.3931C248.718 83.8174 249.244 83.1085 249.768 82.4035C250.545 81.3573 251.316 80.3195 252.463 79.738C253.33 79.2978 254.302 79.1807 255.278 79.0631C255.815 78.9985 256.352 78.9337 256.875 78.815ZM286.169 95.4339C287.949 95.4086 289.15 93.5764 289.597 91.8594C290.517 88.3284 289.581 84.3705 287.175 81.6206C286.086 80.3757 284.23 79.3398 282.844 80.246C282.416 80.5265 282.108 80.957 281.859 81.4043C280.121 84.5345 280.992 88.4482 282.343 91.7626C283.053 93.5044 284.282 95.4608 286.169 95.4339ZM263.663 95.4413L263.133 89.9351C262.931 87.8397 262.481 85.376 260.565 84.4898C257.946 83.2792 255.181 86.1798 254.495 88.9733C253.758 91.9733 254.184 95.2414 255.664 97.9548C257.007 100.416 260.35 102.478 262.486 100.656C263.901 99.4484 263.841 97.2891 263.663 95.4413ZM259.24 508.145C273.997 507.707 288.755 507.276 303.512 506.85C305.133 506.803 306.874 506.789 308.219 507.692C309.467 508.529 310.15 510.128 309.889 511.604L266.567 512.417C264.957 512.447 263.292 512.467 261.811 511.837C260.331 511.208 259.081 509.741 259.24 508.145ZM274.399 113.261C272.818 112.811 273.563 110.472 274.307 109.01C276.71 104.286 275.356 98.4933 272.95 93.7715L272.89 93.6546C272.356 92.6085 271.786 91.4911 271.975 90.3393C272.172 89.1446 273.683 88.1509 274.628 88.9128C274.912 89.1419 275.084 89.4773 275.248 89.8027C277.055 93.3887 278.827 97.0747 279.415 101.044C280.004 105.013 279.246 109.37 276.514 112.318C275.961 112.915 275.182 113.484 274.399 113.261ZM276.759 128.305C284.166 127.122 290.107 119.935 289.853 112.464C289.838 112.02 289.798 111.557 289.569 111.176C288.926 110.106 287.177 110.356 286.351 111.293C285.672 112.063 285.414 113.085 285.159 114.093L285.159 114.093C285.104 114.31 285.05 114.526 284.991 114.739C284.001 118.335 281.537 121.504 278.29 123.359C278.132 123.449 277.971 123.538 277.808 123.627C276.86 124.149 275.885 124.686 275.387 125.625C274.805 126.724 275.527 128.501 276.759 128.305ZM321.987 578.212C322.303 587.085 323.292 615.239 322.136 620.348C321.922 621.298 321.572 622.38 320.659 622.726C318.84 623.414 317.773 620.694 317.751 618.756C317.568 603.049 317.385 584.592 317.202 566.135V566.134C317.019 547.677 316.836 529.22 316.653 513.513C319.668 513.513 320.659 524.111 320.659 530.956C320.659 553.955 321.987 578.212 321.987 578.212ZM218.244 383.136C217.803 382.88 217.289 382.623 216.762 382.359C214.662 381.309 212.352 380.153 213.568 378.525C245.716 379.912 277.938 379.591 310.052 377.562C319.147 376.987 329.406 375.661 334.813 368.351C335.029 368.058 335.238 367.756 335.447 367.453C336.166 366.411 336.888 365.364 337.946 364.688C339.31 363.816 341.494 363.927 342.176 365.392C341.213 373.228 333.842 379.761 325.918 379.8C322.451 379.817 321.276 384.326 320.837 387.753C320.397 391.179 318.025 395.569 314.771 394.377C315.592 391.567 316.124 388.674 316.355 385.756C316.433 384.778 316.412 383.643 315.653 383.018C315.063 382.533 314.225 382.531 313.46 382.553L228.61 384.965C228.072 384.98 227.479 385.017 227.095 385.393C226.626 385.851 226.669 386.602 226.746 387.252L232.768 438.411C232.9 439.536 233.359 440.974 234.497 440.98L282.597 441.244C285.154 441.258 288.793 443.205 287.231 445.222C286.592 446.048 285.392 446.124 284.346 446.128L235.393 446.326C233.326 446.334 232.742 449.134 232.818 451.192L233.597 472.243C227.717 468.068 227.313 459.687 227.272 452.493C227.152 431.529 225.272 410.574 221.657 389.921C221.205 387.343 220.513 384.453 218.244 383.136Z" fill="#44D9E8"/>
<path fill-rule="evenodd" clip-rule="evenodd" d="M327.16 482.515C329.174 477.963 333.866 474.712 338.85 474.413C340.145 474.336 341.616 474.526 342.407 475.551C343.198 476.576 342.519 478.523 341.232 478.355C338.143 477.951 335.06 479.522 332.892 481.751C330.725 483.981 329.311 486.813 327.931 489.596C325.948 487.978 326.126 484.851 327.16 482.515Z" fill="#00160A"/>
<path fill-rule="evenodd" clip-rule="evenodd" d="M547.264 46.9743C549.797 47.2128 552.143 45.7499 554.243 44.3176C560.08 40.3354 566.367 34.906 565.983 27.8649C565.862 25.6288 565.053 23.525 564.244 21.4187C563.898 20.5173 563.551 19.6155 563.258 18.7027C561.729 13.9356 561.672 8.90923 561.615 3.86995C561.569 -0.263418 561.522 -4.4055 560.662 -8.42039C560.354 -9.86018 559.737 -11.4958 558.319 -11.9053C557.519 -12.136 556.668 -11.9016 555.87 -11.668L530.371 -4.20816C525.571 -2.80391 524.543 3.40948 524.405 8.39495L524.031 21.9598C522.515 22.1492 521.077 21.557 519.638 20.9647C519.089 20.7386 518.54 20.5126 517.987 20.33C512.538 18.5321 505.95 21.5551 503.775 26.8505C501.601 32.1459 504.172 38.9076 509.321 41.4349C514.47 43.9622 521.413 41.8705 524.296 36.9232C526.254 33.5638 526.37 29.4849 526.435 25.6L526.555 18.3055C526.6 15.5793 529.668 14.0675 532.261 13.2008C540.247 10.5313 548.307 8.08116 556.429 5.8541C557.231 5.63401 558.229 5.46886 558.777 6.09324C559.074 6.4306 559.138 6.90581 559.19 7.35123L560.301 16.9015C560.466 18.3179 560.306 20.2225 558.908 20.5228C552.157 21.9729 546.155 26.5699 543.01 32.7003C541.67 35.3119 540.824 38.3115 541.418 41.1845C542.011 44.0575 544.335 46.6985 547.264 46.9743ZM557.578 -7.65663C557.863 -7.36817 557.945 -6.94328 558.014 -6.54483L558.788 -2.0617C558.992 -0.877527 559.186 0.394482 558.67 1.48144C557.856 3.19841 555.694 3.71502 553.818 4.08395C549.484 4.93611 545.206 6.06702 541.02 7.46721C537.521 8.63751 534.089 9.99447 530.659 11.3509C530.369 11.4655 530.079 11.5801 529.789 11.6946C528.975 12.0161 527.853 12.2479 527.387 11.5118C527.27 11.3275 527.221 11.1096 527.181 10.8955C526.362 6.54832 528.376 1.80636 532.084 -0.648392C534.126 -2.00042 536.54 -2.66367 538.907 -3.30645L555.551 -7.82463C556.239 -8.01133 557.078 -8.16147 557.578 -7.65663ZM523.998 28.0932C523.928 32.295 522.912 37.0992 519.175 39.1326C516.209 40.7459 512.337 39.9705 509.647 37.9442C506.486 35.5646 504.751 30.8258 507.061 27.6372C508.023 26.3091 509.526 25.4482 511.081 24.885C514.655 23.5913 518.738 23.7213 522.219 25.2397C522.774 25.4821 523.342 25.7815 523.663 26.289C523.996 26.8154 524.008 27.473 523.998 28.0932ZM78.5009 37.4817C78.9327 38.8077 80.8144 38.7569 82.1765 38.4384L94.5612 35.5421C94.2156 32.3267 93.589 29.1413 92.6908 26.0338C92.4261 25.118 92.107 24.1601 91.3865 23.5333C90.2706 22.5626 88.6007 22.6969 87.1318 22.8874L68.1095 25.3548C66.8035 25.5242 65.0605 26.3704 65.5575 27.5856C69.9125 38.2324 73.3473 49.2527 75.8116 60.4845C76.283 62.6331 76.2037 65.6503 74.0476 66.1216C67.8036 67.4865 62.4612 72.3696 60.5591 78.4505C59.9739 80.3211 59.7082 82.3988 60.4652 84.2071C60.8754 85.1871 61.5638 86.0299 62.3354 86.7624C66.0386 90.2778 71.9455 91.2554 76.5904 89.1217C81.2354 86.9879 84.3253 81.8775 84.0473 76.7888C83.9423 74.8666 83.4055 72.9972 82.8721 71.147L70.712 28.9693L86.8124 27.7104C88.4295 27.8008 89.1128 30.0904 88.2585 31.4614C87.4041 32.8325 85.7067 33.4028 84.1188 33.7211C83.89 33.7669 83.6592 33.8103 83.4276 33.8537C82.0517 34.112 80.6519 34.3747 79.5361 35.1947C78.8138 35.7255 78.2239 36.6311 78.5009 37.4817Z" fill="#EF3BDD"/>
<path fill-rule="evenodd" clip-rule="evenodd" d="M324.508 468.874C324.025 469.499 322.934 469.321 322.468 468.681C322.003 468.042 322.044 467.157 322.298 466.409C322.752 465.069 323.78 464.004 324.858 463.083C327.566 460.769 330.789 459.059 334.227 458.111C335.582 457.737 337.163 457.521 338.285 458.365C339.407 459.21 339.226 461.465 337.826 461.59C332.636 462.053 327.687 464.76 324.508 468.874Z" fill="#00160A"/>
</svg>
