<svg width="715" height="581" viewBox="0 0 715 581" fill="none" xmlns="http://www.w3.org/2000/svg">
<path fill-rule="evenodd" clip-rule="evenodd" d="M454.457 107.449C524.633 91.7611 589.648 110.374 624.592 163.54C659.536 216.705 650.395 301.068 642.825 338.306C635.255 375.544 616.053 409.651 592.221 439.262C547.955 494.26 488.136 536.346 421.263 559.065C354.389 581.784 281.783 586.443 212.093 574.95C172.999 568.502 50.7108 536.917 24.3133 441.6C-2.0842 346.284 -18.7906 264.818 38.3736 231.726C95.5378 198.634 135.133 223.523 163.433 235.763C295.643 292.945 384.281 123.138 454.457 107.449Z" fill="#6F42C1"/>
<mask id="path-2-inside-1_567:488" fill="white">
<path fill-rule="evenodd" clip-rule="evenodd" d="M491.937 205.018C502.255 204.257 513.376 204.75 521.784 210.513C530.192 216.276 534.012 228.931 527.108 236.296C534.913 233.381 544.087 238.325 547.997 245.407C551.907 252.488 551.703 260.973 550.526 268.9C547.613 288.531 539.235 307.399 526.485 323.044C525.899 324.693 525.313 326.343 524.727 327.992C539.798 331.704 598.649 353.537 582.747 407.362C566.846 461.187 497.403 481.673 490.294 488.115C477.905 499.344 458.995 500.111 441.925 499.594C399.957 498.322 358.116 493.226 317.155 484.4C313.673 483.649 309.262 483.192 307.254 486.012C292.724 506.42 262.34 508.245 236.571 506.468C203.47 504.186 170.56 499.39 138.253 492.141C119.927 488.029 100.467 482.303 89.0513 468.005C75.7424 451.336 77.2793 428.225 79.4389 407.362C70.6913 412.008 56.183 414.525 35.9138 414.911C23.9798 412.586 16.5357 408.453 13.5815 402.513C0.0719738 375.35 -4.56073 340.347 12.2624 313.573C14.2832 310.357 16.6149 307.187 19.9056 305.14C23.3943 302.971 27.6475 302.257 31.7943 301.906C48.1502 300.522 64.9316 304.17 79.051 312.177C78.9249 268.337 78.7988 224.497 78.6728 180.658C78.6655 178.147 78.7021 175.483 80.1032 173.359C82.1297 170.287 86.2809 169.335 90.0174 168.669C124.007 162.607 158.382 158.519 192.89 156.435C204.165 155.754 219.595 158.751 219.646 169.544C219.843 210.876 220.04 252.207 220.236 293.539C220.283 303.376 220.945 302.554 225.769 299.703C222.737 300.003 223.413 295.089 225.711 293.175C234.291 286.03 246.795 285.767 258.176 285.878C283.635 286.127 309.094 286.376 334.553 286.625C359.221 286.866 388.803 289.854 399.971 310.868C399.647 304.623 405.572 298.729 412.117 298.787C419.254 298.849 425.224 292.934 427.307 286.412C429.391 279.89 428.472 272.882 427.534 266.122C416.025 255.476 413.012 237.378 420.496 223.846C427.98 210.314 445.327 202.493 461.019 205.576C471.156 207.567 481.62 205.78 491.937 205.018ZM196.522 407.761C196.183 416.463 195.825 425.282 193.144 433.605L196.522 407.761ZM185.974 300.965C188.344 301.628 191.275 303.635 190.032 305.672C200.325 306.655 197.251 306.2 197.715 294.612C198.184 282.853 198.224 269.851 190.165 260.952C183.035 253.077 171.406 250.613 160.546 249.728C147.87 248.694 135.059 249.191 122.512 251.202C116.391 252.184 109.76 253.875 106.207 258.738C104.219 261.46 103.488 264.821 102.903 268.092C100.606 280.961 99.8883 294.086 100.77 307.114C127.161 295.384 158.039 293.156 185.974 300.965ZM415.005 387.358C415.65 386.736 416.628 386.584 417.536 386.465C421.163 385.988 424.789 385.512 428.416 385.035C420.093 381.444 415.048 372.914 413.541 364.309C412.034 355.704 413.506 346.906 414.992 338.298C409.668 343.958 410.052 352.498 410.75 360.078C412.276 376.669 414.36 387.981 415.005 387.358ZM346.53 469.079C347.244 466.862 349.672 465.672 351.449 464.094C354.65 461.253 355.838 456.957 356.882 452.904C360.49 438.899 364.12 424.723 364.074 410.301C364.064 407.245 363.902 404.106 364.961 401.222C366.02 398.339 368.674 395.732 371.873 395.717C375.245 395.701 376.051 391.232 375.749 388.023C374.709 376.958 373.67 365.893 372.63 354.827C372.298 351.293 371.959 347.726 370.837 344.344C366.686 331.838 350.69 324.277 337.766 328.711C336.184 329.253 335.761 331.163 335.581 332.76C333.592 350.459 331.603 368.158 329.613 385.857C329.26 389.002 333.51 391.009 336.719 390.23C339.928 389.451 342.377 387.056 345.152 385.331C347.926 383.605 351.838 382.611 354.385 384.631C357.264 386.914 361.527 384.378 364.028 381.72C366.529 379.061 369.786 375.856 373.344 376.965C369.171 380.778 364.998 384.591 360.826 388.404C359.442 389.669 358.222 392.195 359.97 392.941C364.765 391.317 369.099 388.47 372.403 384.775C373.931 384.728 374.003 387.021 373.15 388.233C369.938 392.8 362.377 393.817 360.43 398.995C355.886 411.083 341.715 419.112 328.433 417.124C325.709 416.716 324.35 420.139 324.022 422.755C322.715 433.185 321.407 443.615 320.1 454.044C319.799 456.444 319.519 458.982 320.553 461.187C322.278 464.867 326.893 466.259 330.985 467.249C336.393 468.558 341.863 469.874 347.391 470.445C349.719 470.686 349.709 469.871 346.53 469.079ZM131.071 449.956C138.799 452.429 146.978 453.266 155.082 454.089C158.518 454.438 162.178 454.75 165.261 453.258C168.89 451.502 170.823 447.697 172.384 444.108C181.088 424.094 186.058 402.605 186.989 380.951C187.122 377.874 182.998 376.515 179.782 376.309C154.105 374.663 129.549 385.445 106.294 395.975C105.18 396.48 103.987 397.056 103.436 398.11C103.026 398.896 103.047 399.816 103.078 400.694C103.494 412.657 104.02 425.048 109.62 435.755C111.132 438.647 113.056 441.43 115.78 443.348C117.43 444.51 119.319 445.316 121.191 446.113C124.441 447.495 127.698 448.877 131.071 449.956ZM297.177 405.683C300.599 388.099 303.011 370.336 304.398 352.5C304.873 346.398 305.221 340.195 303.84 334.221C302.459 328.246 299.128 322.438 293.682 319.218C290.326 317.234 286.398 316.343 282.513 315.681C275.423 314.473 268.21 313.925 261.009 314.047C254.655 314.155 247.986 314.895 242.799 318.402C241.083 319.562 239.525 321.08 238.899 322.997C238.272 324.913 238.8 327.268 240.54 328.393C244.938 331.239 246.731 336.562 247.555 341.575C248.379 346.588 248.577 351.837 250.968 356.368C252.201 358.705 253.969 360.743 255.824 362.669C265.878 373.112 278.992 380.838 293.274 384.731C295.785 385.416 298.979 386.897 298.448 389.34C306.347 394.099 297.045 406.357 297.177 405.683ZM275.409 457.544C278.317 455.856 280.289 453.047 282.025 450.251C289.39 438.388 294.22 425.095 296.131 411.423C269.639 411.309 243.305 401.76 223.405 385.053C222.724 387.664 222.854 390.397 222.947 393.086C223.528 409.878 222.485 426.72 219.836 443.328C219.205 447.288 221.681 451.246 225.084 453.584C228.488 455.923 232.681 456.927 236.798 457.684C246.078 459.392 255.561 460.092 265.005 459.767C268.597 459.644 272.337 459.327 275.409 457.544ZM442.583 312.709C441.038 309.154 439.88 305.145 436.676 302.811C433.472 300.477 427.44 301.619 427.252 305.464C430.422 304.906 432.846 308.645 432.306 311.682C431.765 314.718 429.455 317.132 427.619 319.664C425.082 323.162 423.347 327.122 421.631 331.049C417.548 340.393 415.959 350.72 417.054 360.79C417.699 366.72 419.4 372.81 423.596 377.222C427.793 381.633 434.987 383.839 440.517 381.078C445.266 378.706 447.636 373.478 448.725 368.465C449.814 363.452 450.008 358.204 452.066 353.477C455.863 344.756 465.225 339.487 474.486 336.179C460.564 334.373 447.968 325.106 442.583 312.709ZM404.084 322.143C404.704 324.429 405.561 326.656 406.639 328.781C407.287 325.787 408.326 322.87 409.726 320.121C408.31 319.966 406.885 319.893 405.46 319.901C405.114 319.903 404.748 319.915 404.456 320.092C403.798 320.491 403.889 321.422 404.084 322.143ZM236.275 319.79C235.399 320.464 234.884 321.914 235.81 322.525C237.227 321.17 238.644 319.814 240.062 318.459C239.769 318.112 239.343 317.87 238.884 317.789C238.322 318.721 237.152 319.116 236.275 319.79Z"/>
</mask>
<path fill-rule="evenodd" clip-rule="evenodd" d="M491.937 205.018C502.255 204.257 513.376 204.75 521.784 210.513C530.192 216.276 534.012 228.931 527.108 236.296C534.913 233.381 544.087 238.325 547.997 245.407C551.907 252.488 551.703 260.973 550.526 268.9C547.613 288.531 539.235 307.399 526.485 323.044C525.899 324.693 525.313 326.343 524.727 327.992C539.798 331.704 598.649 353.537 582.747 407.362C566.846 461.187 497.403 481.673 490.294 488.115C477.905 499.344 458.995 500.111 441.925 499.594C399.957 498.322 358.116 493.226 317.155 484.4C313.673 483.649 309.262 483.192 307.254 486.012C292.724 506.42 262.34 508.245 236.571 506.468C203.47 504.186 170.56 499.39 138.253 492.141C119.927 488.029 100.467 482.303 89.0513 468.005C75.7424 451.336 77.2793 428.225 79.4389 407.362C70.6913 412.008 56.183 414.525 35.9138 414.911C23.9798 412.586 16.5357 408.453 13.5815 402.513C0.0719738 375.35 -4.56073 340.347 12.2624 313.573C14.2832 310.357 16.6149 307.187 19.9056 305.14C23.3943 302.971 27.6475 302.257 31.7943 301.906C48.1502 300.522 64.9316 304.17 79.051 312.177C78.9249 268.337 78.7988 224.497 78.6728 180.658C78.6655 178.147 78.7021 175.483 80.1032 173.359C82.1297 170.287 86.2809 169.335 90.0174 168.669C124.007 162.607 158.382 158.519 192.89 156.435C204.165 155.754 219.595 158.751 219.646 169.544C219.843 210.876 220.04 252.207 220.236 293.539C220.283 303.376 220.945 302.554 225.769 299.703C222.737 300.003 223.413 295.089 225.711 293.175C234.291 286.03 246.795 285.767 258.176 285.878C283.635 286.127 309.094 286.376 334.553 286.625C359.221 286.866 388.803 289.854 399.971 310.868C399.647 304.623 405.572 298.729 412.117 298.787C419.254 298.849 425.224 292.934 427.307 286.412C429.391 279.89 428.472 272.882 427.534 266.122C416.025 255.476 413.012 237.378 420.496 223.846C427.98 210.314 445.327 202.493 461.019 205.576C471.156 207.567 481.62 205.78 491.937 205.018ZM196.522 407.761C196.183 416.463 195.825 425.282 193.144 433.605L196.522 407.761ZM185.974 300.965C188.344 301.628 191.275 303.635 190.032 305.672C200.325 306.655 197.251 306.2 197.715 294.612C198.184 282.853 198.224 269.851 190.165 260.952C183.035 253.077 171.406 250.613 160.546 249.728C147.87 248.694 135.059 249.191 122.512 251.202C116.391 252.184 109.76 253.875 106.207 258.738C104.219 261.46 103.488 264.821 102.903 268.092C100.606 280.961 99.8883 294.086 100.77 307.114C127.161 295.384 158.039 293.156 185.974 300.965ZM415.005 387.358C415.65 386.736 416.628 386.584 417.536 386.465C421.163 385.988 424.789 385.512 428.416 385.035C420.093 381.444 415.048 372.914 413.541 364.309C412.034 355.704 413.506 346.906 414.992 338.298C409.668 343.958 410.052 352.498 410.75 360.078C412.276 376.669 414.36 387.981 415.005 387.358ZM346.53 469.079C347.244 466.862 349.672 465.672 351.449 464.094C354.65 461.253 355.838 456.957 356.882 452.904C360.49 438.899 364.12 424.723 364.074 410.301C364.064 407.245 363.902 404.106 364.961 401.222C366.02 398.339 368.674 395.732 371.873 395.717C375.245 395.701 376.051 391.232 375.749 388.023C374.709 376.958 373.67 365.893 372.63 354.827C372.298 351.293 371.959 347.726 370.837 344.344C366.686 331.838 350.69 324.277 337.766 328.711C336.184 329.253 335.761 331.163 335.581 332.76C333.592 350.459 331.603 368.158 329.613 385.857C329.26 389.002 333.51 391.009 336.719 390.23C339.928 389.451 342.377 387.056 345.152 385.331C347.926 383.605 351.838 382.611 354.385 384.631C357.264 386.914 361.527 384.378 364.028 381.72C366.529 379.061 369.786 375.856 373.344 376.965C369.171 380.778 364.998 384.591 360.826 388.404C359.442 389.669 358.222 392.195 359.97 392.941C364.765 391.317 369.099 388.47 372.403 384.775C373.931 384.728 374.003 387.021 373.15 388.233C369.938 392.8 362.377 393.817 360.43 398.995C355.886 411.083 341.715 419.112 328.433 417.124C325.709 416.716 324.35 420.139 324.022 422.755C322.715 433.185 321.407 443.615 320.1 454.044C319.799 456.444 319.519 458.982 320.553 461.187C322.278 464.867 326.893 466.259 330.985 467.249C336.393 468.558 341.863 469.874 347.391 470.445C349.719 470.686 349.709 469.871 346.53 469.079ZM131.071 449.956C138.799 452.429 146.978 453.266 155.082 454.089C158.518 454.438 162.178 454.75 165.261 453.258C168.89 451.502 170.823 447.697 172.384 444.108C181.088 424.094 186.058 402.605 186.989 380.951C187.122 377.874 182.998 376.515 179.782 376.309C154.105 374.663 129.549 385.445 106.294 395.975C105.18 396.48 103.987 397.056 103.436 398.11C103.026 398.896 103.047 399.816 103.078 400.694C103.494 412.657 104.02 425.048 109.62 435.755C111.132 438.647 113.056 441.43 115.78 443.348C117.43 444.51 119.319 445.316 121.191 446.113C124.441 447.495 127.698 448.877 131.071 449.956ZM297.177 405.683C300.599 388.099 303.011 370.336 304.398 352.5C304.873 346.398 305.221 340.195 303.84 334.221C302.459 328.246 299.128 322.438 293.682 319.218C290.326 317.234 286.398 316.343 282.513 315.681C275.423 314.473 268.21 313.925 261.009 314.047C254.655 314.155 247.986 314.895 242.799 318.402C241.083 319.562 239.525 321.08 238.899 322.997C238.272 324.913 238.8 327.268 240.54 328.393C244.938 331.239 246.731 336.562 247.555 341.575C248.379 346.588 248.577 351.837 250.968 356.368C252.201 358.705 253.969 360.743 255.824 362.669C265.878 373.112 278.992 380.838 293.274 384.731C295.785 385.416 298.979 386.897 298.448 389.34C306.347 394.099 297.045 406.357 297.177 405.683ZM275.409 457.544C278.317 455.856 280.289 453.047 282.025 450.251C289.39 438.388 294.22 425.095 296.131 411.423C269.639 411.309 243.305 401.76 223.405 385.053C222.724 387.664 222.854 390.397 222.947 393.086C223.528 409.878 222.485 426.72 219.836 443.328C219.205 447.288 221.681 451.246 225.084 453.584C228.488 455.923 232.681 456.927 236.798 457.684C246.078 459.392 255.561 460.092 265.005 459.767C268.597 459.644 272.337 459.327 275.409 457.544ZM442.583 312.709C441.038 309.154 439.88 305.145 436.676 302.811C433.472 300.477 427.44 301.619 427.252 305.464C430.422 304.906 432.846 308.645 432.306 311.682C431.765 314.718 429.455 317.132 427.619 319.664C425.082 323.162 423.347 327.122 421.631 331.049C417.548 340.393 415.959 350.72 417.054 360.79C417.699 366.72 419.4 372.81 423.596 377.222C427.793 381.633 434.987 383.839 440.517 381.078C445.266 378.706 447.636 373.478 448.725 368.465C449.814 363.452 450.008 358.204 452.066 353.477C455.863 344.756 465.225 339.487 474.486 336.179C460.564 334.373 447.968 325.106 442.583 312.709ZM404.084 322.143C404.704 324.429 405.561 326.656 406.639 328.781C407.287 325.787 408.326 322.87 409.726 320.121C408.31 319.966 406.885 319.893 405.46 319.901C405.114 319.903 404.748 319.915 404.456 320.092C403.798 320.491 403.889 321.422 404.084 322.143ZM236.275 319.79C235.399 320.464 234.884 321.914 235.81 322.525C237.227 321.17 238.644 319.814 240.062 318.459C239.769 318.112 239.343 317.87 238.884 317.789C238.322 318.721 237.152 319.116 236.275 319.79Z" fill="#170229" stroke="#272727" stroke-width="2" mask="url(#path-2-inside-1_567:488)"/>
<path d="M486.669 304.841C486.669 307.436 484.461 309.578 481.688 309.578C478.915 309.578 476.706 307.436 476.706 304.841C476.706 302.247 478.915 300.105 481.688 300.105C484.461 300.105 486.669 302.247 486.669 304.841Z" fill="#E844D8" stroke="#EF3BDD"/>
<path d="M452.782 301.985C452.782 303.265 451.689 304.341 450.292 304.341C448.895 304.341 447.802 303.265 447.802 301.985C447.802 300.705 448.895 299.629 450.292 299.629C451.689 299.629 452.782 300.705 452.782 301.985Z" fill="#E844D8" stroke="#EF3BDD"/>
<path fill-rule="evenodd" clip-rule="evenodd" d="M167.158 229.695C176.128 229.749 185.098 229.803 194.068 229.858C194.488 229.86 194.939 229.872 195.278 230.11C195.97 230.595 195.694 231.731 194.981 232.189C194.269 232.646 193.345 232.627 192.488 232.598C184.594 232.337 176.676 232.728 168.853 233.768C167.663 233.926 166.408 234.092 165.295 233.66C164.182 233.227 163.331 231.955 163.843 230.917C164.378 229.832 165.903 229.687 167.158 229.695ZM137.162 228.853C137.73 229.395 137.458 230.388 136.827 230.861C136.195 231.335 135.349 231.429 134.551 231.507C126.598 232.276 118.646 233.045 110.694 233.814C109.753 233.905 108.781 233.993 107.881 233.717C106.981 233.44 106.167 232.697 106.146 231.794C106.124 230.863 106.952 230.072 107.876 229.774C108.8 229.477 109.805 229.56 110.777 229.633C118.925 230.246 127.152 229.893 135.21 228.585C135.885 228.475 136.677 228.391 137.162 228.853ZM136.048 214.271C136.642 214.729 136.431 215.71 135.835 216.166C135.238 216.622 134.427 216.697 133.666 216.755L108.127 218.68C107.171 218.752 106.181 218.82 105.279 218.508C104.377 218.196 103.586 217.394 103.638 216.479C103.69 215.552 104.586 214.833 105.53 214.614C106.474 214.395 107.463 214.559 108.424 214.695C117.092 215.918 125.906 214.803 134.632 214.045C135.121 214.002 135.666 213.976 136.048 214.271ZM171.715 209.437C177.044 210.087 182.446 210.186 187.797 209.731C189.924 209.55 192.496 209.466 193.705 211.148C192.27 212.256 190.298 212.413 188.457 212.524C182.355 212.891 176.253 213.259 170.151 213.626C168.759 213.71 167.024 213.609 166.451 212.394C165.937 211.304 166.842 209.994 168.005 209.552C169.168 209.111 170.473 209.285 171.715 209.437ZM125.679 203.204C125.685 204.085 124.531 204.465 123.619 204.592L110.207 206.47C109.25 206.604 108.261 206.737 107.326 206.498C106.392 206.26 105.518 205.55 105.43 204.629C105.323 203.502 106.431 202.551 107.587 202.306C108.743 202.06 109.941 202.317 111.116 202.462C115.167 202.96 119.253 202.11 123.335 201.976C124.334 201.943 125.672 202.25 125.679 203.204ZM190.39 200.138C191.427 200.248 192.492 200.84 192.77 201.801C190.927 203.133 188.491 203.375 186.19 203.57C182.25 203.904 178.311 204.237 174.371 204.571C172.984 204.688 171.596 204.806 170.208 204.923C169.193 205.009 168.138 205.09 167.185 204.746C166.232 204.402 165.418 203.499 165.56 202.535C165.783 201.016 167.87 200.622 169.475 200.655C175.43 200.777 181.459 201.636 187.294 200.491C188.317 200.29 189.352 200.027 190.39 200.138ZM195.621 185.772C166.431 189.532 136.503 187.585 107.715 193.533C106.007 193.886 103.624 193.904 103.183 192.289C103.223 190.387 105.798 189.7 107.785 189.565C135.79 187.657 163.796 185.749 191.801 183.841C193.444 183.729 195.75 184.203 195.621 185.772Z" fill="#6F42C1"/>
<path fill-rule="evenodd" clip-rule="evenodd" d="M92.9411 474.826C93.2462 478.199 88.3781 479.342 84.8335 479.356C66.4116 479.425 48.008 482.69 30.7876 488.942C28.1595 489.896 25.3469 491.098 24.0678 493.49C22.3741 496.657 24.2226 500.71 27.219 502.82C30.2154 504.931 34.0399 505.574 37.7144 506.146C133.224 521.003 230.155 527.516 326.901 525.576L328.457 525.543C339.615 525.297 351.002 524.724 361.224 520.504C352.762 514.838 344.3 509.172 335.838 503.506C350.486 500.711 365.601 502.702 380.467 504.103C414.491 507.312 448.84 507.378 482.877 504.299C480.481 507.957 475.213 508.464 470.697 508.557C427.881 509.438 385.014 507.985 342.371 504.207C347.935 507.705 353.499 511.203 359.062 514.701C361.078 515.968 363.309 517.577 363.425 519.88C363.6 523.34 359.149 525.067 355.571 525.632C343.696 527.507 331.616 527.805 319.582 527.973C225.596 529.286 131.492 522.861 38.6565 508.794C34.1266 508.108 29.433 507.341 25.6559 504.855C21.8788 502.37 19.3038 497.644 20.891 493.533C22.4697 489.444 27.273 487.524 31.6097 486.171C51.4553 479.978 72.1103 476.158 92.9411 474.826ZM219.646 169.544C219.843 210.876 220.04 252.207 220.236 293.539C220.283 303.376 222.312 315.825 232.27 318.33C246.031 312.261 261.541 309.864 276.603 311.478C285.225 312.401 294.179 314.891 300.016 321.024C308.023 329.436 308.035 342.104 307.176 353.444C305.433 376.431 302.001 399.3 296.912 421.828C300.955 421.584 305.078 423.133 307.863 425.943C303.574 427.817 298.464 427.896 294.113 426.154C297.101 441.626 283.906 456.892 268.104 461.324C252.301 465.757 235.153 461.577 220.293 454.793C218.899 459.977 226.159 463.024 231.703 463.807C245.773 465.793 259.844 467.78 273.915 469.767C256.538 470.266 239.104 468.907 222.041 465.724C218.899 469.974 226.014 474.266 231.391 475.097C245.653 477.302 259.916 479.507 274.178 481.712C258.069 481.61 241.967 480.584 225.986 478.642C236.149 487.4 250.022 492.109 263.692 491.44C255.981 493.863 247.414 493.717 239.799 491.033C249.326 503.222 268.818 505.48 283.052 498.663C297.287 491.845 306.581 477.898 311.128 463.32C315.674 448.741 316.116 433.334 316.922 418.141C318.409 390.098 321.251 362.093 326.393 334.447C329.856 315.83 338.362 293.632 357.963 291.001C323.043 289.464 288.089 288.635 253.133 288.515C242.511 288.478 229.316 290.138 225.769 299.703C222.737 300.003 223.413 295.089 225.711 293.175C234.291 286.03 246.795 285.767 258.176 285.878L334.553 286.625C359.221 286.866 388.803 289.854 399.971 310.868C399.647 304.623 405.572 298.729 412.117 298.787C419.254 298.849 425.224 292.934 427.307 286.412C429.391 279.89 428.472 272.882 427.534 266.122C416.025 255.476 413.012 237.378 420.496 223.846C422.613 220.019 425.741 210.893 443.208 205.018C454.853 201.102 466.363 201.533 477.74 206.31C499.104 202.364 513.786 203.764 521.784 210.513C533.782 220.636 534.012 228.931 527.108 236.296C534.913 233.381 544.087 238.325 547.997 245.407C551.907 252.488 551.703 260.973 550.526 268.9C547.613 288.531 539.235 307.399 526.485 323.044L524.727 327.992C555.571 335.589 580.523 361.633 585.719 391.654C575.465 369.573 561.582 346.189 537.664 338.349C532.268 343.757 526.718 349.401 524.183 356.47C521.649 363.538 523.018 372.47 529.445 376.728C525.408 377.622 521.372 378.516 517.335 379.41C518.679 381.686 520.023 383.963 521.366 386.24C506.113 397.317 504.359 418.269 504.451 436.572C504.544 454.876 504.195 475.518 490.294 488.115C477.905 499.344 458.994 500.111 441.925 499.594C399.957 498.322 358.116 493.226 317.155 484.4C313.673 483.649 309.262 483.192 307.254 486.012C292.724 506.42 262.34 508.245 236.571 506.468C203.47 504.186 170.56 499.391 138.253 492.141C119.927 488.029 100.467 482.303 89.0512 468.005C75.7424 451.336 77.2793 428.225 79.4389 407.362C66.3175 414.331 50.7621 417.029 35.9138 414.911C51.5656 405.135 59.1556 386.435 59.2982 368.571C59.4408 350.707 53.1991 333.392 46.2549 316.805C30.9546 325.283 22.9044 343.153 24.1016 360.011C25.2987 376.87 34.6617 392.517 47.2242 404.412C31.7381 395.076 21.4909 378.256 20.6427 360.781C19.7945 343.306 28.3686 325.652 42.8839 314.987C40.5644 307.409 28.5979 306.483 22.3261 311.624C16.0543 316.766 14.086 325.11 12.4727 332.853C9.49174 347.161 6.49846 361.802 8.66437 376.242C10.8303 390.682 19.1801 405.137 33.1721 410.98C26.6332 415.483 17.924 409.001 13.5814 402.513C-4.02894 376.205 -4.56077 340.347 12.2623 313.573C14.2832 310.357 16.6149 307.187 19.9056 305.14C23.3943 302.971 27.6475 302.257 31.7943 301.906C48.1501 300.522 64.9315 304.17 79.051 312.177C78.9249 268.337 78.7988 224.497 78.6727 180.658C78.6655 178.147 78.7021 175.483 80.1032 173.359C82.1297 170.287 86.2809 169.335 90.0173 168.669C124.007 162.607 158.382 158.519 192.889 156.435C204.165 155.754 219.595 158.751 219.646 169.544ZM196.6 159.076C160.013 160.721 123.56 165.042 87.6619 171.987C86.1342 172.283 84.5164 172.628 83.4059 173.673C81.8931 175.097 81.7762 177.352 81.7563 179.381C81.3276 223.033 81.5089 266.691 82.3 310.339C86.693 309.292 91.0861 308.246 95.4792 307.199C93.7619 298.243 92.0373 289.165 92.7716 280.087C93.5059 271.009 96.9932 261.776 104.166 255.78C111.929 249.29 122.763 247.456 133.054 246.766C142.949 246.102 152.905 246.256 162.773 247.225C172.847 248.214 183.458 250.351 190.726 257.088C201.224 266.819 201.394 282.585 200.85 296.55C199.407 333.62 197.965 370.691 196.522 407.761C196.183 416.463 195.825 425.282 193.144 433.605C190.463 441.927 185.142 449.837 177.092 453.922C169.192 457.93 159.74 457.816 150.852 456.851C142.367 455.93 133.964 454.323 125.761 452.053C120.779 450.674 115.793 449.014 111.559 446.151C97.5469 436.678 95.8903 417.777 95.55 401.382C90.1698 400.454 84.9102 404.365 82.6887 409.138C80.4673 413.91 80.5657 419.332 80.7037 424.554C81.0479 437.578 81.5791 451.252 88.5388 462.456C99.2768 479.742 121.832 486.129 142.425 490.257C178.976 497.583 216.088 502.361 253.365 504.54C236.729 496.446 221.979 482.591 218.47 465.073C217.517 460.315 217.414 455.443 217.315 450.599C215.373 355.881 213.43 261.163 211.488 166.445C211.365 160.455 202.864 158.794 196.6 159.076ZM338.426 314.585C337.5 316.741 336.828 319.133 337.444 321.388C338.06 323.643 340.354 325.611 342.76 325.228C353.537 323.514 365.154 328.585 370.851 337.491C375.551 344.839 376.204 353.829 376.733 362.426L381.553 440.736C382.068 449.104 382.323 458.313 376.878 464.887C369.814 473.417 356.551 473.701 345.22 472.642C335.87 471.768 326.035 470.283 318.776 464.586C319.033 467.902 318.021 471.294 315.974 473.983C313.446 477.301 317.527 481.668 321.496 483.237C326.344 485.153 331.617 485.82 336.82 486.466C360.652 489.421 384.499 492.27 408.359 495.014C426.724 497.126 445.383 499.172 463.641 496.337C452.091 493.241 441.038 488.455 430.987 482.198C425.972 479.077 421.123 475.51 417.703 470.818C412.12 463.158 410.943 453.425 410.014 444.133C407.252 416.504 405.196 388.81 403.849 361.085C402.855 340.635 395.991 320.474 384.202 303.378C382.094 300.321 379.516 297.149 375.789 296.298C360.971 292.914 344.207 301.119 338.426 314.585ZM270.481 491.55C271.738 491.754 273.028 492.023 274.064 492.733C275.1 493.443 275.823 494.704 275.504 495.883C275.185 497.062 273.556 497.838 272.526 497.119C271.391 496.326 269.88 496.298 268.526 495.933C267.173 495.567 265.753 494.493 265.997 493.17C266.305 491.492 268.723 491.265 270.481 491.55ZM218.297 492.048C219.856 492.358 221.682 493.42 221.362 494.911C221.08 496.225 219.378 496.663 217.986 496.841C216.425 497.04 214.76 497.225 213.343 496.569C211.926 495.914 211.007 494.065 211.936 492.851C212.563 492.032 213.736 491.814 214.797 491.773C215.97 491.728 217.148 491.82 218.297 492.048ZM311.595 475.48C310.115 476.5 309.098 478.003 308.054 479.432C303.292 485.949 297.258 491.614 290.354 496.047C290.527 496.746 291.624 496.57 292.275 496.209C300.269 491.785 305.973 484.475 311.449 477.366C311.896 476.785 312.266 475.811 311.595 475.48ZM383.074 299.434C387.339 304.245 391.637 309.101 394.757 314.657C398.14 320.679 400.04 327.353 401.57 334.03C410.128 371.38 407.844 410.212 413.391 448.077C414.392 454.91 415.715 461.888 419.436 467.801C423.796 474.727 431.031 479.529 438.402 483.497C444.364 486.706 450.586 489.523 457.134 491.424C467.545 494.446 480.052 494.658 488.032 487.592C492.514 483.624 494.871 477.963 496.713 472.397C504.605 448.54 505.473 422.601 499.192 398.311C499.35 412.838 501.324 427.331 500.872 441.853C500.421 456.374 497.3 471.328 488.364 483.084C486.594 485.412 484.543 487.647 481.868 488.971C478.345 490.714 474.159 490.681 470.221 490.221C463.342 489.418 456.616 487.433 450.463 484.388C445.789 482.075 441.464 479.169 437.274 476.125C432.403 472.587 427.621 468.776 424.209 463.924C420.827 459.115 418.941 453.497 417.446 447.883C406.527 406.886 414.334 362.663 401.378 322.212C398.325 312.678 393.022 302.449 383.074 299.434ZM122.592 479.79C147.798 483.507 173.004 487.223 198.21 490.94C197.571 492.533 195.267 492.589 193.497 492.363C171.941 489.612 150.384 486.861 128.828 484.11C126.391 483.799 123.954 483.488 121.517 483.177C120.36 483.029 118.924 482.629 118.778 481.523C118.572 479.964 120.967 479.55 122.592 479.79ZM414.992 338.298C409.668 343.958 410.052 352.498 410.749 360.078C412.276 376.669 413.802 393.26 415.328 409.851C415.4 410.627 415.487 411.445 415.963 412.078C416.742 413.112 418.251 413.292 419.581 413.382C437.703 414.601 455.825 415.821 473.947 417.041C472.592 419.087 469.538 419.118 467.011 418.932C449.95 417.673 432.82 417.266 415.715 417.71C415.42 426.09 416.713 434.519 419.512 442.466C420.725 445.91 425.397 446.644 429.198 446.791C443.693 447.352 458.188 447.912 472.683 448.473C473.35 449.907 471.008 450.803 469.365 450.785C454.466 450.622 439.566 450.458 424.667 450.294C422.626 450.272 421.888 453.034 422.657 454.84C424.667 459.56 431.066 460.576 436.389 460.894L469.701 462.887C470.461 462.933 470.62 464.075 470.064 464.573C469.509 465.071 468.663 465.085 467.901 465.07L428.899 464.279C438.984 475.745 453.128 483.892 468.449 487.061C471.75 487.743 475.251 488.192 478.458 487.18C482.296 485.97 485.126 482.856 487.342 479.627C499.093 462.5 498.312 440.463 497.111 420.017L495.749 396.842C496.225 396.218 497.202 396.001 497.916 396.362C498.192 395.227 496.645 394.552 495.444 394.342C468.934 389.69 441.731 385.031 415.2 389.574C414.352 389.241 414.36 387.981 415.005 387.358C415.65 386.736 416.628 386.584 417.536 386.465C421.163 385.988 424.789 385.512 428.416 385.035C420.093 381.444 415.048 372.914 413.541 364.309C412.034 355.704 413.506 346.906 414.992 338.298ZM284.698 479.182C287.059 479.602 289.786 480.291 290.708 482.41C288.079 484.121 284.627 483.946 281.455 483.704C280.582 483.637 279.629 483.536 279.016 482.939C277.932 481.883 278.741 479.937 280.136 479.295C281.532 478.654 283.176 478.911 284.698 479.182ZM104.864 463.701C132.02 471.852 160.162 477.006 188.548 479.026C190.75 479.183 193.71 480.186 193.287 482.256C163.266 479.012 133.427 474.219 103.946 467.903C102.065 467.5 99.6511 466.219 100.352 464.504C100.967 462.996 103.248 463.215 104.864 463.701ZM204.331 476.283C205.718 476.279 207.056 476.733 208.352 477.204C209.011 477.444 209.737 477.753 209.992 478.381C210.537 479.719 208.605 480.676 207.126 480.933C206.13 481.105 205.135 481.278 204.139 481.45C203.299 481.596 202.395 481.734 201.622 481.388C200.367 480.826 200.041 479.095 200.761 477.963C201.481 476.831 202.944 476.286 204.331 476.283ZM332.21 473.422C344.222 475.605 356.526 475.729 368.753 475.845C369.699 475.855 369.954 477.277 369.278 477.909C368.602 478.542 367.548 478.57 366.601 478.552C355.187 478.338 343.759 477.189 332.378 478.046C331.139 478.139 329.852 478.25 328.689 477.834C327.525 477.417 326.533 476.294 326.754 475.126C326.945 474.119 327.972 473.413 329.024 473.219C330.075 473.024 331.157 473.231 332.21 473.422ZM359.347 293.526C345.746 295.467 334.32 307.031 333.076 320.114C331.915 332.334 328.384 344.216 325.871 356.249C317.8 394.889 320.248 434.933 313.113 473.741C315.719 469.207 316.422 463.93 317.078 458.796L334.381 323.43C334.841 319.829 335.312 316.185 336.667 312.795C340.368 303.53 349.935 297.71 359.347 293.526ZM297.506 468.847C298.247 469.072 299.007 469.367 299.501 469.941C299.994 470.514 300.118 471.44 299.578 471.975C299.171 472.378 298.533 472.451 297.949 472.5C296.038 472.661 294.126 472.823 292.214 472.984C291.182 473.071 290.116 473.155 289.133 472.843C288.149 472.532 287.262 471.718 287.234 470.729C287.186 469.053 289.35 468.211 291.101 468.102C293.26 467.967 295.445 468.221 297.506 468.847ZM337.766 328.711C336.184 329.254 335.761 331.163 335.581 332.76L329.613 385.857C329.26 389.002 333.51 391.009 336.719 390.23C339.928 389.451 342.377 387.056 345.152 385.331C347.926 383.605 351.837 382.611 354.385 384.631C357.264 386.914 361.527 384.378 364.028 381.72C366.529 379.061 369.786 375.856 373.344 376.965C369.171 380.778 364.998 384.591 360.826 388.404C359.442 389.669 358.221 392.195 359.97 392.941C364.765 391.317 369.099 388.47 372.403 384.775C373.931 384.728 374.003 387.021 373.15 388.233C369.938 392.8 362.377 393.817 360.43 398.995C355.886 411.083 341.715 419.112 328.433 417.124C325.709 416.716 324.35 420.139 324.022 422.755C322.715 433.185 321.407 443.615 320.1 454.044C319.799 456.444 319.519 458.982 320.553 461.187C322.278 464.867 326.893 466.259 330.985 467.249C338.67 469.109 346.481 470.983 354.404 470.715C362.328 470.448 370.52 467.742 375.537 461.877C374.148 460.154 371.053 462.364 369.029 461.366C367.05 460.391 368.101 457.143 370.227 456.504C372.352 455.866 374.595 456.88 376.569 457.867C377.809 455.556 379.084 453.083 378.829 450.497C378.574 447.912 376.09 445.355 373.44 445.937C371.699 446.319 370.99 443.436 372.394 442.38C373.797 441.325 375.814 441.667 377.552 442.062C377.648 435.822 377.745 429.582 377.841 423.343C377.861 422.07 377.865 420.732 377.233 419.611C376.601 418.49 375.103 417.704 373.902 418.257C372.265 419.011 370.846 416.348 371.941 414.963C373.037 413.578 375.105 413.399 376.92 413.339C377.061 407.797 376.686 402.244 375.801 396.766C368.965 400.038 367.769 408.673 367.08 415.949C365.757 429.901 363.097 443.738 359.143 457.229C358.257 460.251 357.26 463.342 355.19 465.779C353.12 468.215 349.709 469.871 346.53 469.079C347.243 466.862 349.672 465.672 351.449 464.094C354.65 461.253 355.838 456.957 356.882 452.904C360.49 438.899 364.12 424.723 364.074 410.301L364.068 409.333C364.044 406.587 364.014 403.802 364.961 401.222C366.02 398.339 368.674 395.732 371.873 395.717C375.245 395.701 376.051 391.232 375.749 388.023C374.709 376.958 373.67 365.893 372.63 354.827C372.298 351.293 371.959 347.726 370.837 344.344C366.686 331.838 350.69 324.277 337.766 328.711ZM388.659 463.663C390.244 464.07 391.783 465.627 391.124 467.063C390.494 468.435 388.52 468.51 386.959 468.369C386.195 468.3 385.382 468.213 384.785 467.752C383.74 466.944 383.888 465.232 384.867 464.352C385.846 463.472 387.361 463.33 388.659 463.663ZM198.161 462.129C199.204 462.345 200.29 462.635 201.04 463.36C201.79 464.086 202.038 465.379 201.293 466.108C200.684 466.704 199.701 466.715 198.83 466.686C197.577 466.644 196.325 466.602 195.072 466.56C194.346 466.536 193.571 466.495 192.988 466.081C191.744 465.197 192.29 463.126 193.626 462.374C194.963 461.622 196.645 461.815 198.161 462.129ZM101.632 451.271C108.645 454.387 116.351 455.746 123.97 457.014C139.395 459.581 154.867 461.893 170.375 463.949C172.545 464.237 174.949 464.644 176.271 466.313C170.266 466.705 164.263 465.749 158.327 464.797C138.757 461.658 119.187 458.518 99.6175 455.379C97.5662 455.05 94.9176 453.961 95.3171 452.011C95.7907 449.7 99.3965 450.278 101.632 451.271ZM223.405 385.053C222.724 387.664 222.854 390.397 222.947 393.086C223.528 409.878 222.485 426.72 219.836 443.328C219.205 447.288 221.681 451.246 225.084 453.584C228.488 455.923 232.681 456.927 236.798 457.684C246.078 459.392 255.561 460.092 265.005 459.767C268.597 459.644 272.337 459.327 275.409 457.544C278.317 455.856 280.289 453.047 282.025 450.251C289.39 438.388 294.22 425.095 296.131 411.423C269.639 411.309 243.305 401.76 223.405 385.053ZM292.695 451.626C294.503 452.196 296.312 452.767 298.121 453.337C298.724 453.527 299.371 453.747 299.729 454.249C300.333 455.096 299.746 456.336 298.811 456.838C297.875 457.341 296.739 457.314 295.667 457.273C293.714 457.199 291.557 457.042 290.194 455.704C288.831 454.367 289.299 451.481 291.249 451.359C291.742 451.328 292.225 451.478 292.695 451.626ZM387.509 451.877C388.584 452.041 389.72 452.23 390.549 452.905C391.378 453.58 391.718 454.917 390.954 455.659C390.646 455.958 390.219 456.112 389.804 456.25C388.203 456.782 386.425 457.207 384.842 456.628C383.259 456.048 382.179 454.048 383.174 452.737C384.089 451.532 385.97 451.642 387.509 451.877ZM106.294 395.975C105.18 396.48 103.987 397.056 103.436 398.11C103.026 398.896 103.047 399.816 103.078 400.694C103.494 412.657 104.02 425.048 109.62 435.756C111.132 438.647 113.056 441.43 115.78 443.348C117.43 444.51 119.319 445.316 121.191 446.113C124.441 447.495 127.698 448.877 131.071 449.956C138.799 452.429 146.978 453.266 155.082 454.089C158.518 454.438 162.178 454.75 165.261 453.258C168.89 451.502 170.823 447.697 172.384 444.108C181.088 424.094 186.058 402.605 186.989 380.951C187.122 377.874 182.998 376.515 179.782 376.309C154.105 374.663 129.549 385.445 106.294 395.975ZM190.977 380.083C190.318 380.91 190.236 382.018 190.171 383.056C188.634 407.544 182.254 431.747 171.467 454.01C181.744 449.042 189.402 439.392 191.635 428.597C192.403 424.886 192.56 421.087 192.715 417.307C193.203 405.386 193.692 393.466 194.18 381.545C194.206 380.917 194.211 380.226 193.792 379.74C193.1 378.938 191.635 379.255 190.977 380.083ZM195.233 439.728C196.537 439.796 197.763 440.314 199.031 440.615C200.166 440.884 200.509 442.429 199.875 443.368C199.241 444.307 198.019 444.716 196.861 444.871C195.651 445.033 194.351 444.972 193.311 444.361C192.271 443.749 191.596 442.473 192.012 441.376C192.456 440.202 193.929 439.661 195.233 439.728ZM388.256 436.491C389.476 436.732 390.521 437.454 391.525 438.157C392.07 438.539 392.65 438.967 392.828 439.59C393.056 440.385 392.507 441.241 391.751 441.637C390.994 442.034 390.088 442.062 389.228 441.996C388.006 441.903 386.744 441.614 385.822 440.842C384.9 440.07 384.431 438.716 385.005 437.681C385.589 436.63 387.037 436.25 388.256 436.491ZM98.1674 399.458C97.8339 400.026 97.9012 400.723 97.9782 401.37L99.7899 416.609C100.773 424.879 102.061 433.792 108.112 439.78C109.12 439.323 108.551 437.874 107.915 436.997C103.014 430.24 102.07 421.649 101.275 413.463C100.809 408.665 100.343 403.867 99.877 399.069C99.4085 398.596 98.5009 398.89 98.1674 399.458ZM420.822 430.675C437.445 431.067 454.069 431.459 470.693 431.851C473.237 431.911 475.789 431.972 478.306 432.333C477.781 434.069 475.391 434.396 473.499 434.379C456.829 434.229 440.103 433.243 423.522 434.899C422.104 435.04 420.574 435.18 419.344 434.492C418.114 433.804 417.563 431.918 418.694 431.089C419.28 430.659 420.083 430.658 420.822 430.675ZM375.148 427.555C375.514 427.669 375.888 427.791 376.187 428.023C377.181 428.795 376.811 430.447 375.795 431.192C374.778 431.937 373.408 432.023 372.127 432.053C370.794 432.085 369.239 431.984 368.48 430.937C367.526 429.622 368.659 427.677 370.238 427.144C371.817 426.611 373.557 427.057 375.148 427.555ZM387.302 424.346C388.853 424.506 390.361 425.025 391.662 425.846C392.656 426.474 392.458 428.05 391.553 428.791C390.649 429.532 389.357 429.636 388.167 429.595C386.962 429.553 385.705 429.378 384.731 428.701C383.757 428.023 383.177 426.714 383.699 425.677C384.295 424.493 385.935 424.205 387.302 424.346ZM219.836 388.104C218.93 400.568 218.525 413.065 218.62 425.559C218.624 426.087 219 426.837 219.472 426.563C220.473 416.061 220.965 405.515 220.944 394.969C220.94 392.634 220.89 390.212 219.836 388.104ZM202.065 420.079C203.491 420.181 204.749 420.974 205.912 421.77C206.27 422.015 206.638 422.277 206.838 422.651C207.253 423.428 206.756 424.427 205.977 424.881C205.199 425.335 204.235 425.371 203.323 425.33C201.25 425.238 198.644 424.16 198.876 422.19C199.036 420.832 200.639 419.976 202.065 420.079ZM390.756 411.683C392.144 412.227 393.572 413.649 392.855 414.908C392.37 415.76 391.187 415.944 390.171 415.954C388.992 415.965 387.811 415.874 386.649 415.68C385.015 415.408 384.764 412.952 386.033 411.931C387.302 410.91 389.221 411.081 390.756 411.683ZM552.519 387.295C553.091 388.209 553.101 389.336 553.094 390.401C553.046 397.944 552.997 405.486 552.949 413.028C552.943 413.944 552.814 415.054 551.944 415.439C551.192 415.771 550.265 415.304 549.846 414.621C549.428 413.938 549.39 413.109 549.375 412.317C549.254 405.583 550.04 398.689 548.044 392.23C547.45 390.311 546.74 387.914 548.292 386.57C549.504 385.519 551.68 385.952 552.519 387.295ZM349.538 386.421C343.553 389.968 337.258 393.616 330.233 394.099C328.955 394.187 328.38 395.646 328.127 396.846C326.993 402.245 326.367 407.741 326.259 413.247C326.253 413.584 326.256 413.946 326.459 414.22C326.784 414.657 327.444 414.676 328.004 414.648C333.484 414.373 339.039 413.827 344.129 411.867C349.219 409.907 353.849 406.356 355.923 401.502C357.997 396.648 357 390.458 352.764 387.125C351.853 386.408 350.541 385.826 349.538 386.421ZM303.721 407.651C305.644 408.133 307.567 408.616 309.489 409.098C310.208 409.279 311.007 409.518 311.35 410.147C311.755 410.888 311.284 411.844 310.552 412.302C309.82 412.759 308.909 412.846 308.037 412.92C306.655 413.038 305.232 413.151 303.906 412.761C302.579 412.371 301.358 411.349 301.206 410.032C301.054 408.714 302.379 407.314 303.721 407.651ZM36.9922 307.142C44.1885 309.926 49.6052 315.949 52.9648 322.636C56.3244 329.323 57.8542 336.696 59.1874 344.003C61.394 356.096 63.1512 368.441 61.5422 380.62C59.9333 392.8 54.6038 404.945 44.7237 412.794C51.9207 413.162 60.5138 412.889 64.421 407.104C66.1744 404.507 69.9482 403.358 72.951 404.506C71.0632 402.947 72.4882 400.044 73.8893 398.071C79.6299 389.988 83.5687 380.698 84.9762 371.023C87.7054 352.264 80.8438 333.251 70.6624 317C64.0566 306.455 48.6481 301.944 36.9922 307.142ZM207.623 404.32C209.108 404.878 208.762 407.222 207.374 407.975C205.986 408.728 204.256 408.39 202.709 408.014C201.988 407.838 201.222 407.634 200.733 407.098C199.589 405.848 200.901 403.735 202.595 403.362C204.288 402.989 206.006 403.712 207.623 404.32ZM261.009 314.047C254.655 314.155 247.986 314.895 242.799 318.402C241.083 319.562 239.525 321.08 238.899 322.997C238.272 324.913 238.8 327.268 240.54 328.393C244.938 331.239 246.731 336.562 247.555 341.575C248.379 346.588 248.577 351.837 250.968 356.368C252.201 358.705 253.969 360.743 255.824 362.669C265.878 373.112 278.992 380.838 293.274 384.731C295.785 385.416 298.979 386.897 298.448 389.34C277.901 385.223 259.165 373.378 247.167 356.919C243.521 367.616 236.33 377.181 226.884 383.899C245.309 398.877 269.153 407.653 293.335 408.356C294.43 408.388 295.67 408.348 296.409 407.575C296.893 407.069 297.045 406.357 297.176 405.683C300.599 388.099 303.011 370.336 304.398 352.5C304.873 346.398 305.221 340.195 303.84 334.221C302.459 328.246 299.128 322.438 293.682 319.218C290.326 317.234 286.398 316.343 282.513 315.681C275.423 314.473 268.21 313.925 261.009 314.047ZM387.26 399.621C388.925 399.622 391.027 400.088 391.32 401.654C391.611 403.216 389.749 404.379 388.102 404.58C386.897 404.727 385.588 404.587 384.632 403.871C383.676 403.155 383.232 401.752 383.896 400.781C384.576 399.785 386.015 399.62 387.26 399.621ZM510.356 368.266C507.297 379.582 505.513 391.17 503.734 402.733C503.645 403.309 503.594 403.989 504.048 404.376C508.815 398.719 513.187 392.759 517.128 386.548C517.517 385.936 517.899 385.134 517.462 384.551C516.475 383.232 515.488 381.913 514.501 380.595C513.768 379.616 513.013 378.327 513.657 377.293C514.181 376.452 515.354 376.275 516.374 376.185L524.748 375.449C524.657 374.953 524.342 374.526 524.034 374.117C521.792 371.137 519.347 368.002 515.756 366.695C513.767 365.97 510.888 366.296 510.356 368.266ZM122.512 251.202C116.391 252.184 109.76 253.875 106.207 258.738C104.219 261.46 103.487 264.821 102.903 268.092C100.606 280.961 99.8883 294.086 100.77 307.114C127.161 295.384 158.039 293.156 185.974 300.965C188.344 301.628 191.275 303.635 190.032 305.672C169.076 298.268 145.735 297.163 124.116 302.554C117.121 304.298 110.323 306.697 103.367 308.581C93.0305 311.381 82.3545 313.036 71.6213 313.503C91.1691 338.858 93.6987 375.164 77.8409 402.77C87.7073 400.986 96.978 397.025 106.075 392.964C119.658 386.9 133.182 380.506 147.61 376.613C162.038 372.721 177.638 371.448 191.949 375.716C193.624 376.215 194.546 373.906 194.613 372.232L197.714 294.612C198.184 282.853 198.224 269.851 190.165 260.952C183.035 253.077 171.406 250.613 160.546 249.728C147.87 248.694 135.059 249.191 122.512 251.202ZM311.584 395.27C311.985 395.52 312.398 395.835 312.492 396.283C312.682 397.193 311.523 397.772 310.589 398.025C309.232 398.393 307.834 398.761 306.432 398.62C305.029 398.479 303.602 397.71 303.141 396.436C302.68 395.163 303.607 393.492 305.017 393.467C307.328 393.426 309.648 394.063 311.584 395.27ZM510.642 346.427C505.538 349.162 499.438 350.161 493.672 349.207C494.409 351.173 497.644 351.858 497.66 353.946C497.669 355.217 496.416 356.111 495.703 357.185C495.155 358.011 494.918 358.986 494.699 359.942C492.644 368.929 491.465 378.1 491.18 387.295C491.131 388.88 491.544 390.973 493.193 391.145C496.61 391.503 499.828 393.333 501.785 396.032C503.389 386.39 504.993 376.749 506.597 367.107C506.969 364.87 507.282 362.371 505.91 360.524C504.021 357.982 505.665 354.5 507.321 351.814L510.642 346.427ZM206.685 388.101C208.427 388.434 210.41 389.871 209.749 391.447C209.343 392.418 208.115 392.81 207.022 392.866C205.928 392.922 204.791 392.767 203.767 393.137C202.563 393.574 201.144 392.555 200.997 391.332C200.85 390.109 201.74 388.922 202.899 388.385C204.059 387.848 205.421 387.86 206.685 388.101ZM387.238 386.612C388.337 386.757 389.495 386.988 390.295 387.722C391.094 388.457 391.314 389.854 390.463 390.533C390.182 390.758 389.827 390.876 389.48 390.989C387.971 391.482 386.356 391.964 384.808 391.598C383.26 391.233 381.915 389.664 382.45 388.229C383.068 386.574 385.417 386.372 387.238 386.612ZM487.229 366.791C486.066 367.059 485.218 367.986 484.451 368.863L479.832 374.148C478.929 375.181 480.518 376.62 481.921 376.732C483.325 376.845 484.964 376.529 485.963 377.478C487.009 378.472 486.578 380.205 485.721 381.352C484.864 382.5 483.649 383.437 483.131 384.757C482.356 386.73 483.638 389.203 485.75 389.811C486.897 390.141 488.507 389.633 488.517 388.488C488.576 381.799 488.986 375.112 489.743 368.461C489.872 367.325 488.392 366.523 487.229 366.791ZM252.843 370.113C253.728 370.675 254.3 371.574 254.89 372.418C259.958 379.667 268.434 384.649 277.492 385.703C279.587 385.947 282.059 386.19 283.11 387.939C281.136 389.806 277.92 389.578 275.215 388.977C265.625 386.845 256.837 381.553 250.69 374.205C249.71 373.033 248.814 371.25 249.908 370.174C250.648 369.446 251.958 369.552 252.843 370.113ZM482.248 338.081C475.476 339.671 468.713 341.914 463.224 346.024C457.735 350.133 453.652 356.377 453.695 363.039C453.75 371.488 449.405 379.861 442.332 384.934L454.24 386.273C455.634 386.429 457.198 386.543 458.289 385.7C459.886 384.466 459.477 382.098 459.074 380.174C458.67 378.251 458.759 375.709 460.675 375.001C463.054 374.123 465.022 377.275 464.662 379.687C464.302 382.099 462.836 384.42 463.295 386.817C468.934 387.581 474.591 388.225 480.261 388.748C479.133 387.864 479.01 386.188 479.58 384.905C480.151 383.622 481.259 382.64 482.336 381.699C483.483 380.697 481.829 378.931 480.284 378.772C478.738 378.613 476.92 378.968 475.831 377.909C474.475 376.592 475.492 374.384 476.648 372.904C478.891 370.031 481.671 366.569 480.227 363.262C476.707 355.196 477.482 345.539 482.248 338.081ZM222.529 316.042C221.585 338.122 221.714 360.244 222.916 382.312C231.745 377.735 238.196 369.682 242.196 360.88C244.637 355.51 246.271 349.592 245.295 343.812C244.568 339.502 242.432 335.52 239.948 331.855C235.542 325.354 229.791 319.486 222.529 316.042ZM427.252 305.464C430.422 304.906 432.846 308.645 432.306 311.682C431.765 314.718 429.455 317.132 427.619 319.664C425.082 323.162 423.347 327.122 421.631 331.049C417.548 340.393 415.959 350.72 417.054 360.79C417.699 366.72 419.4 372.81 423.596 377.222C427.793 381.633 434.987 383.839 440.517 381.078C445.266 378.706 447.636 373.478 448.725 368.465C449.814 363.452 450.008 358.204 452.066 353.477C455.863 344.756 465.225 339.487 474.486 336.18C460.564 334.373 447.968 325.106 442.583 312.709C441.038 309.154 439.88 305.145 436.676 302.811C433.472 300.477 427.44 301.619 427.252 305.464ZM309.573 376.59C310.552 376.77 311.513 377.042 312.437 377.401C313.96 377.993 315.597 379.63 314.617 380.893C314.082 381.582 313.053 381.665 312.155 381.687C310.516 381.727 308.749 381.732 307.411 380.828C306.073 379.924 305.61 377.737 306.959 376.849C307.701 376.361 308.689 376.428 309.573 376.59ZM383.381 372.863C384.706 372.971 386.026 373.146 387.332 373.389C387.978 373.51 388.674 373.677 389.081 374.172C389.697 374.922 389.309 376.098 388.53 376.694C387.752 377.29 386.716 377.458 385.731 377.605C384.225 377.83 382.618 378.044 381.229 377.445C379.84 376.846 378.892 375.092 379.741 373.883C380.481 372.828 382.056 372.756 383.381 372.863ZM4.47119 366.052C3.34857 366.041 2.96019 367.473 2.99424 368.545C3.0921 371.625 3.74488 374.689 4.91529 377.562C5.2411 377.879 5.61938 377.217 5.57387 376.774L4.47119 366.052ZM220.195 373.984C219.495 374.347 219.228 375.309 219.648 375.956L219.665 375.979L219.65 375.995C219.631 376.017 219.611 376.042 219.59 376.073C219.308 376.48 219.703 377.127 220.213 377.093C220.558 376.091 220.552 374.982 220.195 373.984ZM205.604 369.624C207.123 369.945 208.772 371.149 208.394 372.591C208.143 373.546 207.091 374.107 206.085 374.321C205.079 374.534 204.015 374.52 203.054 374.877C201.832 375.33 200.36 374.389 200.108 373.159C199.856 371.93 200.645 370.647 201.782 370.024C202.92 369.4 204.323 369.353 205.604 369.624ZM214.395 166.246C214.483 232.713 216.082 299.178 219.189 365.579L219.516 372.444L219.565 370.236C219.654 365.075 219.575 359.911 219.496 354.75C218.569 294.248 217.641 233.747 216.714 173.245C216.675 170.712 216.466 167.829 214.395 166.246ZM313.911 359.905C314.763 360.148 315.618 360.518 316.171 361.184C316.724 361.85 316.882 362.873 316.335 363.543C315.806 364.192 314.847 364.315 313.989 364.388L310.328 364.698C309.73 364.749 309.087 364.791 308.567 364.503C308.146 364.271 307.868 363.848 307.741 363.401C307.356 362.054 308.309 360.593 309.628 359.993C310.947 359.393 312.511 359.504 313.911 359.905ZM19.0549 307.875C15.249 311.448 13.2695 316.386 11.4405 321.174C6.34416 334.516 1.50105 348.679 4.01568 362.677C4.79322 362.813 5.16385 361.802 5.22151 361.049C6.25528 347.544 9.08018 334.166 13.6073 321.334C15.3347 316.438 17.4122 311.466 21.2494 307.825C21.1969 306.939 19.718 307.253 19.0549 307.875ZM486.93 337.063C486.267 337.219 485.837 337.817 485.49 338.379C482.215 343.688 480.673 349.957 481.131 356.104C481.319 358.642 482.174 361.565 484.655 362.491C486.672 360.64 488.689 358.79 490.707 356.94C491.027 356.646 491.355 356.342 491.532 355.953C491.974 354.979 491.342 353.893 490.76 352.989C487.886 348.52 485.727 342.856 488.121 338.137C488.419 337.549 487.594 336.907 486.93 337.063ZM528.845 331.335C528.523 331.495 528.274 331.76 528.034 332.02C522.079 338.454 516.328 345.059 510.792 351.825C509.635 353.238 508.429 354.832 508.542 356.622C508.643 358.213 509.815 359.599 511.235 360.437C512.656 361.274 514.311 361.655 515.934 362.025C516.368 362.123 516.84 362.22 517.249 362.047C517.624 361.888 517.863 361.536 518.08 361.202C521.47 355.981 524.907 350.656 526.508 344.705C526.849 343.436 528.001 342.55 528.922 341.579C530.73 339.67 531.79 337.129 531.85 334.556C531.871 333.685 531.764 332.765 531.236 332.054C530.708 331.343 529.654 330.931 528.845 331.335ZM383.821 356.802C384.641 356.996 385.546 357.293 385.914 358.02C386.562 359.301 385.041 360.637 383.618 361.058C382.514 361.384 381.285 361.497 380.226 361.055C379.168 360.613 378.365 359.499 378.605 358.419C379.032 356.504 381.831 356.33 383.821 356.802ZM206.962 354.005C207.349 354.336 207.708 354.726 207.855 355.203C208.151 356.161 207.45 357.219 206.488 357.613C205.527 358.007 204.404 357.855 203.435 357.478C202.415 357.08 201.421 356.32 201.291 355.275C201.143 354.079 202.276 352.979 203.523 352.807C204.771 352.634 206.023 353.201 206.962 354.005ZM317.321 343.495C318.316 343.882 318.42 345.321 317.734 346.11C317.047 346.9 315.903 347.163 314.832 347.249C313.762 347.335 312.654 347.297 311.653 347.672C310.116 348.247 308.444 346.472 308.81 344.935C309.176 343.397 310.905 342.441 312.554 342.368C314.203 342.294 315.793 342.9 317.321 343.495ZM382.115 341.182C383.526 341.248 384.921 341.602 386.18 342.213C386.727 342.478 387.291 342.845 387.447 343.411C387.767 344.577 386.235 345.378 384.996 345.605C383.898 345.807 382.783 345.927 381.665 345.964C380.285 346.009 378.62 345.755 378.071 344.545C377.643 343.605 378.164 342.453 379.038 341.859C379.912 341.265 381.044 341.132 382.115 341.182ZM473.071 255.1C464.84 256.368 456.572 257.42 448.28 258.253C442.274 258.856 436.617 262.112 433.251 266.902C432.559 267.886 432.083 269.456 433.151 270.059C436.173 266.729 440.276 264.305 444.745 263.21C446.343 262.819 448.091 262.605 449.598 263.246C451.104 263.887 452.181 265.653 451.5 267.087C450.453 269.29 447.114 268.674 444.586 268.527C437.557 268.117 431.477 275.803 433.809 282.152C435.446 276.092 444.503 273.46 449.579 277.417C454.655 281.373 454.035 290.062 448.605 293.565C446.811 294.723 444.507 295.53 443.688 297.444C442.987 299.086 443.662 300.939 444.336 302.592C445.392 305.185 446.449 307.779 447.506 310.372C449.722 315.809 452.077 321.445 456.562 325.405C460.011 328.451 464.484 330.262 469.047 331.325C485.498 335.155 504.019 329.059 514.509 316.361C515.35 315.343 517.268 316.308 517.418 317.597C517.567 318.885 516.646 320.044 515.734 321.003C511.037 325.942 505.116 329.812 498.596 332.206C495.514 333.337 491.851 334.561 490.904 337.582C490.119 340.084 491.77 342.849 494.14 344.151C496.51 345.453 499.4 345.564 502.118 345.28C507.538 344.713 512.783 342.686 517.091 339.493C518.397 338.525 519.661 337.394 520.242 335.916C520.791 334.515 520.666 332.967 520.533 331.477L520.417 330.196C519.908 324.641 519.25 319.021 516.879 313.941C515.739 311.497 514.213 309.208 513.374 306.655C512.338 303.507 512.401 300.13 511.705 296.898C511.009 293.666 509.247 290.309 506.026 289.118C506.877 287.053 508.999 285.754 510.374 283.965C511.748 282.176 511.95 279.05 509.787 278.242C508.752 277.856 507.574 278.189 506.588 278.678C502.432 280.74 500.191 285.785 501.524 290.073C502.395 292.871 497.767 294.749 495.276 293.058C492.784 291.368 492.17 288.149 491.679 285.268C489.774 274.099 485.952 262.058 475.967 255.969C475.094 255.437 474.094 254.942 473.071 255.1ZM206.089 334.328C207.402 334.735 208.711 335.861 208.438 337.153C208.18 338.375 206.708 338.947 205.422 339.158C203.597 339.456 201.218 339.114 200.706 337.415C200.218 335.798 201.989 334.25 203.74 334.073C204.53 333.993 205.334 334.094 206.089 334.328ZM416.627 311.064C415.403 312.172 414.807 313.754 414.251 315.275C412.996 318.705 411.725 322.236 411.869 325.868C411.962 328.206 410.542 330.312 409.529 332.442C408.516 334.572 407.966 337.299 409.555 339.08C413.349 336.032 414.26 330.901 415.094 326.233C416.092 320.651 417.448 314.866 421.226 310.503C419.904 309.504 417.851 309.955 416.627 311.064ZM316.64 326.618C317.617 326.918 318.723 327.518 318.734 328.498C318.749 329.69 317.213 330.239 315.986 330.453C315.37 330.561 314.755 330.668 314.139 330.776C312.571 331.05 310.891 331.313 309.433 330.696C307.976 330.08 307.005 328.2 307.957 326.978C308.572 326.188 309.704 325.972 310.733 325.911C312.725 325.794 314.74 326.035 316.64 326.618ZM174.046 309.402C175.761 310.186 177.681 311.731 177.045 313.444C159.369 309.762 140.484 311.583 123.934 318.565C116.488 321.706 109.497 325.86 101.79 328.364C99.1533 329.221 96.2747 329.879 93.611 329.102C90.9473 328.325 88.7259 325.625 89.505 323.07C90.2364 320.673 93.0313 319.533 95.5076 318.732C107.712 314.785 120.13 311.438 132.694 308.708C146.403 305.729 161.363 303.607 174.046 309.402ZM427.857 309.2C426.595 309.195 425.534 310.08 424.704 310.988C422.691 313.192 421.26 315.835 420.195 318.577C418.873 321.984 418.091 325.582 417.884 329.21C421.539 323.203 425.447 317.337 429.595 311.63C430.315 310.64 429.12 309.205 427.857 309.2ZM405.46 319.901C405.114 319.903 404.748 319.915 404.456 320.092C403.798 320.491 403.889 321.422 404.084 322.143C404.704 324.429 405.561 326.656 406.639 328.781C407.287 325.787 408.326 322.871 409.726 320.121C408.31 319.966 406.885 319.893 405.46 319.901ZM128.472 312.182C118.009 315.254 107.546 318.326 97.0832 321.398C95.8333 321.765 94.3831 322.332 94.1169 323.555C94.9675 324.741 96.5878 325.244 98.0909 325.174C99.5939 325.105 101.021 324.554 102.414 324.01C113.028 319.867 123.643 315.724 134.258 311.58C132.362 311.074 130.354 311.63 128.472 312.182ZM238.884 317.789C238.322 318.721 237.152 319.116 236.275 319.79C235.399 320.464 234.884 321.914 235.81 322.525C237.227 321.17 238.644 319.814 240.062 318.459C239.769 318.112 239.343 317.87 238.884 317.789ZM349.279 317.068C356.884 317.825 364.558 318.211 372.176 317.584C374.147 317.422 376.505 317.346 377.674 318.87C376.198 320.307 373.876 320.481 371.771 320.567C363.864 320.89 355.956 321.214 348.048 321.537C346.506 321.6 344.552 321.413 344.052 320.017C343.658 318.919 344.553 317.707 345.678 317.266C346.802 316.826 348.07 316.948 349.279 317.068ZM466.859 309.13C468.699 311.268 469.371 314.276 468.605 316.946C468.416 317.605 468.139 318.251 467.698 318.789C466.542 320.2 464.406 320.617 462.582 320.199C460.757 319.782 459.194 318.672 457.802 317.471C456.367 316.233 455.021 314.822 454.332 313.096C453.643 311.37 453.723 309.27 454.945 307.839C455.953 306.659 457.579 306.093 459.169 305.982C462.059 305.78 465.019 306.991 466.859 309.13ZM210.477 314.101C211.204 314.662 211.082 315.827 210.461 316.494C209.841 317.162 208.895 317.446 207.988 317.662C206.918 317.917 205.792 318.117 204.719 317.873C203.646 317.629 202.639 316.834 202.507 315.788C202.316 314.27 203.979 313.082 205.56 312.844C207.286 312.584 209.118 313.052 210.477 314.101ZM458.438 309.633C457.633 310.63 458.162 312.428 459.468 312.598C460.977 312.795 462.15 314.309 461.907 315.746C461.716 316.873 463.156 317.815 464.297 317.476C465.439 317.138 466.1 315.915 466.074 314.774C466.049 313.632 465.479 312.568 464.832 311.607C464.119 310.548 463.247 309.52 462.044 309.005C460.842 308.489 459.244 308.637 458.438 309.633ZM454.421 207.282C443.457 209.2 432.595 213.775 425.524 222.006C418.452 230.238 416.006 242.556 421.535 251.802C423.488 255.07 426.471 257.919 430.222 259.07C433.972 260.22 438.508 259.373 441.01 256.467C443.849 253.171 449.579 256.332 453.851 255.081C459.76 253.35 465.901 252.346 472.076 252.101C473.541 252.043 475.05 252.034 476.417 252.54C477.9 253.09 479.072 254.191 480.199 255.263C484.108 258.984 488.097 262.812 490.411 267.597C494.081 275.185 493.172 284.437 497.808 291.526C498.35 287.081 498.891 282.635 499.433 278.19C499.634 276.54 499.858 274.827 500.791 273.426C501.725 272.025 503.591 271.042 505.225 271.609C508.107 272.609 511.108 273.683 513.176 275.846C515.245 278.009 516.011 281.613 514.022 283.843C512.1 285.998 514.28 289.113 515.301 291.77C517.069 296.375 514.99 301.636 516.38 306.358C517.531 310.269 520.857 313.189 524.035 315.89C524.964 316.679 526.048 317.521 527.286 317.413C528.323 317.323 529.157 316.585 529.865 315.855C534.088 311.507 536.98 305.993 538.099 300.158C538.55 297.804 537.693 294.374 535.21 294.696C535.889 289.048 541.324 285.2 544.516 280.401C547.958 275.226 548.771 268.862 548.929 262.732C549.087 256.571 548.457 249.876 544.16 245.28C538.997 239.758 528.963 239.346 523.323 244.423C521.916 245.689 520.063 247.361 518.386 246.446C519.701 244.192 521.015 241.939 522.33 239.686C524.472 236.014 526.66 232.209 527.096 228.026C527.956 219.772 521.378 211.958 513.245 209.055C505.112 206.153 495.929 207.356 487.771 210.195C485.726 210.906 483.31 212.434 483.865 214.445C484.186 215.609 485.421 216.312 486.054 217.353C486.448 218.002 486.409 218.21 485.963 218.735C485.693 219.052 485.207 219.97 484.771 219.791C480.146 214.674 475.143 209.316 468.362 207.381C463.867 206.098 459.036 206.474 454.421 207.282ZM401.889 312.825C401.311 312.497 400.204 312.282 400.312 312.916C400.625 314.466 402.086 315.619 403.662 316.093C405.238 316.567 406.93 316.487 408.58 316.402C409.226 316.369 409.914 316.321 410.428 315.947C410.859 315.633 411.094 315.139 411.314 314.666C411.689 313.855 412.065 313.044 412.441 312.233C409.374 310.326 405.037 314.607 401.889 312.825ZM313.332 307.53C314.622 307.622 315.902 307.837 317.148 308.171C318.227 308.459 319.467 309.063 319.52 310.132C319.59 311.54 317.673 312.115 316.203 312.237C314.707 312.36 313.212 312.484 311.716 312.607C310.626 312.697 309.393 312.743 308.591 312.031C307.515 311.076 307.95 309.222 309.115 308.368C310.28 307.513 311.867 307.425 313.332 307.53ZM348.316 307.224C355.47 308.138 362.722 308.359 369.923 307.881C370.768 307.825 371.688 307.778 372.384 308.239C373.08 308.7 373.253 309.89 372.493 310.248C372.263 310.356 371.998 310.368 371.741 310.377C363.035 310.691 354.33 311.005 345.624 311.319C344.83 311.347 343.956 311.351 343.346 310.866C342.253 309.997 342.88 308.138 344.133 307.496C345.387 306.854 346.906 307.043 348.316 307.224ZM417.782 300.45C415.003 300.593 412.175 300.839 409.608 301.869C407.042 302.898 404.74 304.836 403.973 307.392C403.818 307.911 403.76 308.549 404.177 308.914C404.501 309.198 404.989 309.202 405.429 309.185C410.046 309.012 414.643 308.355 419.111 307.23C421.333 306.671 424.011 305.322 423.71 303.147C423.552 302.001 422.517 301.106 421.375 300.727C420.233 300.347 418.99 300.388 417.782 300.45ZM97.1328 300.13C96.6896 302.37 96.5812 304.671 96.812 306.941C97.3862 307.533 98.1419 306.377 98.0934 305.571C97.9825 303.731 97.6597 301.903 97.1328 300.13ZM245.801 297.389C261.805 298.08 277.809 298.771 293.813 299.462C295.307 299.526 297.292 300.073 297.203 301.499C295.293 302.671 292.829 302.428 290.574 302.177C276.308 300.589 261.876 300.37 247.564 301.523C246.328 301.623 245.016 301.719 243.914 301.178C242.811 300.636 242.1 299.193 242.816 298.226C243.442 297.38 244.718 297.342 245.801 297.389ZM206.994 295.786C207.698 295.887 208.431 296.063 208.943 296.536C210.112 297.619 209.39 299.676 207.984 300.461C206.577 301.245 204.836 301.135 203.213 301.001C201.433 300.854 200.855 298.303 202.025 297.012C203.194 295.721 205.227 295.531 206.994 295.786ZM263.282 290.131C289.364 291.423 315.447 292.716 341.53 294.008C342.927 294.078 344.776 294.591 344.702 295.926C340.401 296.666 335.947 296.583 331.679 295.685L335.469 298.8C333.662 299.888 331.737 301.012 329.602 301.057C327.467 301.102 325.142 299.599 325.203 297.559C326.283 297.083 327.364 296.606 328.444 296.13C307.374 294.405 286.206 293.776 265.064 294.246C263.844 294.273 262.542 294.283 261.512 293.659C260.482 293.034 259.96 291.515 260.813 290.681C261.423 290.085 262.41 290.087 263.282 290.131ZM432.171 293.463C431.231 293.512 430.434 294.108 429.705 294.677C428.842 295.352 427.978 296.027 427.115 296.702C426.21 297.41 425.23 298.253 425.177 299.369C425.148 299.974 425.631 300.693 426.249 300.557C426.421 300.519 426.571 300.419 426.716 300.321C428.773 298.935 430.83 297.549 432.887 296.163C433.307 295.88 433.755 295.561 433.891 295.087C434.14 294.22 433.111 293.413 432.171 293.463ZM464.166 286.203C464.248 288.224 463.198 290.118 462.824 292.109C462.451 294.1 463.162 296.635 465.223 297.101C465.831 297.238 466.007 298.069 465.664 298.568C465.321 299.066 464.672 299.281 464.058 299.388C462.149 299.719 459.888 299.134 459.011 297.481C458.572 296.653 458.538 295.69 458.513 294.763C458.446 292.279 458.379 289.796 458.313 287.313C458.267 285.615 458.466 283.524 460.093 282.839C462.03 282.022 464.085 284.181 464.166 286.203ZM435.795 297.468C435.418 297.636 435.162 298.024 435.166 298.421L435.072 298.444C435.281 298.886 436.032 298.955 436.326 298.559C436.619 298.163 436.301 297.509 435.795 297.468ZM432.196 284.489C431.333 284.51 430.368 284.659 429.858 285.324C429.312 286.036 429.533 287.079 430.094 287.78C430.654 288.481 431.48 288.931 432.25 289.417C435.496 291.462 438.087 294.441 439.597 297.863C440.624 296.572 441.651 295.28 442.678 293.989C443.445 293.024 444.253 291.921 444.092 290.72C443.975 289.852 443.365 289.123 442.717 288.504C439.973 285.881 436.077 284.394 432.196 284.489ZM101.394 264.509C100.188 264.604 99.5627 265.898 99.1834 266.996C98.6056 268.669 98.0278 270.342 97.45 272.015C96.8187 273.842 96.1829 275.69 96.0097 277.608C95.895 278.879 95.9858 280.157 96.0767 281.43C96.3605 285.404 96.6443 289.378 96.9281 293.352C96.983 294.121 97.595 295.182 98.2601 294.747C97.9839 284.595 99.0395 274.412 101.394 264.509ZM442.579 279.122C441.484 279.521 440.321 280.221 440.162 281.33C440.004 282.439 441.713 283.469 442.376 282.546C443.222 281.368 445.337 281.983 446.037 283.245C446.736 284.508 446.531 286.027 446.52 287.455C446.51 288.884 446.853 290.523 448.157 291.222C448.376 289.311 448.594 287.4 448.813 285.49C449.083 283.13 449.067 280.205 446.897 279.05C445.597 278.359 443.969 278.617 442.579 279.122ZM477.74 278.043C479.517 278.118 481.415 278.71 482.387 280.134C483.359 281.557 482.843 283.889 481.13 284.347C478.686 285.001 476.4 281.71 474.01 282.527C472.516 283.038 471.593 285.046 470.035 284.758C469.068 284.58 468.533 283.474 468.726 282.551C468.918 281.629 469.638 280.891 470.41 280.307C472.466 278.751 475.119 277.931 477.74 278.043ZM205.585 276.362C207.298 276.626 208.976 278.418 208.073 279.834C207.819 280.231 207.407 280.514 206.976 280.731C205.907 281.268 204.589 281.451 203.486 280.982C202.383 280.513 201.607 279.298 201.906 278.18C202.281 276.776 204.088 276.131 205.585 276.362ZM480.526 267.044C481.705 268.115 482.624 270.132 481.304 271.04C479.908 272.002 478.235 270.379 476.899 269.343C475.406 268.185 473.384 267.673 471.487 267.975C470.274 268.168 469.131 268.671 467.914 268.84C466.697 269.009 465.28 268.742 464.616 267.753C463.92 266.716 464.363 265.247 465.321 264.422C466.279 263.597 467.611 263.295 468.895 263.183C473.109 262.815 477.46 264.259 480.526 267.044ZM205.526 263.762C206.578 264.351 207.145 265.74 206.559 266.762C205.786 268.113 203.758 268.094 202.194 267.723C201.631 267.589 201.038 267.413 200.665 266.988C199.776 265.974 200.773 264.384 202.016 263.798C203.109 263.283 204.474 263.173 205.526 263.762Z" fill="#44D9E8"/>
<path d="M290.087 90.8532C281.276 65.1388 272.462 39.4159 263.65 13.7011C266.923 15.4059 269.845 17.4437 272.785 19.4934C273.824 20.2176 274.865 20.9434 275.924 21.6564C280.295 24.5993 284.936 27.2911 290.887 28.5986C294.355 29.3605 298.276 29.4239 302.108 29.4859C303.376 29.5064 304.634 29.5268 305.862 29.5722C310.868 29.7572 315.388 30.3547 318.499 32.8798C320.585 34.5737 322.307 37.497 323.08 40.6266C323.767 43.4098 323.685 46.272 322.531 48.5318C320.886 44.828 318.673 42.2975 316.044 40.5405C313.215 38.6501 309.935 37.6751 306.435 37.0674C303.961 36.6379 301.346 36.3878 298.69 36.1338C297.601 36.0297 296.505 35.9248 295.409 35.8067C291.637 35.4001 287.83 34.8339 284.158 33.602C281.458 32.0603 278.757 30.5185 276.057 28.9769C274.644 28.1703 273.231 27.3637 271.819 26.5572L270.638 25.8831L271.098 27.1786C277.976 46.5433 284.855 65.914 291.732 85.2788L291.739 85.2981L291.748 85.3166C292.283 86.503 292.954 87.8258 293.664 89.2273C293.815 89.5256 293.968 89.8276 294.122 90.1325C295.002 91.8762 295.917 93.7286 296.714 95.6178C298.317 99.4152 299.407 103.276 298.849 106.629L299.339 106.699L298.849 106.629C298.211 110.47 295.834 114.33 292.463 117.762C289.098 121.188 284.778 124.15 280.33 126.197C271.88 130.085 261.888 129.952 254.398 126.838C246.907 123.724 242.053 117.709 243.513 109.861C245.105 101.306 252.366 95.2659 261.427 92.083C270.479 88.903 281.192 88.631 289.445 91.5057L290.428 91.8483L290.087 90.8532Z" fill="#EF3BDD" stroke="#EF3BDD"/>
<path d="M709.379 78.1528C709.641 80.2691 709.333 82.3541 708.316 83.9249C707.366 80.9895 705.877 78.8557 703.998 77.2536C701.932 75.4921 699.422 74.3962 696.712 73.5632C694.797 72.9746 692.751 72.5092 690.677 72.0374C689.828 71.8443 688.975 71.6501 688.123 71.4459C685.19 70.7424 682.25 69.914 679.481 68.5915C677.503 67.1281 675.525 65.6645 673.546 64.2011C672.507 63.4324 671.468 62.6638 670.429 61.8952L669.34 61.0896L669.642 62.4167C673.198 78.0298 676.754 93.6478 680.31 109.261L680.314 109.281L680.321 109.301C680.629 110.272 681.032 111.363 681.457 112.515C681.547 112.76 681.639 113.008 681.731 113.258C682.257 114.691 682.798 116.208 683.244 117.74C684.141 120.824 684.618 123.879 683.864 126.365L684.342 126.505L683.864 126.365C682.998 129.222 680.767 131.927 677.783 134.211C674.804 136.489 671.118 138.314 667.418 139.423C660.396 141.529 652.546 140.391 646.957 137.23C641.365 134.068 638.168 128.983 640.056 123.174C642.123 116.813 648.394 112.934 655.843 111.43C663.28 109.927 671.743 110.831 677.958 113.889L678.892 114.348L678.671 113.327C674.223 92.7164 669.773 72.0987 665.324 51.4872C667.648 53.0982 669.69 54.9093 671.749 56.7353C672.5 57.4014 673.253 58.0694 674.023 58.7304C677.193 61.4521 680.608 64.0147 685.197 65.645L685.369 65.1729L685.197 65.645C687.871 66.5951 690.975 67.0533 693.997 67.4995C694.994 67.6467 695.982 67.7926 696.943 67.9545C700.879 68.6174 704.359 69.5439 706.544 71.783C708.007 73.2828 709.075 75.686 709.379 78.1528Z" fill="#6F42C1" stroke="#6F42C1"/>
<path fill-rule="evenodd" clip-rule="evenodd" d="M643.472 523.817C639.806 526.051 635.708 528.332 631.286 527.96C626.172 527.53 622.115 523.412 621.078 518.932C620.042 514.452 621.519 509.774 623.858 505.702C629.35 496.143 639.829 488.975 651.617 486.713C654.058 486.245 654.338 483.275 654.05 481.067C653.403 476.103 652.756 471.139 652.11 466.175C652.019 465.48 651.906 464.739 651.389 464.213C650.432 463.24 648.69 463.497 647.288 463.84C633.108 467.313 619.035 471.134 605.09 475.296C600.563 476.648 595.207 479.005 595.128 483.256C595.058 487.048 594.988 490.839 594.918 494.631C594.805 500.688 594.603 507.049 591.184 512.287C586.15 520.001 574.027 523.263 565.037 519.322C556.047 515.381 551.558 504.838 555.354 496.581C559.15 488.323 570.654 483.609 580.167 486.413C583.665 487.444 587.065 489.362 590.72 488.954C590.938 481.904 591.156 474.853 591.374 467.802C591.614 460.028 593.41 450.34 601.791 448.15C616.631 444.273 631.472 440.395 646.312 436.518C647.706 436.153 649.193 435.788 650.588 436.148C653.065 436.786 654.142 439.337 654.68 441.582C658.012 455.475 654.351 470.345 659.213 483.875C660.919 488.625 663.667 493.183 663.971 498.162C664.64 509.142 653.663 517.608 643.472 523.817ZM650.056 444.506C649.936 443.885 649.793 443.223 649.294 442.773C648.422 441.986 646.956 442.22 645.756 442.511C636.069 444.859 626.382 447.208 616.696 449.556C612.561 450.558 608.346 451.593 604.781 453.701C598.308 457.529 594.792 464.923 596.221 471.702C596.291 472.035 596.376 472.375 596.58 472.663C597.393 473.81 599.354 473.449 600.775 472.948C607.271 470.656 613.759 468.335 620.384 466.356C627.694 464.172 635.163 462.409 642.729 461.08C646.005 460.505 649.78 459.699 651.202 457.022C652.103 455.327 651.765 453.344 651.408 451.497C650.957 449.167 650.507 446.837 650.056 444.506ZM582.242 515.732C588.768 512.561 590.541 505.07 590.663 498.518C590.681 497.551 590.66 496.526 590.078 495.705C589.517 494.913 588.527 494.447 587.557 494.069C581.478 491.701 574.35 491.498 568.11 493.516C565.394 494.394 562.77 495.736 561.09 497.807C557.057 502.779 560.087 510.168 565.605 513.879C570.303 517.039 577.064 518.248 582.242 515.732Z" fill="#EF3BDD"/>
<path fill-rule="evenodd" clip-rule="evenodd" d="M37.3325 315.782C37.4763 316.164 37.6091 316.59 37.4447 316.964C37.1498 317.635 36.1896 317.66 35.4284 317.655C30.075 317.614 25.0979 322.006 24.7178 327.108C24.6776 327.647 23.9023 327.893 23.4006 327.644C22.899 327.394 22.6408 326.855 22.4673 326.341C21.4893 323.442 22.1195 320.193 23.6786 317.536C25.2378 314.879 27.6505 312.76 30.2715 311.026C31.2882 310.353 32.5543 309.707 33.7046 310.141C34.4647 310.428 34.9612 311.121 35.3751 311.794C36.1546 313.062 36.8108 314.399 37.3325 315.782ZM34.223 315.202C33.7518 313.825 31.8395 313.331 30.411 313.817C28.9825 314.304 27.9411 315.464 26.969 316.576C26.0475 317.63 25.0833 318.78 24.9747 320.15C27.438 317.658 30.7114 315.906 34.223 315.202Z" fill="#E844D8"/>
</svg>
