<svg width="568" height="686" viewBox="0 0 568 686" fill="none" xmlns="http://www.w3.org/2000/svg">
<path fill-rule="evenodd" clip-rule="evenodd" d="M328.387 662.305C360.719 662.556 393.041 661.09 425.218 657.913L425.3 658.912C418.678 659.541 412.053 660.126 405.431 660.813C384.987 662.954 364.459 663.425 343.936 663.956C328.792 664.283 313.664 662.783 298.879 659.487C281.218 655.649 263.2 654.394 245.273 652.442C210.844 648.695 176.695 643.279 143.278 633.94C140.647 633.204 137.604 632.773 135.481 631.541C130.215 628.484 124.139 627.198 119.221 623.32C116.604 621.258 112.842 620.892 110.13 618.371C102.771 611.542 93.6449 607.462 85.0344 602.534C71.754 594.934 58.2308 587.172 48.589 575.081C31.2756 553.371 15.9551 530.204 7.34619 503.503C-1.56306 475.871 -2.6642 447.96 5.67021 419.681C9.25726 407.504 11.995 395.179 18.8263 384.268C22.4679 378.695 26.4764 373.372 30.8251 368.333C35.9137 362.198 40.0908 355.385 46.1911 349.987C54.6316 342.516 63.0859 335.158 72.2272 328.506C81.828 321.525 85.2331 310.893 87.4157 299.622C90.1139 285.696 91.2727 271.496 95.2571 257.792C106.399 219.472 128.455 189.367 161.294 166.587C177.87 155.087 195.435 145.365 212.612 134.952C228.738 125.175 245.654 116.654 261.683 106.778C297.902 84.4698 336.834 84.1981 376.764 90.6432C394.49 93.5053 411.288 99.7668 427.91 106.54C446.065 113.936 464.516 120.562 481.132 131.308C511.011 150.637 534.493 175.428 548.435 208.655C555.15 224.655 561.844 240.667 565.119 257.78C568.518 274.519 568.913 291.729 566.285 308.606C562.905 329.245 556.748 349.263 553.213 369.854C552.56 373.794 552.255 377.784 552.303 381.777C552.357 392.326 550.947 402.887 552.019 413.409C553.317 426.139 555.33 438.797 556.597 451.527C558.409 470.984 558.172 490.578 555.891 509.986C553.844 528.269 550.274 546.349 545.217 564.037C542.291 574.62 538.084 584.806 532.69 594.368C530.124 598.842 528.992 604.915 523.122 607.079C513.206 623.595 496.14 630.989 480.639 640.358C473.844 644.464 466.312 647.035 459.182 650.4C453.374 653.139 447.324 652.979 441.45 654.184C425.426 657.484 409.057 658.364 392.763 659.637C371.365 661.314 349.906 661.838 328.387 662.305Z" fill="#6F42C1"/>
<path fill-rule="evenodd" clip-rule="evenodd" d="M283.596 0.674782C283.126 0.80558 282.383 0.716613 282.458 0.234506C282.739 0.0902908 283.053 -0.0580997 283.359 0.0229957C283.664 0.104091 283.862 0.54591 283.617 0.74461L283.596 0.674782Z" fill="#00160A"/>
<path fill-rule="evenodd" clip-rule="evenodd" d="M285.99 274.943L287.156 275.429C293.476 278.033 298.257 279.495 301.5 279.813C304.939 280.15 309.962 279.527 316.567 277.943L316.44 279.582C315.36 293.934 315.402 304.768 316.567 312.083C317.776 319.674 320.641 326.276 325.16 331.888C320.083 337.568 312.434 343.296 321.869 369.826C328.274 387.834 317.396 451.581 316.44 505.15C315.988 530.502 321.282 553.798 325.16 568.473C334.426 603.532 349.434 633.464 366 647.111C374.273 653.926 388.407 660.633 384.114 662.258C352.423 674.259 230.501 660.133 230 653.943C229.54 648.258 262.356 648.992 267 623.2C275.983 573.309 260.34 483.573 260.783 472.549C262.092 439.989 271.824 400.491 284 370.943C284.453 369.843 287.767 369.644 292.222 369.826L292.531 368.575C295.38 356.825 295.869 348.779 294 344.437C291.835 339.407 284.455 334.591 271.862 329.988C276.37 327.267 279.715 321.653 281.899 313.147L282.125 312.236C284.177 303.742 285.465 291.311 285.99 274.943Z" fill="#170229"/>
<path fill-rule="evenodd" clip-rule="evenodd" d="M290.457 453.872C291.797 437.482 291.72 431.176 294 414.89C294.661 410.169 293.674 371.345 285.474 377.551C282.402 379.875 283.626 385.059 282.158 388.621C269.982 418.169 262.092 439.989 260.783 472.549C260.111 489.272 258.987 506.074 260.337 522.756C262.73 552.321 286.331 504.308 290.457 453.872Z" fill="#170229"/>
<path fill-rule="evenodd" clip-rule="evenodd" d="M311.765 521.502C308.509 482.47 316.447 443.504 320.578 404.556C321.906 392.037 322.82 379.198 319.678 367.008C317.999 360.493 315.166 354.16 315.031 347.432C314.897 340.704 318.572 333.177 325.16 331.888C312.277 316.364 309.216 293.304 317.601 274.943C318.168 285.549 318.734 296.155 319.301 306.761C319.603 312.407 320.047 318.449 323.535 322.893C327.022 327.336 334.744 328.802 338.092 324.252C341.64 319.431 349.356 319.852 354.239 323.307C359.122 326.762 362.021 332.288 365.295 337.3C371.006 346.042 378.307 353.696 386.52 360.131C417.165 384.143 434.899 422.66 437.367 461.571C438.786 483.948 414.833 535.222 414.718 569.743C414.633 595.251 436.706 608.115 444.266 611.541C449.904 614.097 456.036 615.529 461.459 618.518C466.881 621.507 471.734 626.642 471.989 632.84C472.248 639.109 467.836 644.562 463.186 648.763C444.837 665.336 418.399 672.442 394.241 667.294C385.256 665.379 376.537 661.827 369.225 656.256C359.39 648.764 352.556 638.046 346.493 627.258C328.181 594.671 314.873 558.773 311.765 521.502Z" fill="#170229"/>
<path fill-rule="evenodd" clip-rule="evenodd" d="M257.074 169.452C260.676 151.314 268.555 134.337 276.367 117.56C280.212 109.303 288.443 103.221 297.504 101.943C294.678 103.946 291.637 106.265 290.936 109.644C290.235 113.024 293.726 117.098 296.821 115.535C310.041 108.861 327.598 112.173 337.44 123.198C340.764 126.922 343.21 131.322 345.628 135.682C353.747 150.323 362.13 166.182 360.292 182.801C359.745 187.748 358.711 193.799 362.708 196.794C364.64 198.242 364.049 201.225 363.222 203.486C354.778 226.574 341.72 247.983 325.033 266.101C319.539 272.065 312.732 278.065 304.599 277.941C299.426 277.861 294.672 275.275 290.16 272.757C281.112 267.707 271.961 262.582 264.439 255.475C256.918 248.368 251.077 238.953 250.396 228.658C249.883 220.891 252.255 212.762 249.491 205.48C248.113 201.852 245.54 198.731 244.421 195.016C243.303 191.3 244.374 186.374 248.082 185.171C254.15 183.204 255.838 175.677 257.074 169.452Z" fill="#170229"/>
<circle cx="334" cy="228" r="7" fill="#EF3BDD"/>
<path fill-rule="evenodd" clip-rule="evenodd" d="M200.98 660.339C203.163 658.348 205.224 656.467 204.282 653.943C198.406 654.445 193.319 659.641 193.014 665.452C192.71 671.263 197.228 676.948 203.02 678.045C247.229 686.415 292.723 688.148 337.454 683.167C348.23 681.967 360.368 679.51 366 670.367C364.288 668.085 360.787 669.641 358.289 671.217L357.4 671.789C348.592 677.336 337.847 678.877 327.361 679.73L325.399 679.883C286.095 682.822 246.427 680.985 207.575 674.427C202.407 673.555 195.749 670.477 197.041 665.465C197.556 663.463 199.304 661.868 200.98 660.339ZM319.352 307.68L317.601 274.943C309.216 293.304 312.277 316.364 325.16 331.888C318.572 333.177 314.897 340.704 315.031 347.432C315.125 352.139 316.541 356.653 317.958 361.172C318.566 363.111 319.174 365.051 319.678 367.008C322.82 379.198 321.906 392.036 320.578 404.556L320.399 406.225C319.385 415.544 318.166 424.863 316.946 434.185C313.142 463.267 309.335 492.366 311.765 521.502C314.873 558.773 328.181 594.671 346.493 627.258C352.556 638.046 359.39 648.764 369.225 656.256C376.537 661.827 385.256 665.379 394.241 667.294C418.399 672.442 444.837 665.336 463.186 648.763C467.836 644.562 472.248 639.109 471.989 632.84C471.734 626.642 466.881 621.507 461.459 618.518C458.303 616.779 454.907 615.566 451.507 614.353C449.066 613.482 446.623 612.61 444.266 611.541C426.475 603.477 414.944 583.332 416.976 563.866C406.945 574.361 412.424 592.7 423.254 602.364C430.237 608.595 438.741 612.566 447.269 616.547C451.968 618.741 456.674 620.939 461.137 623.519C463.719 625.012 466.459 626.976 466.96 629.922C467.387 632.43 466.033 634.878 464.565 636.954C454.129 651.705 436.077 659.257 418.286 662.258C406.621 664.225 394.151 664.446 383.491 659.307C374.258 654.856 367.295 646.845 361.225 638.537L360.438 637.452C330.047 595.236 314.089 542.778 315.809 490.747C316.367 473.861 318.721 457.05 321.072 440.259C324.433 416.26 327.788 392.302 325.884 368.228L358.074 344.571C360.398 342.921 364.057 341.587 365.465 344.018C370.077 351.981 377.121 358.023 384.156 364.059C386.596 366.152 389.035 368.244 391.372 370.416C417.435 394.64 431.362 430.398 432.574 466.006C433.786 501.615 423.027 536.971 405.735 568.099C401.278 576.123 389.928 576.03 380.839 574.87L380.6 574.839C379.878 574.742 379.143 574.602 378.571 574.162C377.329 573.207 377.405 571.384 377.687 569.799L377.761 569.408C383.34 541.586 388.687 513.362 387.056 485.031C385.425 456.7 376.091 427.831 356.008 407.829C362.48 420.803 368.132 434.188 372.918 447.877C376.654 458.561 379.875 469.493 381.232 480.731C383.53 499.776 380.419 518.763 377.3 537.805C375.413 549.32 373.524 560.854 372.825 572.432L372.811 572.683C372.721 574.364 372.763 576.19 373.873 577.433C374.844 578.52 376.378 578.86 377.807 579.141L378.168 579.212C388.807 581.271 402.153 582.079 407.747 572.843C427.933 539.515 439.835 500.483 437.367 461.571C434.899 422.66 417.165 384.143 386.52 360.131L385.753 359.524C377.852 353.217 370.828 345.769 365.295 337.3C364.722 336.422 364.16 335.529 363.597 334.634C360.945 330.416 358.267 326.157 354.239 323.307C349.356 319.852 341.64 319.431 338.092 324.252L337.93 324.464C334.5 328.755 326.967 327.266 323.535 322.893C320.235 318.689 319.66 313.055 319.352 307.68ZM272.541 330.684C285.147 315.056 289.606 293.239 284.137 273.943L279.227 305.537C278.31 311.313 277.127 317.285 273.365 321.73C269.382 326.436 261.46 328.401 257.028 324.112L256.812 323.91C251.938 319.524 244.19 323.281 238.8 327.378L238.324 327.745C221.263 341.116 204.506 355.209 191.292 372.367C176.573 391.482 166.712 413.791 157.792 436.206L156.147 440.366C150.53 454.675 145.292 469.429 145.01 484.766C144.717 500.716 150.733 517.646 163.99 526.589C171.001 531.318 170.639 541.539 169.502 549.898L165.03 582.775C163.326 595.434 161.902 608.662 166.622 620.493C172.72 635.777 188.238 645.734 204.301 649.518C219.723 653.151 235.803 651.986 251.612 650.609L277.004 648.379C278.827 648.213 280.723 647.962 282.162 646.851C283.586 645.751 284.312 643.994 284.888 642.292C291.258 623.453 286.289 603.272 280.61 583.881L277.41 573.068C271.561 553.047 266.875 532.549 266.112 511.718C265.028 482.121 271.868 452.9 279.017 424.115L296.656 353.305C298.143 347.337 294.619 341.027 289.655 337.375C285.022 333.967 279.346 332.382 273.741 330.982L272.541 330.684ZM230.35 340.703C233.503 338.105 238.145 335.573 241.34 338.119C254.344 348.475 269.733 355.838 285.974 359.474C288.277 359.99 288.512 363.051 288.128 365.444L288.059 365.836C284.968 381.77 280.687 397.563 276.411 413.339C267.719 445.405 259.047 477.4 260.43 510.356C261.454 534.736 267.982 558.465 274.912 581.919L277.681 591.25C281.777 605.127 285.564 620.041 280.702 633.61C279.539 636.858 277.753 640.09 274.774 641.846C272.443 643.22 269.656 643.534 266.964 643.819L251.461 645.455C236.282 647.046 220.805 648.427 205.982 644.909C190.553 641.247 175.697 631.195 170.728 616.186C167.122 605.299 169.083 593.568 170.989 582.168C171.113 581.427 171.236 580.688 171.358 579.951L171.574 578.634C173.771 565.074 175.01 551.36 175.279 537.628C192.779 557.34 207.804 579.233 219.893 602.633C220.764 604.318 223.321 603.539 224.938 602.541L226.181 601.772C232.819 597.656 239.485 593.297 244.127 587.057C249.06 580.426 251.244 571.081 247.299 563.823L223.257 519.585C214.603 503.64 205.814 486.422 207.826 468.436C209.11 456.946 214.709 446.478 220.463 436.393L235.242 410.618L233.795 412.18C219.337 427.862 205.322 445.59 203.122 466.684C201.478 482.454 206.731 498.095 213.329 512.562L213.971 513.959C221.082 529.281 229.586 543.907 238.231 558.432L241.477 563.875C245.01 569.793 243.448 577.665 239.495 583.313C235.796 588.596 230.371 592.359 224.954 595.912L223.834 596.644L213.318 578.702C204.108 563.01 194.582 547.228 181.298 534.8C178.929 532.583 176.438 530.469 173.947 528.355C167.704 523.057 161.464 517.762 157.165 510.87C145.934 492.866 150.978 469.548 158.277 449.528L158.727 448.307C173.896 407.47 196.667 368.444 230.35 340.703ZM399.666 588.478L370.747 582.221C369.099 581.878 367.2 581.659 366 582.766C366.268 584.516 368.168 585.461 369.941 586.082L370.347 586.22C379.733 589.312 389.418 592.445 399.324 591.875C400.499 591.807 402.013 591.348 402 590.218C401.988 589.194 400.708 588.703 399.666 588.478ZM319 374.983L318.53 370.943C312.764 371.916 306.882 372.23 301.042 371.874L300.867 371.863C299.151 371.758 297.343 371.647 295.835 372.44C294.274 373.259 293.357 375.479 294.535 376.773C295.31 377.625 296.608 377.733 297.772 377.782L298.314 377.805C305.376 378.096 312.777 378.225 319 374.983ZM243.824 332.697C242.836 329.749 246.411 326.963 249.514 327.277C252.149 327.543 254.379 329.139 256.56 330.7C256.639 330.756 256.717 330.812 256.796 330.868L257.718 331.519C264.99 336.553 273.677 338.969 282.324 341.036L285.286 341.735C289.812 342.794 290.644 348.668 290.425 353.385L290.396 353.905C290.369 354.336 290.331 354.796 290.063 355.136C289.522 355.821 288.449 355.62 287.616 355.35L286.753 355.071C272.369 350.392 257.918 344.968 246.159 335.498C245.198 334.724 244.216 333.865 243.824 332.697ZM296.955 102.334L297.504 101.943C288.443 103.221 280.212 109.303 276.367 117.56C268.555 134.337 260.676 151.314 257.074 169.452C255.838 175.677 254.15 183.204 248.082 185.171L247.854 185.251C244.33 186.579 243.326 191.377 244.421 195.016C245.033 197.048 246.081 198.903 247.129 200.76C247.998 202.298 248.867 203.837 249.491 205.48C251.259 210.138 250.926 215.143 250.59 220.178C250.401 223.014 250.211 225.86 250.396 228.658C251.077 238.953 256.918 248.368 264.439 255.475C271.233 261.894 279.356 266.697 287.532 271.287L290.16 272.757C294.672 275.275 299.426 277.861 304.599 277.941C312.732 278.065 319.539 272.065 325.033 266.101L325.837 265.221C342.14 247.292 354.914 226.201 363.222 203.486C364.049 201.225 364.64 198.242 362.708 196.794C359.338 194.268 359.544 189.571 360.02 185.195L360.292 182.801C362.081 166.62 354.181 151.158 346.269 136.84L345.225 134.955C342.936 130.835 340.58 126.715 337.44 123.198C327.598 112.173 310.041 108.861 296.821 115.535C293.726 117.098 290.235 113.024 290.936 109.644C291.592 106.483 294.296 104.25 296.955 102.334ZM256.495 203.457C257.608 196.786 258.727 190.084 258.482 183.412C262.48 194.646 275.955 201.569 287.483 198.314C288.706 197.968 289.903 197.525 291.098 197.083C293.029 196.368 294.958 195.655 296.99 195.355C300.279 194.87 304.134 195.82 305.709 198.733L305.869 199.021C310.453 207.002 322.347 207.612 330.863 203.862C335.261 201.925 339.219 199.179 343.177 196.433C346.973 193.798 350.771 191.163 354.96 189.24C355.655 191.693 355.008 194.231 354.417 196.553C353.9 198.582 353.425 200.445 353.925 201.943C354.24 201.51 354.538 201.087 354.822 200.684C356.648 198.096 357.92 196.293 359.599 197.561C361.539 199.028 361.4 203.064 359.599 205.139C358.96 205.874 358.207 206.527 357.457 207.176C356.092 208.358 354.738 209.532 354.099 211.183C345.888 232.409 333.068 251.86 316.77 267.817C314.773 269.773 312.645 271.727 310.007 272.671C304.392 274.681 298.339 271.645 293.156 268.703L290.668 267.28C275.696 258.651 260.123 248.22 255.764 231.756C253.316 222.508 254.9 213.014 256.495 203.457ZM303.585 204.614L304.159 204.221C303.572 201.194 298.718 201.423 296.368 203.503C292.333 207.073 291.81 213.821 295.416 217.796C299.023 221.771 306.222 222.052 309.998 218.226C310.079 216.549 307.88 215.654 306.151 215.82C305.607 215.872 305.061 215.979 304.516 216.085C303.327 216.316 302.144 216.547 301.005 216.213C298.438 215.462 297.578 212.104 298.621 209.716C299.573 207.535 301.574 205.999 303.585 204.614ZM252.119 187.777L253.003 187.775C254.288 187.791 256.053 187.964 255.764 189.24C254.835 193.351 254.411 198.144 254.186 201.429L253.996 204.439C253.447 204.651 251.876 202.494 250.971 201.251C250.786 200.997 250.629 200.782 250.514 200.632L250.396 200.485C250.157 199.965 249.834 199.349 249.48 198.674C247.244 194.412 243.763 187.777 252.119 187.777ZM266.545 151.844C267.254 149.484 268.059 146.977 269.984 145.428C271.91 143.878 275.324 143.94 276.405 146.156C278.937 151.35 284.736 154.102 290.325 155.664C306.832 160.277 325.258 157.602 339.749 148.489C342.57 146.715 346.51 147.902 348.793 150.322C350.886 152.54 351.895 155.52 352.653 158.486L352.854 159.294C354.548 166.268 355.602 173.397 355.999 180.561C356.062 181.699 356.086 182.924 355.454 183.875C355.073 184.449 354.492 184.857 353.925 185.252L353.042 185.863C350.531 187.592 347.934 189.254 345 190.055C341.721 190.951 337.882 190.576 335.413 188.251L335.123 187.984C328.867 182.357 318.749 181.478 311.628 185.996C310.712 186.577 309.827 187.242 308.942 187.907C306.673 189.61 304.407 191.312 301.638 191.597C297.505 192.023 294.161 189.242 290.833 186.474C289.658 185.496 288.484 184.52 287.278 183.687C280.61 179.083 271.195 178.806 264.265 183.01C259.294 179.437 260.523 171.883 262.279 166.04L266.545 151.844ZM340.186 176.761L318.636 174.995C317.405 174.901 316.105 174.869 315.074 175.482C313.969 176.14 313.548 177.857 314.627 178.55C315.045 178.819 315.576 178.872 316.082 178.917L337.939 180.855C340.95 181.1 344.563 180.975 346 178.534C344.514 177.174 342.261 176.931 340.186 176.761ZM290.92 177.461C291.248 176.199 290.516 174.907 289.651 173.915C284.613 168.138 273.85 168.772 269.561 175.098C268.726 176.329 268.725 178.678 270.234 178.582C274.365 173.347 283.666 173.288 287.866 178.469C288.694 179.49 290.592 178.723 290.92 177.461ZM350 173.656C350.351 173.298 350.238 171.841 349.256 171.282C348.529 170.868 346.473 170.668 346.129 171.377C345.355 172.933 348.924 174.754 350 173.656ZM349.891 168.39C350.26 167.485 348.514 164.947 347.509 164.942C346.625 164.939 345.525 167.524 346.113 168.375C346.716 169.247 349.561 169.201 349.891 168.39ZM343.78 166.926C344.986 166.747 345.948 164.096 345 163.397C344.058 162.703 341.319 163.431 341.019 164.299C340.709 165.195 342.486 167.118 343.78 166.926ZM270.488 163.804C271.739 165.545 274.895 165.228 275.776 163.274C276.656 161.319 274.804 158.741 272.673 158.955C270.542 159.169 269.238 162.063 270.488 163.804ZM345.035 159.337C346.417 159.926 348.483 159.781 348.603 158.346C348.491 156.426 346.379 156.124 345 156.359C343.897 156.547 343.917 158.861 345.035 159.337ZM341.654 159.29C342.653 158.735 342.391 155.71 341.276 155.329C340.069 154.915 336.821 155.733 337.009 157.7C337.197 159.668 340.519 159.921 341.654 159.29ZM274.576 158.216C275.78 159.534 278.363 158.965 278.902 157.263C279.441 155.56 277.658 153.607 275.914 153.991C274.17 154.375 273.372 156.897 274.576 158.216ZM270.993 154.29C271.956 153.474 272.093 152.009 271.532 151.241C270.399 149.691 269.451 149.698 268.677 150.461C267.713 151.412 267.668 153.014 268.055 154.67C268.2 155.29 270.013 155.121 270.993 154.29ZM325.429 230.726C322.425 234.664 317.938 237.486 313.04 238.518C312.91 238.545 312.78 238.571 312.65 238.598C311.638 238.803 310.599 239.013 309.818 239.662C308.937 240.395 308.641 241.935 309.57 242.609C310.088 242.985 310.792 242.969 311.434 242.911C319.786 242.161 327.538 236.744 331 229.241C330.759 228.054 329.102 227.646 327.988 228.162C327.009 228.615 326.346 229.502 325.698 230.367C325.608 230.487 325.519 230.607 325.429 230.726Z" fill="#44D9E8"/>
<path fill-rule="evenodd" clip-rule="evenodd" d="M246.159 335.498C245.198 334.724 244.216 333.864 243.824 332.697C242.836 329.749 246.411 326.963 249.514 327.277C252.149 327.543 254.379 329.139 256.56 330.7C256.947 330.977 257.332 331.252 257.718 331.519C265.821 337.129 275.681 339.487 285.286 341.735C289.98 342.833 290.701 349.109 290.396 353.904C290.369 354.336 290.331 354.796 290.063 355.136C289.522 355.821 288.449 355.62 287.616 355.35C272.948 350.607 258.153 345.157 246.159 335.498ZM244.127 587.056C249.06 580.426 251.244 571.081 247.299 563.823L223.577 520.175C214.822 504.065 205.79 486.644 207.826 468.436C209.194 456.196 215.457 445.117 221.589 434.424L235.242 410.618C220.285 426.684 205.395 444.887 203.122 466.684C201.425 482.963 207.078 499.104 213.971 513.959C221.971 531.196 231.734 547.553 241.477 563.875C245.01 569.793 243.448 577.665 239.495 583.313C235.541 588.961 229.615 592.871 223.834 596.644L214.422 580.584C204.864 564.278 195.113 547.725 181.298 534.8C178.929 532.583 176.438 530.469 173.947 528.355C167.704 523.057 161.464 517.762 157.165 510.87C145.705 492.498 151.191 468.594 158.727 448.307C173.896 407.47 196.667 368.444 230.35 340.703C233.503 338.105 238.145 335.573 241.34 338.119C254.344 348.475 269.733 355.838 285.974 359.474C288.405 360.019 288.531 363.399 288.059 365.836C284.968 381.77 280.687 397.563 276.411 413.339C267.719 445.405 259.047 477.4 260.43 510.356C261.549 536.999 269.241 562.864 276.848 588.443C277.005 588.971 277.162 589.5 277.319 590.028C281.547 604.248 285.707 619.642 280.702 633.61C279.539 636.858 277.753 640.09 274.774 641.846C272.443 643.22 269.656 643.534 266.964 643.819L253.318 645.26C237.546 646.926 221.41 648.571 205.982 644.909C190.553 641.247 175.697 631.195 170.728 616.186C167.122 605.299 169.083 593.568 170.989 582.168C171.187 580.986 171.384 579.807 171.574 578.634C173.771 565.074 175.01 551.36 175.279 537.628C192.779 557.34 207.804 579.232 219.893 602.633C220.764 604.318 223.321 603.539 224.938 602.541C231.978 598.193 239.194 593.687 244.127 587.056Z" fill="#170229"/>
<path fill-rule="evenodd" clip-rule="evenodd" d="M358.411 338.435C358.525 337.31 357.876 336.266 357.253 335.324C355.425 332.558 353.509 329.705 350.692 327.963C347.875 326.221 343.883 325.918 341.453 328.17C336.776 332.502 331.335 336.003 325.459 338.463C321.595 340.08 319.648 344.654 319.808 348.849C319.968 353.044 321.796 356.969 323.591 360.762C323.903 361.423 324.317 362.164 325.036 362.288C325.637 362.392 326.204 362.012 326.697 361.652C337.268 353.913 347.84 346.174 358.411 338.435Z" fill="#00160A"/>
<circle cx="274" cy="233" r="7" fill="#EF3BDD"/>
<path fill-rule="evenodd" clip-rule="evenodd" d="M256.762 583.199C257.651 585.417 254.733 595.713 247.119 603.092C239.504 610.472 229.619 612.223 228.809 610.201C227.999 608.179 239.077 604.204 246.069 597C253.061 589.796 255.873 580.982 256.762 583.199Z" fill="#00160A"/>
<path fill-rule="evenodd" clip-rule="evenodd" d="M503.264 116.974C505.797 117.213 508.143 115.75 510.243 114.318C516.08 110.335 522.367 104.906 521.983 97.8649C521.862 95.6288 521.053 93.525 520.244 91.4188C519.898 90.5174 519.551 89.6155 519.258 88.7027C517.729 83.9356 517.672 78.9092 517.615 73.87C517.569 69.7366 517.522 65.5945 516.662 61.5796C516.354 60.1398 515.737 58.5042 514.319 58.0947C513.519 57.864 512.668 58.0984 511.87 58.332L486.371 65.7918C481.571 67.1961 480.543 73.4095 480.405 78.3949L480.031 91.9598C478.515 92.1492 477.077 91.557 475.638 90.9647C475.089 90.7386 474.54 90.5126 473.987 90.33C468.538 88.5321 461.95 91.5551 459.775 96.8505C457.601 102.146 460.172 108.908 465.321 111.435C470.47 113.962 477.413 111.87 480.296 106.923C482.254 103.564 482.37 99.4849 482.435 95.6L482.555 88.3055C482.6 85.5793 485.668 84.0675 488.261 83.2008C496.247 80.5313 504.307 78.0812 512.429 75.8541C513.231 75.634 514.229 75.4689 514.777 76.0932C515.074 76.4306 515.138 76.9058 515.19 77.3512L516.301 86.9015C516.466 88.3179 516.306 90.2225 514.908 90.5228C508.157 91.9729 502.155 96.5699 499.01 102.7C497.67 105.312 496.824 108.311 497.418 111.185C498.011 114.058 500.335 116.699 503.264 116.974ZM513.578 62.3434C513.863 62.6318 513.945 63.0567 514.014 63.4552L514.788 67.9383C514.992 69.1225 515.186 70.3945 514.67 71.4814C513.856 73.1984 511.694 73.715 509.818 74.0839C505.484 74.9361 501.206 76.067 497.02 77.4672C493.521 78.6374 490.09 79.9943 486.659 81.3506C486.369 81.4653 486.079 81.58 485.789 81.6946C484.975 82.0161 483.853 82.2479 483.387 81.5118C483.27 81.3275 483.221 81.1096 483.181 80.8955C482.363 76.5483 484.376 71.8064 488.084 69.3516C490.126 67.9996 492.54 67.3363 494.907 66.6936L511.551 62.1754C512.239 61.9887 513.078 61.8385 513.578 62.3434ZM479.998 98.0932C479.928 102.295 478.912 107.099 475.175 109.133C472.209 110.746 468.337 109.971 465.646 107.944C462.486 105.565 460.751 100.826 463.061 97.6372C464.023 96.3091 465.526 95.4482 467.081 94.885C470.655 93.5913 474.738 93.7213 478.219 95.2397C478.774 95.4821 479.342 95.7815 479.663 96.289C479.996 96.8154 480.008 97.473 479.998 98.0932ZM347.501 391.73C347.933 393.056 349.814 393.005 351.176 392.686L363.561 389.79C363.216 386.575 362.589 383.389 361.691 380.282C361.426 379.366 361.107 378.408 360.386 377.781C359.271 376.811 357.601 376.945 356.132 377.135L337.11 379.603C335.803 379.772 334.06 380.618 334.558 381.833C338.912 392.48 342.347 403.501 344.812 414.732C345.283 416.881 345.204 419.898 343.048 420.369C336.804 421.734 331.461 426.617 329.559 432.698C328.974 434.569 328.708 436.647 329.465 438.455C329.875 439.435 330.564 440.278 331.335 441.01C335.039 444.526 340.945 445.503 345.59 443.37C350.235 441.236 353.325 436.125 353.047 431.037C352.942 429.115 352.405 427.245 351.872 425.395L339.712 383.217L355.812 381.958C357.43 382.049 358.113 384.338 357.258 385.709C356.404 387.08 354.707 387.651 353.119 387.969C352.89 388.015 352.659 388.058 352.428 388.102C351.052 388.36 349.652 388.623 348.536 389.443C347.814 389.973 347.224 390.879 347.501 391.73Z" fill="#EF3BDD"/>
</svg>
