<svg width="642" height="598" viewBox="0 0 642 598" fill="none" xmlns="http://www.w3.org/2000/svg">
<path fill-rule="evenodd" clip-rule="evenodd" d="M166.67 558.945C165.743 559.508 164.545 559.323 163.832 558.505C159.547 554.752 154.711 551.722 150.309 548.111C147.955 546.155 145.445 544.393 142.805 542.844C140.875 541.731 139.425 539.992 137.577 538.723L137.062 538.39C134.801 537.008 132.966 535.014 130.785 533.464C128.946 532.155 127.622 530.215 125.779 528.813C123.121 526.742 120.57 524.539 118.134 522.211C116.393 520.909 114.903 519.299 113.74 517.462C113.479 516.937 112.999 516.825 112.653 516.501C111.118 515.155 109.667 513.716 108.307 512.193C105.521 508.889 102.418 505.855 99.6867 502.514C97.7056 500.088 95.5893 497.794 93.5399 495.433C91.5696 493.16 89.6442 490.848 87.7637 488.498C83.3413 483.012 79.2439 477.272 75.4926 471.307C72.6139 466.601 70.0034 461.736 67.6737 456.736C65.6209 452.76 63.8353 448.652 62.3288 444.439C61.2364 441.038 59.6433 437.774 58.8763 434.336C58.1527 431.092 57.2473 427.868 56.4483 424.666C54.5966 417.251 53.0462 409.785 51.7972 402.267C51.057 397.842 50.4068 393.373 49.5991 388.975C48.6512 383.815 48.2967 378.587 47.3655 373.427C46.8227 370.405 46.6605 367.205 46.3047 364.104C45.9596 361.101 46.0368 358.068 45.5038 355.089C45.0759 352.098 44.8002 349.089 44.6777 346.071C44.4705 343.269 43.5985 340.324 44.5233 337.451C43.0734 335.44 44.0685 333.11 43.8344 330.953C43.6002 328.797 43.5095 326.602 43.151 324.505C42.7809 322.343 42.4639 320.13 42.1592 317.982C41.5394 313.621 40.5064 309.344 39.8812 305.01C39.4976 302.365 38.3474 300.027 37.7484 297.488C36.5742 292.631 34.9196 287.903 32.8091 283.373C31.926 281.571 31.3219 279.645 31.0173 277.661C30.824 276.15 29.4153 275.507 29.0007 274.13C28.3301 271.902 27.2848 269.789 26.4409 267.614C26.292 266.875 25.756 266.274 25.0389 266.042L25.6155 264.132C25.3084 263.353 24.9936 264.277 24.5726 264.03C24.1421 263.17 23.4563 262.351 23.579 261.178C23.6965 260.075 22.4451 259.749 22.1783 258.722C21.5895 256.491 19.1254 254.972 19.6418 252.271C17.9486 250.738 17.3744 248.516 16.2216 246.649C15.6143 245.777 15.3375 244.719 15.4352 243.665L15.4645 243.422C15.6568 242.392 13.6256 242.273 14.41 240.958C11.7665 238.13 11.6353 234.247 10.5728 230.862C8.86958 225.431 6.7426 220.099 5.95068 214.341C5.55368 211.461 4.30579 208.583 3.84638 205.656C2.81198 199.076 1.32702 192.557 1.08271 185.853C0.983109 183.083 0.266125 180.336 0.192576 177.563L0.108357 174.359C-0.0108127 169.552 -0.0787791 164.742 0.160912 159.935C0.044845 158.82 0.243418 157.695 0.734114 156.687C1.45533 155.569 0.241842 154.558 0.346893 153.327C0.464458 151.866 1.27855 150.606 1.13482 149.008C1.05564 148.127 1.52043 146.817 1.4312 145.795C1.14236 142.474 2.79318 139.392 2.42618 136.08C2.49513 134.836 2.84063 133.624 3.43748 132.531C4.75966 128.766 4.28958 124.6 6.12298 121.019C6.99805 119.247 7.44881 117.299 7.44225 115.327L7.42816 114.565C7.42145 114.001 7.44678 113.457 7.77928 113.137C9.17081 111.799 9.12601 109.909 9.70507 108.297C10.325 106.569 10.3389 104.647 11.1961 102.927C12.2422 101.28 12.9874 99.4602 13.397 97.5524C13.6998 94.2478 15.3098 91.5184 16.5134 88.6133C17.1141 87.1618 17.154 85.3171 19.0115 84.4861C19.9564 84.0633 18.1601 82.6029 19.5154 81.979L19.673 81.9155C20.6477 81.5707 20.7518 80.7554 20.6727 79.743C20.6003 78.8171 22.2524 78.4774 21.9703 77.4936C21.6883 76.5098 21.7217 75.1557 22.2672 75.0801C23.632 74.8838 22.5676 73.2468 23.698 73.1712C23.8147 73.1321 23.9067 73.0411 23.9469 72.9248C24.9164 69.5883 27.5947 67.1819 28.7351 63.8777C29.5023 61.92 30.6327 60.1249 32.0667 58.5871C33.2962 57.075 34.3984 55.4637 35.3619 53.7697C37.1106 50.9439 39.6338 48.7711 41.3362 45.9521C41.798 45.1894 43.8673 45.8366 43.0866 43.9663C44.3987 43.7476 44.2495 42.3998 44.8872 41.6869C45.5411 41.1785 46.2696 40.774 47.0468 40.4877C47.8205 38.7675 48.9886 37.2539 50.4565 36.0695C53.1409 33.3199 55.9965 30.7429 59.0061 28.3538L61.4898 26.3934C64.8089 23.7806 68.2049 21.2512 72.2345 19.7572C73.2708 19.3734 73.0272 18.2554 73.8995 17.8267C78.9616 15.3045 83.749 12.2747 89.2871 10.6633C91.6047 9.98722 93.7621 8.44257 96.1346 7.73232C100.896 6.30502 105.428 4.24775 110.462 3.49902C113.441 3.05743 116.462 2.12443 119.501 1.59601C125.776 0.321476 132.182 -0.192786 138.58 0.0643267L142.511 0.31616C146.005 0.540834 149.498 0.796319 152.976 1.3116C154.622 1.55584 156.102 2.35305 157.635 2.42968C159.128 2.50252 160.59 2.88376 161.928 3.54939C162.989 4.05855 164.102 3.2636 165.212 3.99234C166.033 4.73277 167.16 5.02079 168.229 4.77415L168.441 4.71767C169.069 4.48786 170.082 5.29625 170.916 5.6455C172.15 6.04537 173.339 6.57257 174.465 7.21857C175.319 7.81412 176.751 6.63781 177.14 8.22539C178.479 7.51768 179.478 8.50081 180.576 8.92823L180.726 8.98286C181.829 9.35499 182.883 9.87804 183.958 10.3345L187.542 11.856C188.544 12.4582 189.635 12.8972 190.774 13.1564C192.893 13.2803 194.572 14.5822 196.614 14.9777C198.87 15.5911 201.041 16.4814 203.078 17.6284C204.917 18.505 207.027 18.0773 208.859 19.1513C210.581 20.3241 212.529 21.126 214.578 21.5061C216.68 21.7136 218.435 23.0627 220.312 23.1775L220.665 23.184C223.066 23.1342 224.678 24.8484 226.774 25.0787C231.343 25.5804 235.598 27.5165 240.072 28.1047C245.715 28.8466 251.231 30.285 256.942 30.7559C260.653 31.0622 264.39 31.251 268.105 31.5589C271.827 31.7218 275.556 31.5682 279.252 31.0999C283.881 30.6395 288.465 29.8061 292.96 28.6079C297.499 27.4536 301.809 25.6238 306.309 24.4035C308.363 23.8462 310.266 22.9246 312.352 22.4261C314.596 21.8896 316.636 20.4764 318.882 19.9314C324.505 18.5669 329.664 15.6918 335.464 14.9549C342.15 12.0377 349.462 11.5284 356.402 9.57062C359.629 8.6571 363.088 8.59035 366.462 8.1732L367.183 8.07802C373.156 7.24523 379.17 7.01831 385.186 6.73439C390.705 6.51876 396.232 6.66665 401.732 7.17712C405.692 7.5114 409.637 8.03794 413.6 8.29777C415.207 8.40433 416.556 9.79001 418.268 9.10624C421.568 10.6622 425.409 10.1567 428.678 11.8342C431.097 11.558 433.108 12.7841 435.112 13.7803C436.64 14.5438 438.335 13.8175 439.841 14.8102C441.187 15.8466 442.784 16.5092 444.469 16.7313C447.319 16.7949 449.556 18.2405 451.989 19.2253C457.642 21.5144 463.257 23.9013 468.833 26.3859C470.658 27.2013 472.836 27.3951 474.215 29.1469C475.424 30.684 477.832 30.2787 478.975 32.0438C479.392 32.6865 480.238 31.7329 480.94 32.2868C482.309 33.3673 484.347 33.1731 485.502 34.8903C486.357 36.1614 488.462 35.7746 489.39 37.2908L489.509 37.5097C490.025 38.582 492.226 36.6571 492.386 38.8706C494.514 39.4169 496.094 40.9098 497.872 42.0557C499.346 43.0024 501.29 42.9574 502.482 44.5986C503.497 45.9974 505.963 45.5348 506.71 47.4948C509.299 47.9733 510.869 50.2545 513.25 51.2016C515.039 52.0257 516.709 53.0859 518.216 54.3538C520.636 56.1937 523.11 57.9623 525.616 59.6669C526.513 60.294 527.374 60.9703 528.196 61.6925C528.659 62.086 528.666 62.7779 529.375 63.0709C533.86 64.9299 537.305 68.3471 540.872 71.4342C542.939 73.0124 544.875 74.753 546.663 76.6392L547.253 77.2733C547.764 77.898 548.969 78.3739 549.371 79.1883C550.493 81.4559 552.526 82.827 554.315 84.3852L554.611 84.6468C555.621 85.5112 556.5 86.5178 557.22 87.6349C557.357 87.8478 557.355 88.2567 557.526 88.3325C560.703 89.7399 562.201 92.8376 564.402 95.2068C566.532 97.4979 568.235 100.185 570.416 102.414C574.814 106.909 619.193 177.342 623.587 188.921L624.845 192.235C626.099 195.554 627.328 198.891 628.407 202.264L629.327 205.135C630.243 208.011 631.134 210.903 631.859 213.813L632.831 217.697C634.767 225.469 636.627 233.265 637.989 241.177C639.203 248.236 639.988 255.331 640.79 262.435C641.302 266.996 641.612 271.541 641.745 276.12C641.956 283.436 642.004 290.754 641.89 298.072C641.772 304.961 640.179 311.691 640.432 318.566C638.784 322.471 639.767 326.902 637.988 330.779C638.422 332.924 637.362 334.885 636.939 336.849C636.503 338.878 636.583 341.098 635.404 343.023C634.865 343.898 635.528 345.18 634.859 346.245C634.177 347.11 633.918 348.234 634.152 349.31C632.655 349.703 634.132 350.975 633.397 351.782C632.604 352.658 632.125 353.774 632.036 354.952C631.982 357.616 630.069 359.747 629.918 362.135C629.768 364.579 628.229 366.401 627.855 368.549L627.799 368.955C627.505 371.809 625.12 373.577 624.583 376.231C624.535 376.464 623.947 376.582 623.604 376.76C623.595 377.377 624.281 377.358 624.669 377.907C623.804 378.427 623.015 379.064 622.325 379.799C621.713 380.867 621.212 381.996 620.832 383.167L622.304 385.966C621.352 387.252 621.372 388.577 620.237 389.517C619.743 389.927 619.711 391.443 619.481 392.453C619.179 393.78 617.321 394.275 617.549 395.404C617.654 396.676 617.323 397.946 616.611 399.006C612.242 409.42 607.83 419.816 603.373 430.193C602.901 431.306 602.876 432.807 601.331 433.235C602.605 435.121 600.059 435.252 599.796 436.523C599.387 437.681 598.727 438.736 597.865 439.611C596.563 441.303 596.066 443.6 595.141 445.603C594.733 447.062 593.923 448.377 592.802 449.396C591.679 450.213 591.514 451.952 590.555 453.208C589.252 454.7 588.152 456.36 587.287 458.142C586.888 459.463 586.126 460.644 585.088 461.553C584.185 462.255 584.501 464.096 582.92 464.467C582.08 466.821 580.291 468.514 578.846 470.451L578.579 470.817C574.985 475.823 571.094 480.609 566.926 485.149C563.454 488.976 560.047 492.862 556.538 496.655C555.399 497.877 554.203 499.086 552.987 500.223C548.713 504.441 544.21 508.42 539.498 512.142C535.226 515.327 531.092 518.713 526.667 521.72C524.314 523.32 522.247 525.429 519.932 527.161C514.473 531.249 508.914 535.183 503.154 538.831C498.231 542.24 492.989 545.164 487.503 547.562C486.024 548.139 484.716 549.138 483.268 549.812C481.551 550.399 479.878 551.108 478.262 551.932C476.326 553.203 474.114 553.839 472.182 554.992C470.682 555.887 468.713 554.879 467.425 556.736C466.486 558.088 464.04 557.101 462.881 558.669C460.522 558.333 459.025 560.416 456.762 560.788L456.463 560.827C454.11 561.044 451.874 562.521 449.588 563.445C447.354 564.504 445.051 565.412 442.695 566.163C438.324 567.275 434.339 569.442 430.049 570.63C425.959 571.761 422.1 573.792 417.809 574.068C416.795 574.132 416.825 575.023 416.091 575.271C415.327 575.532 414.609 575.144 413.902 575.475C411 576.717 408.003 577.724 404.94 578.487C400.633 579.713 396.28 580.821 391.995 582.078C385.337 583.922 378.586 585.413 371.771 586.547C367.343 587.354 362.888 588.005 358.445 588.703L352.251 589.68C349.153 590.167 346.054 590.641 342.951 591.06C339.003 591.59 335.024 591.854 331.071 592.339C327.941 592.717 324.818 593.228 321.703 593.737C317.395 594.442 313.054 594.995 308.755 595.671C302.662 596.595 296.521 597.179 290.363 597.418C287.246 597.63 284.119 597.644 281 597.459C279.263 597.308 277.518 597.267 275.776 597.334L274.906 597.377C270.853 597.65 266.979 596.828 263.027 596.491C261.812 596.382 260.691 596.015 259.554 595.794L259.066 595.709C258.086 595.562 257.145 595.345 256.193 595.139L255.477 594.988C252.098 594.301 248.837 593.024 245.368 592.78L244.715 592.747C244.468 592.746 244.223 592.687 244.002 592.575C240.613 590.658 236.629 590.514 233.117 588.902L232.502 588.602C229.243 586.909 225.331 586.93 222.121 584.99C219.664 585.391 217.839 583.54 215.652 583.144C210.004 582.12 205.058 579.32 199.855 577.183L199.175 576.908C193.745 574.759 188.416 572.355 183.03 570.096C179.342 568.285 175.809 566.176 172.465 563.79C171.765 563.125 170.982 562.553 170.135 562.089C168.588 561.578 167.329 560.436 166.67 558.945Z" fill="#6F42C1"/>
<path fill-rule="evenodd" clip-rule="evenodd" d="M245.33 254.685C241.527 270.307 232.05 282.487 217.35 292.343C221.106 281.451 225.96 268.705 229.716 257.813C226.097 265.244 219.573 272.532 212.312 276.494C216.887 260.1 226.48 247.064 226.48 226.285C226.48 218.813 218.378 213.041 218.694 210.002C219.015 206.928 220.653 204.178 221.927 201.361C229.052 185.599 247.892 261.148 245.33 254.685Z" fill="#170229"/>
<path fill-rule="evenodd" clip-rule="evenodd" d="M535.783 118.176C535.608 118.158 535.434 118.137 535.26 118.113C535.467 117.869 535.638 117.886 535.783 118.176ZM420.798 352.854C420.075 353.474 419.355 354.091 418.637 354.706C418.042 354.706 415.676 350.691 412.385 345.109C409.354 339.966 405.539 333.494 401.603 327.606C398.165 322.461 394.404 317.824 391.707 314.499C389.255 311.475 387.682 309.536 388.03 309.285C395.622 303.821 403.537 298.746 411.446 293.674C424.223 285.482 436.985 277.299 448.348 267.5C478.697 241.329 499.817 208.456 512.461 180.248C523.127 156.453 528.881 137.648 532.091 127.158C533.668 122.002 534.631 118.855 535.26 118.113C528.625 117.202 522.73 112.093 520.94 105.631C519.104 98.9994 521.707 91.3672 527.215 87.2399C533.372 82.6255 535.375 74.3272 535.992 66.6586C536.119 65.078 536.208 63.4832 536.297 61.886C536.639 55.7343 536.984 49.5465 539.522 43.9909C540.514 41.8182 542.221 39.5549 544.61 39.5011C548.423 39.4151 549.791 44.4558 549.943 48.2659L550.628 65.346C552.236 62.484 556.96 63.1951 558.891 65.8499C560.822 68.5048 560.776 72.0626 560.651 75.3429C561.55 68.062 564.46 61.0397 568.976 55.2574C570.393 53.4426 572.525 51.578 574.72 52.2731C577.041 53.0078 577.612 55.9836 577.692 58.4158C578.388 79.5192 572.071 100.795 559.969 118.1C557.634 121.439 556.37 125.307 555.535 129.323C555.844 132.137 555.982 135.172 555.64 137.704C551.74 166.588 545.256 195.123 536.29 222.856C530.956 239.356 524.589 255.855 513.886 269.5C508.242 276.697 501.505 282.951 494.769 289.137C474.125 308.098 449.044 329.561 426.845 348.558C423.838 351.132 420.884 353.66 418.001 356.131C417.848 356.131 418.857 354.99 420.798 352.854Z" fill="#170229"/>
<path d="M196.515 448.182C198.262 453.151 202.654 459.5 202.654 459.5C202.654 459.5 172.088 502.684 160.444 527.356C149.623 550.285 138.696 603.376 105.17 571.5C121.137 526.328 137.211 480.914 160.444 439.004C171.011 419.942 180.242 413.177 180.242 413.177C180.242 413.177 190.406 430.799 196.515 448.182Z" fill="#170229"/>
<path fill-rule="evenodd" clip-rule="evenodd" d="M230.008 191.973C227.744 193.912 229.69 197.7 232.171 199.354C234.651 201.007 237.872 202.259 238.723 205.114C234.943 205.345 231.53 202.149 227.766 202.571C223.605 203.038 221.149 207.997 221.949 212.102C222.748 216.207 225.82 219.471 228.992 222.201C233.935 226.456 239.465 230.031 245.376 232.794C247.54 233.806 249.94 236.864 247.804 237.933C245.817 236.797 243.829 235.661 241.842 234.525C245.161 244.839 248.586 255.363 255.067 264.05C261.548 272.738 271.758 279.413 282.588 278.788C284.675 278.667 287.696 279.116 287.499 281.195C286.095 281.521 284.691 281.846 283.286 282.172C287.625 285.86 293.814 286.762 299.431 285.813C305.049 284.863 310.239 282.273 315.273 279.607C325.369 274.261 335.448 268.3 342.786 259.55C347.821 253.546 351.374 246.44 354.3 239.173C363.558 216.178 366.883 190.829 363.868 166.228C363.716 164.992 362.968 163.356 361.782 163.74C333.047 173.044 300.655 170.483 273.744 156.778C267.921 153.813 262.135 150.14 258.775 144.542C271.231 152.211 284.81 158.058 298.946 161.836C312.802 165.54 327.363 167.253 341.548 165.121C355.733 162.989 369.543 156.803 379.416 146.411C392.873 132.247 397.808 111.487 395.885 92.0565C393.962 72.6265 385.855 54.3075 376.079 37.3989C373.272 48.942 363.312 57.7582 352.189 61.9675C341.067 66.1768 328.859 66.4292 316.978 65.8481C305.098 65.2669 293.18 63.906 281.344 65.0808C274.015 65.8083 266.299 67.7835 261.371 73.2493C253.868 81.5698 255.521 94.3741 257.636 105.37C254.339 103.631 252.521 99.4917 253.473 95.8912C240.307 98.3163 230.726 110.561 227.36 123.501C223.994 136.441 225.628 150.088 227.282 163.355C227.985 168.986 228.687 174.617 229.389 180.248C229.818 183.687 230.359 187.372 232.731 189.901C240.197 197.86 245.422 207.893 247.662 218.567C255.706 204.828 261.303 189.665 264.112 174C264.745 170.472 265.289 166.783 267.322 163.829C269.354 160.874 273.411 158.945 276.621 160.548C263.829 180.052 263.255 206.493 247.444 223.648C244.851 217.133 242.257 210.617 239.664 204.102C237.685 199.131 235.115 193.586 230.008 191.973Z" fill="#170229"/>
<path fill-rule="evenodd" clip-rule="evenodd" d="M418.408 385.615C408.259 392.864 397.801 399.681 387.071 406.041C384.717 422.452 379.239 453.991 375.016 480.573C373.096 492.663 373.096 502.949 371.454 511.403C368.114 528.597 354.091 537.738 337.233 536.905C238.57 532.033 237.099 584.341 233.315 550.552C229.532 516.763 227.821 482.743 228.195 448.745C220.577 454.358 212.959 459.97 205.342 465.583C202.891 461.906 181.48 427.36 182.568 414.77C183.754 401.045 198.978 381.115 216.363 365.424C227.193 355.649 239.851 348.53 247.449 342.489C250.52 340.047 266.517 325.581 270.227 311.453C274.109 296.669 265.791 282.211 273.059 280.275C278.794 278.747 282.46 283.279 288.902 286.164C293.854 288.381 302.028 284.44 303.943 287.575C305.858 290.71 303.317 303.097 308.17 307.858C317.163 316.683 335.726 318.161 337.233 318.001C357.324 315.869 378.349 306.726 384.413 309C405.255 316.817 421.086 356.075 424.471 369.545C425.243 372.618 425.88 375.936 424.73 378.89C423.597 381.798 420.95 383.799 418.408 385.615Z" fill="#170229"/>
<path fill-rule="evenodd" clip-rule="evenodd" d="M394.079 315.829C393.454 315.023 392.849 314.314 392.278 313.688C389.519 310.665 387.562 309.622 388.03 309.285C407.887 294.994 429.951 283.365 448.348 267.5C478.697 241.329 499.817 208.456 512.461 180.248C522.137 158.661 508.378 208.185 476.305 255.833C449.926 295.021 395.157 317.22 394.079 315.829Z" fill="black"/>
<path fill-rule="evenodd" clip-rule="evenodd" d="M418.408 385.615C420.95 383.799 423.597 381.798 424.73 378.889C425.88 375.936 425.243 372.618 424.471 369.545C418.666 346.446 405.799 325.168 388.03 309.285C461.921 272.649 517.848 201.711 536.17 121.383C520.194 167.079 498.754 211.633 466.499 247.759C434.244 283.885 390.19 311.089 341.994 316.204C331.272 317.342 319.314 317.003 311.264 309.839C303.214 302.675 303.463 286.628 313.709 283.273C332.981 276.964 348.383 261.352 357.085 243.058C365.788 224.764 368.273 203.997 367.142 183.775C366.627 174.567 366.115 163.623 373.481 158.062C392.119 143.992 401.039 119.508 399.979 96.1996C398.919 72.8907 388.952 50.7258 375.713 31.5C371.274 45.1337 359.892 56.3095 346.166 60.5102C334.66 64.0318 322.591 62.7865 310.478 61.5367C304.572 60.9272 298.655 60.3167 292.787 60.2571C274.885 60.0753 253.628 68.8784 251.637 86.6462C250.985 92.4627 245.721 95.8222 240.522 99.1403C238.831 100.219 237.148 101.294 235.632 102.447C221.856 112.927 220.626 133.063 222.772 150.224C223.082 152.698 223.433 155.195 223.785 157.703C225.876 172.587 228.024 187.872 221.927 201.361C221.656 201.959 221.37 202.554 221.083 203.15C220.017 205.36 218.947 207.581 218.695 210.002C217.97 216.953 223.524 221.609 229.24 226.399C232.273 228.942 235.352 231.523 237.561 234.505C243.019 241.872 242.894 252.223 239.571 260.766C236.249 269.309 230.185 276.457 224.229 283.429C230.588 270.901 233.858 256.824 233.671 242.779L216.726 271.199C222.665 256.977 226.021 241.684 226.58 226.285L212.855 275.467C220.117 271.506 226.097 265.244 229.716 257.813L218.449 290.49C231.22 282.175 240.917 269.259 245.33 254.685C247.892 261.148 252.244 266.894 257.774 271.116C276.959 285.759 275.488 319.822 255.112 332.761C214.634 358.466 183.677 397.093 160.444 439.003C137.211 480.914 121.137 526.328 105.17 571.5C128.175 518.359 153.149 466.068 180.024 414.77C186.288 432.678 194.816 449.794 205.342 465.583L228.195 448.745C227.821 482.743 229.532 516.763 233.315 550.552C237.811 551.028 238.876 544.445 238.167 539.986C231.382 497.29 230.364 453.683 235.148 410.717C230.632 413.596 230.545 419.597 230.464 425.214C230.449 426.277 230.433 427.327 230.388 428.339C229.769 442.263 219.371 455.203 205.894 458.822C198.943 450.032 191.886 441.057 187.93 430.576C183.975 420.094 183.544 407.672 189.536 398.203C205.628 372.772 228.799 351.859 255.758 338.435C267.752 350.076 281.973 359.42 297.425 365.81C302.337 367.841 307.992 369.563 312.832 367.366C316.176 365.847 318.468 362.722 320.462 359.64C328.013 347.966 333.517 334.974 336.648 321.432C351.129 319.378 365.466 316.315 379.521 312.273C385.208 310.638 390.671 315.251 394.515 319.745C406.438 333.684 415.259 350.254 420.163 367.921C421.162 371.522 421.978 375.48 420.464 378.898C419.247 381.646 416.727 383.561 414.272 385.298C405.087 391.797 395.373 397.549 385.257 402.48C386.323 391.512 383.519 380.207 377.451 371.003C387.014 396.655 381.957 423.865 376.849 451.354C372.946 472.353 369.013 493.515 371.544 514.272L387.071 406.041C397.801 399.681 408.259 392.864 418.408 385.615ZM230.008 191.973C235.115 193.586 237.685 199.131 239.664 204.102L247.444 223.648C256.264 214.079 260.342 201.62 264.445 189.088C267.697 179.154 270.964 169.173 276.621 160.548C273.411 158.944 269.354 160.874 267.322 163.829C265.426 166.585 264.824 169.981 264.238 173.289C264.196 173.526 264.154 173.763 264.112 174C261.303 189.665 255.706 204.828 247.662 218.567C245.422 207.893 240.197 197.86 232.731 189.901C230.359 187.372 229.818 183.687 229.389 180.248L227.282 163.355C225.628 150.088 223.994 136.441 227.36 123.501C230.726 110.561 240.307 98.3163 253.473 95.8911C252.521 99.4917 254.339 103.631 257.636 105.37C255.521 94.3741 253.868 81.5698 261.371 73.2492C266.299 67.7835 274.015 65.8083 281.344 65.0808C290.399 64.182 299.502 64.7673 308.599 65.3522C311.393 65.5318 314.187 65.7115 316.979 65.848C328.859 66.4292 341.067 66.1768 352.189 61.9675C363.312 57.7581 373.273 48.9419 376.079 37.3989C385.855 54.3075 393.962 72.6264 395.885 92.0565C397.808 111.487 392.873 132.247 379.416 146.411C369.543 156.803 355.733 162.988 341.548 165.121C327.363 167.253 312.802 165.54 298.946 161.836C284.81 158.058 271.231 152.211 258.775 144.542C262.135 150.14 267.922 153.813 273.744 156.778C300.655 170.483 333.047 173.044 361.782 163.74C362.968 163.356 363.716 164.992 363.868 166.228C366.883 190.829 363.558 216.178 354.3 239.173C351.374 246.44 347.821 253.546 342.786 259.55C335.449 268.3 325.37 274.261 315.273 279.607C310.239 282.273 305.049 284.863 299.431 285.813C293.814 286.762 287.625 285.86 283.286 282.172L287.499 281.195C287.696 279.116 284.675 278.667 282.588 278.788C271.758 279.413 261.548 272.738 255.067 264.05C248.586 255.363 245.161 244.839 241.842 234.525L247.804 237.933C249.94 236.863 247.54 233.806 245.376 232.794C239.465 230.031 233.935 226.456 228.992 222.201C225.82 219.471 222.748 216.207 221.949 212.102C221.149 207.997 223.605 203.038 227.766 202.571C229.696 202.355 231.533 203.089 233.374 203.825C235.126 204.525 236.881 205.226 238.723 205.114C238.058 202.883 235.945 201.63 233.869 200.4C233.289 200.057 232.712 199.715 232.171 199.353C229.69 197.7 227.744 193.912 230.008 191.973ZM281.332 284.848C286.761 288.93 294.031 290.464 300.649 288.924C297.557 296.792 301.45 306.095 307.955 311.501C314.461 316.907 323.012 319.138 331.369 320.471C331.124 335.294 325.78 349.986 316.441 361.509C313.695 364.897 308.391 364.161 304.225 362.864C287.734 357.732 272.477 348.692 260.064 336.697C261.135 335.141 262.846 334.265 264.563 333.386C266.143 332.577 267.728 331.766 268.827 330.419C269.822 329.199 270.316 327.656 270.752 326.144C275.035 311.303 275.831 295.47 273.059 280.275C275.668 280.316 277.801 282.033 279.886 283.71C280.369 284.099 280.849 284.485 281.332 284.848ZM533.933 90.937C529.66 93.3434 524.84 96.6147 524.732 101.516C524.641 105.702 527.869 108.508 531.198 111.402C533.548 113.444 535.948 115.53 537.265 118.176C530.419 117.469 524.26 112.263 522.423 105.631C520.586 98.9995 523.19 91.3672 528.697 87.2399C534.854 82.6255 536.858 74.3272 537.474 66.6586C537.601 65.0787 537.69 63.4845 537.779 61.888L537.779 61.8859C538.122 55.7342 538.467 49.5465 541.004 43.9909C541.997 41.8181 543.704 39.5549 546.092 39.5011C549.905 39.4151 551.273 44.4558 551.426 48.2659L552.11 65.346C553.719 62.484 558.442 63.1951 560.373 65.8499C562.305 68.5048 562.259 72.0626 562.134 75.3429C563.032 68.062 565.943 61.0397 570.459 55.2574C571.876 53.4426 574.007 51.578 576.203 52.2731C578.523 53.0078 579.095 55.9836 579.175 58.4158C579.871 79.5192 573.553 100.795 561.452 118.1C557.596 123.614 556.659 130.57 555.758 137.251L555.697 137.704C551.797 166.588 545.313 195.123 536.347 222.856C531.013 239.356 524.646 255.855 513.944 269.5C508.299 276.697 501.562 282.951 494.826 289.137C471.386 310.666 447.574 331.791 423.407 352.5C421.352 352.5 422.296 349.168 423.849 347.824C429.094 343.287 434.375 338.783 439.656 334.278C461.843 315.353 484.047 296.414 503.718 274.924C509.451 268.66 514.988 262.15 519.325 254.851C523.499 247.825 526.501 240.173 529.291 232.491C541.556 198.724 550.108 163.61 554.742 127.985C555.075 125.428 555.348 122.658 554.059 120.425C570.144 103.1 578.143 78.5622 575.355 55.0889C569.091 57.9723 567.726 64.9695 566.322 72.174C565.144 78.2118 563.939 84.3952 559.797 88.4251L559.178 71.3709C559.118 69.7338 558.866 67.7811 557.394 67.06C554.966 65.8702 552.869 69.2945 552.623 71.9865C552.377 74.6786 551.905 78.2186 549.238 78.6642C550.112 66.255 549.374 53.7333 547.049 41.5126C541.082 47.0727 540.94 56.148 540.811 64.4179C540.803 64.9283 540.796 65.4356 540.786 65.9388C540.628 74.596 538.379 84.9279 530.257 87.9356C532.216 89.4587 534.422 87.9273 536.675 86.3629C537.648 85.6873 538.63 85.0055 539.605 84.5609C545.014 82.0946 551.209 88.9109 549.697 94.6581C548.185 100.405 541.736 103.675 535.791 103.65C537.039 101.573 539.474 100.316 541.813 99.1068C544.899 97.5126 547.819 96.0037 547.634 92.814C547.472 90.0402 544.47 88.1348 541.691 88.1532C538.912 88.1715 536.354 89.5733 533.933 90.937ZM277.172 190.639C277.244 189.619 278.723 189.468 279.79 189.511C283.074 189.642 286.288 188.678 289.403 187.673L289.843 187.53C292.815 186.569 295.829 185.594 298.96 185.506C302.245 185.413 305.751 186.468 307.719 188.989C307.978 189.321 308.218 189.714 308.161 190.125C308.064 190.828 307.133 191.166 306.417 190.988C305.858 190.85 305.392 190.511 304.929 190.173C304.797 190.077 304.665 189.981 304.532 189.89C300.893 187.407 295.863 188.478 291.678 189.976L291.491 190.043L291.37 190.087C291.157 190.163 290.943 190.241 290.729 190.319L290.722 190.321C286.814 191.737 282.676 193.236 278.72 192.099C277.969 191.883 277.119 191.388 277.172 190.639ZM314.366 239.445C316.863 239.563 319.571 239.623 321.608 238.167C324.45 236.134 324.804 232.054 324.488 228.561C324.301 226.493 323.974 224.439 323.647 222.385C323.198 219.563 322.749 216.741 322.663 213.887C322.516 208.957 323.639 203.685 327.153 200.243C327.347 199.047 325.771 198.19 324.639 198.607C323.507 199.025 322.833 200.179 322.34 201.286C318.97 208.842 319.803 217.397 320.614 225.741V225.741L320.614 225.742L320.614 225.742L320.615 225.743L320.615 225.744L320.615 225.745L320.615 225.746C320.738 227.013 320.861 228.275 320.968 229.528C321.142 231.555 321.122 233.944 319.514 235.178C318.316 236.098 316.748 235.997 315.192 235.897L315.192 235.897C314.682 235.864 314.173 235.832 313.679 235.835C312.644 235.842 311.386 236.232 311.195 237.255C310.924 238.701 312.903 239.375 314.366 239.445ZM308.03 199.515C309.205 199.348 310.204 200.629 310.169 201.838C310.133 203.046 309.371 204.105 308.53 204.958C305.484 208.048 301.074 209.475 296.776 209.5C292.478 209.524 288.262 208.26 284.292 206.583C283.433 206.221 282.558 205.82 281.922 205.13C281.286 204.439 280.946 203.381 281.334 202.521C281.723 201.66 282.993 201.276 283.637 201.958C286.566 205.056 291.115 205.856 295.335 205.928C299.151 205.994 303.507 205.296 305.611 202.051C305.729 201.869 305.845 201.677 305.961 201.482L305.961 201.482L305.961 201.482C306.496 200.588 307.055 199.653 308.03 199.515ZM358.939 204.235C354.182 208.363 346.822 209.65 340.787 207.41C339.12 206.791 337.489 205.865 336.598 204.411C336.249 203.843 336.026 203.148 336.276 202.536C336.68 201.547 338.132 201.286 339.189 201.669C339.986 201.958 340.633 202.493 341.279 203.028L341.279 203.028L341.279 203.028C341.489 203.202 341.699 203.376 341.914 203.542C345.711 206.459 351.686 206.543 355.576 203.733C355.658 203.674 355.74 203.613 355.823 203.552L355.824 203.551C356.446 203.092 357.095 202.612 357.873 202.6C358.756 202.586 359.586 203.674 358.939 204.235ZM199.659 459.5C197.852 460.572 196.565 462.315 195.344 464.021C182.81 481.522 171.745 500.067 162.302 519.399C152.761 538.93 144.891 559.22 137.034 579.482C136.368 581.2 135.714 583.189 136.599 584.805C137.823 587.042 141.344 586.935 143.257 585.244C145.17 583.554 145.893 580.933 146.552 578.472C157.532 537.435 175.774 498.437 199.281 463.011C199.998 461.929 200.662 460.326 199.659 459.5ZM302.986 264.299C303.076 266.325 300.67 267.483 298.684 267.5C296.525 267.517 294.209 266.724 293.037 264.872C291.865 263.02 292.425 260.052 294.453 259.295L280.448 253.898C279.27 253.444 278.024 252.982 276.782 253.193C276.494 253.242 276.211 253.326 275.929 253.411C275.454 253.553 274.981 253.694 274.491 253.663C273.711 253.615 272.899 252.798 273.256 252.087C273.39 251.821 273.65 251.65 273.898 251.49L279.034 248.199C279.617 247.825 280.257 247.437 280.942 247.509C281.626 247.58 282.256 248.37 281.915 248.98C280.906 250.79 283.421 252.473 285.394 252.996C292.024 254.754 298.707 256.52 305.547 256.904C312.386 257.288 319.477 256.199 325.344 252.589C327.147 251.48 329.382 250.114 331.17 251.248C330.481 253.261 328.458 254.377 326.48 255.468C324.266 256.689 322.109 257.878 321.947 260.26C321.779 262.718 319.625 264.868 317.215 264.983C314.805 265.099 312.464 263.163 312.072 260.732C312.011 260.347 311.557 260.197 311.181 260.13C309.447 259.824 307.618 259.664 305.968 260.286C304.317 260.908 302.906 262.504 302.986 264.299ZM300.451 259.938C299.68 258.97 298.063 259.115 297.201 259.999C296.339 260.883 296.119 262.245 296.251 263.486C297.272 264.071 298.64 263.945 299.542 263.183C300.445 262.421 300.822 261.072 300.451 259.938ZM318.792 260.668C318.917 260.177 319.237 259.741 319.663 259.48C319.134 258.54 317.741 258.908 316.792 259.396C316.289 259.654 315.722 260 315.654 260.571C315.57 261.273 316.369 261.812 317.056 261.728C317.743 261.643 318.307 261.154 318.825 260.685L318.792 260.668ZM347.744 193.59C348.399 193.758 349.053 193.927 349.719 194.05C353.171 194.689 356.898 194.049 359.838 192.311C360.62 191.849 359.893 190.641 358.96 190.552C358.239 190.482 357.568 190.777 356.903 191.07C356.708 191.155 356.514 191.241 356.319 191.317C353.812 192.294 351.013 191.731 348.227 191.172C345.32 190.588 342.427 190.006 339.893 191.179C338.979 191.603 338.125 192.37 338.171 193.288C338.218 194.206 339.668 194.916 340.341 194.22C341.421 193.102 343.261 192.818 344.903 193.001C345.869 193.108 346.806 193.349 347.744 193.59L347.744 193.59Z" fill="#44D9E8"/>
<path fill-rule="evenodd" clip-rule="evenodd" d="M300.649 288.924C298.706 289.376 296.708 289.563 294.716 289.499C289.921 289.344 284.472 305.963 294.716 324.918C304.782 343.544 323.744 350.996 326.196 345.1C329.437 337.307 331.23 328.91 331.369 320.471C323.012 319.138 314.461 316.907 307.955 311.501C301.45 306.095 297.557 296.792 300.649 288.924Z" fill="black"/>
<circle cx="264.227" cy="240.5" r="6" fill="#EF3BDD"/>
<circle cx="340.227" cy="242.5" r="6" fill="#EF3BDD"/>
<path fill-rule="evenodd" clip-rule="evenodd" d="M275.308 457.809C277.462 455.303 281.838 456.519 285.151 457.398C293.977 459.74 304.695 457.115 311.265 451.003C317.877 444.852 330.019 452.192 338.685 448.404C343.909 446.12 348.139 439.872 353.405 441.482C359.865 443.457 367.855 441.886 373.132 437.678L373.133 436.427L373.153 433.668C367.902 438.306 359.485 440.113 352.738 438.05C347.472 436.44 343.242 442.687 338.018 444.971C329.352 448.76 317.21 441.419 310.598 447.57C304.159 453.56 293.736 456.201 285.016 454.1L283.276 453.648C280.172 452.852 276.541 452.165 274.641 454.376C268.645 461.35 256.776 464.237 248.04 460.847L249.121 464.434L249.638 464.613C258.269 467.462 269.522 464.538 275.308 457.809ZM267.127 418.572C269.403 416.217 273.689 417.486 276.937 418.407C285.588 420.861 296.386 418.59 303.245 412.874C310.148 407.122 321.831 414.452 330.65 411.016C335.966 408.945 340.506 403.045 345.656 404.713C351.974 406.76 375.316 394.523 375.316 394.523C369.423 394.36 352.167 403.467 345.639 401.545L345.175 401.402C340.025 399.734 335.486 405.634 330.17 407.705C321.35 411.141 309.667 403.811 302.765 409.563C296.043 415.164 285.538 417.458 276.978 415.238L275.272 414.763C272.228 413.926 268.654 413.183 266.647 415.261C260.313 421.818 243.022 418.965 239.851 420.855C239.851 420.855 261.016 424.899 267.127 418.572Z" fill="#EF3BDD"/>
<path fill-rule="evenodd" clip-rule="evenodd" d="M273.506 532.174C275.66 529.669 280.036 530.885 283.35 531.764C292.175 534.106 302.893 531.481 309.464 525.369C316.076 519.218 328.218 526.558 336.884 522.77C342.108 520.486 346.338 514.238 351.603 515.848C358.064 517.823 366.053 516.252 371.33 512.044L371.332 510.793L371.351 508.034C366.1 512.672 357.684 514.479 350.936 512.416C345.671 510.806 341.441 517.053 336.217 519.337C327.55 523.126 315.408 515.785 308.796 521.936C302.357 527.926 291.935 530.567 283.214 528.466L281.474 528.014C278.37 527.218 274.74 526.531 272.839 528.742C266.843 535.716 254.974 538.603 246.239 535.213L247.32 538.8L247.837 538.979C256.467 541.828 267.721 538.904 273.506 532.174ZM265.326 492.938C267.601 490.583 271.888 491.852 275.136 492.773C283.787 495.227 294.584 492.956 301.444 487.24C308.346 481.488 320.029 488.818 328.849 485.382C334.165 483.311 338.704 477.411 343.854 479.079C350.173 481.126 373.514 468.889 373.514 468.889C367.622 468.726 350.366 477.833 343.837 475.911L343.374 475.768C338.224 474.1 333.684 480 328.368 482.071C319.549 485.507 307.866 478.177 300.963 483.929C294.241 489.53 283.737 491.823 275.177 489.604L273.471 489.129C270.426 488.292 266.853 487.549 264.845 489.627C258.511 496.184 241.22 493.331 238.049 495.221C238.049 495.221 259.214 499.265 265.326 492.938Z" fill="#EF3BDD"/>
<path fill-rule="evenodd" clip-rule="evenodd" d="M255.372 108.824C261.155 112.385 282.353 73.2493 313.92 73.2493C380.824 73.2493 385.855 54.3075 376.079 37.3989C373.273 48.942 363.312 57.7582 352.189 61.9675C341.067 66.1768 328.859 66.4292 316.979 65.8481C305.098 65.2669 293.18 63.906 281.344 65.0808C274.015 65.8083 266.299 67.7835 261.371 73.2493C253.868 81.5698 255.521 94.3741 257.636 105.37C254.339 103.631 252.521 99.4917 253.473 95.8912C240.307 98.3163 230.726 110.561 227.36 123.501C223.994 136.441 225.628 150.088 227.282 163.355C227.985 168.986 228.687 174.617 229.39 180.248C229.39 180.248 232.386 134.884 236.452 123.501C241.985 108.004 256.663 110.975 255.372 108.824Z" fill="black"/>
</svg>
