<svg width="652" height="503" viewBox="0 0 652 503" fill="none" xmlns="http://www.w3.org/2000/svg">
<path fill-rule="evenodd" clip-rule="evenodd" d="M455.967 5.64873C526.376 -10.828 591.607 8.7208 626.667 64.5581C661.727 120.395 652.555 208.998 644.961 248.108C637.366 287.218 618.1 323.039 594.189 354.138C549.776 411.9 489.758 456.102 422.662 479.963C355.566 503.824 282.719 508.716 212.797 496.645C173.574 489.874 50.8792 456.702 24.3941 356.594C-2.09113 256.487 -18.853 170.927 38.5011 136.171C95.8552 101.416 135.582 127.556 163.976 140.411C296.625 200.467 385.558 22.1254 455.967 5.64873Z" fill="#EA39B8"/>
<path fill-rule="evenodd" clip-rule="evenodd" d="M525.572 92.1218C535.924 91.3223 547.082 91.8394 555.518 97.8923C563.954 103.945 567.786 117.237 560.859 124.971C568.69 121.909 577.895 127.102 581.818 134.54C585.74 141.977 585.535 150.888 584.355 159.214C581.432 179.832 573.027 199.647 560.234 216.079C559.646 217.811 559.058 219.544 558.47 221.276C573.591 225.174 632.637 248.105 616.683 304.635C600.729 361.165 531.055 382.681 523.923 389.447C511.493 401.24 492.519 402.046 475.394 401.502C433.285 400.166 391.306 394.815 350.209 385.544C346.715 384.756 342.289 384.276 340.275 387.238C325.697 408.672 295.211 410.588 269.357 408.722C236.146 406.326 203.127 401.289 170.712 393.675C152.326 389.356 132.801 383.343 121.347 368.326C107.994 350.819 109.536 326.546 111.703 304.635C102.926 309.515 88.3696 312.158 68.0331 312.563C56.0594 310.121 48.5906 305.781 45.6265 299.543C32.0722 271.014 27.4241 234.252 44.3031 206.132C46.3306 202.754 48.6701 199.425 51.9717 197.276C55.472 194.997 59.7394 194.248 63.8999 193.879C80.3101 192.426 97.1473 196.256 111.314 204.666C111.187 158.623 111.061 112.58 110.934 66.5367C110.927 63.9 110.964 61.1021 112.369 58.8714C114.403 55.6449 118.568 54.6448 122.316 53.945C156.419 47.5789 190.908 43.2854 225.53 41.0961C236.843 40.3808 252.325 43.5292 252.376 54.8643C252.573 98.2732 252.771 141.682 252.968 185.091C253.015 195.423 253.679 194.559 258.519 191.565C255.476 191.881 256.155 186.719 258.461 184.709C267.07 177.205 279.614 176.929 291.034 177.045C316.578 177.307 342.121 177.568 367.665 177.83C392.414 178.083 422.095 181.222 433.3 203.291C432.974 196.732 438.919 190.542 445.486 190.603C452.647 190.669 458.637 184.456 460.727 177.606C462.817 170.756 461.895 163.396 460.955 156.296C449.407 145.115 446.384 126.108 453.893 111.896C461.402 97.6836 478.807 89.4692 494.551 92.7068C504.721 94.7981 515.22 92.9212 525.572 92.1218ZM229.175 305.054C228.835 314.194 228.475 323.456 225.786 332.197L229.175 305.054ZM218.592 192.891C220.969 193.587 223.911 195.695 222.663 197.834C232.991 198.866 229.907 198.388 230.371 186.218C230.843 173.868 230.882 160.213 222.797 150.866C215.643 142.595 203.976 140.008 193.08 139.078C180.362 137.992 167.507 138.514 154.919 140.627C148.777 141.658 142.124 143.434 138.56 148.541C136.565 151.4 135.831 154.929 135.245 158.365C132.94 171.881 132.22 185.666 133.105 199.348C159.583 187.029 190.564 184.689 218.592 192.891ZM448.384 283.626C449.031 282.972 450.012 282.813 450.923 282.688C454.562 282.187 458.201 281.687 461.839 281.186C453.489 277.414 448.427 268.455 446.915 259.418C445.403 250.381 446.88 241.14 448.371 232.1C443.029 238.044 443.414 247.013 444.114 254.974C445.645 272.399 447.737 284.28 448.384 283.626ZM379.682 369.454C380.397 367.126 382.833 365.876 384.617 364.218C387.828 361.234 389.021 356.723 390.068 352.466C393.687 337.757 397.329 322.869 397.284 307.721C397.274 304.512 397.111 301.215 398.174 298.187C399.236 295.159 401.899 292.42 405.108 292.405C408.492 292.388 409.3 287.694 408.997 284.324C407.954 272.703 406.911 261.081 405.868 249.46C405.535 245.748 405.195 242.002 404.069 238.449C399.904 225.316 383.855 217.374 370.888 222.031C369.3 222.601 368.876 224.606 368.696 226.283C366.7 244.872 364.704 263.461 362.708 282.049C362.354 285.352 366.618 287.46 369.838 286.642C373.057 285.824 375.515 283.309 378.299 281.496C381.082 279.684 385.006 278.641 387.562 280.762C390.451 283.16 394.728 280.496 397.237 277.704C399.747 274.912 403.015 271.546 406.584 272.71C402.397 276.715 398.211 280.72 394.024 284.724C392.636 286.053 391.412 288.705 393.166 289.489C397.976 287.783 402.325 284.793 405.64 280.913C407.173 280.864 407.245 283.271 406.39 284.544C403.167 289.341 395.581 290.409 393.628 295.848C389.069 308.543 374.85 316.975 361.524 314.887C358.791 314.459 357.428 318.054 357.099 320.802C355.787 331.756 354.475 342.71 353.163 353.664C352.862 356.183 352.58 358.849 353.618 361.165C355.349 365.03 359.979 366.492 364.084 367.532C369.51 368.907 374.999 370.288 380.545 370.889C382.88 371.141 382.871 370.286 379.682 369.454ZM163.507 349.37C171.26 351.967 179.466 352.847 187.597 353.71C191.045 354.077 194.717 354.405 197.81 352.838C201.451 350.994 203.391 346.997 204.957 343.228C213.69 322.208 218.676 299.638 219.61 276.896C219.743 273.665 215.606 272.238 212.379 272.021C186.617 270.292 161.979 281.617 138.647 292.676C137.529 293.206 136.332 293.811 135.78 294.918C135.368 295.744 135.389 296.71 135.42 297.632C135.838 310.196 136.365 323.21 141.984 334.456C143.502 337.492 145.432 340.415 148.165 342.429C149.82 343.65 151.715 344.497 153.594 345.333C156.855 346.785 160.122 348.237 163.507 349.37ZM330.164 302.871C333.598 284.404 336.018 265.748 337.41 247.016C337.886 240.607 338.235 234.092 336.849 227.818C335.464 221.543 332.122 215.443 326.658 212.061C323.291 209.977 319.35 209.042 315.452 208.346C308.338 207.077 301.101 206.502 293.876 206.63C287.501 206.743 280.81 207.52 275.605 211.204C273.884 212.422 272.321 214.017 271.692 216.029C271.064 218.042 271.593 220.515 273.339 221.697C277.752 224.686 279.55 230.277 280.377 235.542C281.204 240.806 281.403 246.319 283.802 251.078C285.039 253.532 286.813 255.673 288.674 257.696C298.761 268.664 311.919 276.778 326.248 280.867C328.767 281.586 331.972 283.142 331.44 285.707C339.365 290.706 330.032 303.58 330.164 302.871ZM308.324 357.339C311.242 355.567 313.22 352.616 314.962 349.68C322.351 337.22 327.197 323.259 329.115 308.9C302.535 308.78 276.113 298.752 256.148 281.204C255.464 283.947 255.595 286.817 255.688 289.642C256.271 307.277 255.225 324.966 252.567 342.409C251.933 346.567 254.417 350.725 257.832 353.181C261.247 355.636 265.454 356.691 269.584 357.487C278.895 359.28 288.41 360.015 297.886 359.674C301.489 359.544 305.242 359.212 308.324 357.339ZM476.053 205.225C474.504 201.491 473.341 197.281 470.127 194.83C466.912 192.378 460.86 193.578 460.671 197.616C463.852 197.03 466.284 200.957 465.742 204.146C465.2 207.335 462.882 209.87 461.04 212.529C458.495 216.203 456.754 220.362 455.032 224.487C450.935 234.3 449.34 245.146 450.439 255.723C451.086 261.95 452.793 268.346 457.004 272.98C461.214 277.613 468.432 279.93 473.98 277.03C478.746 274.539 481.123 269.048 482.216 263.783C483.309 258.518 483.503 253.007 485.568 248.042C489.377 238.882 498.77 233.349 508.062 229.875C494.094 227.977 481.456 218.245 476.053 205.225ZM437.427 215.133C438.048 217.534 438.908 219.873 439.99 222.105C440.64 218.96 441.683 215.897 443.087 213.009C441.667 212.847 440.236 212.77 438.807 212.778C438.46 212.78 438.093 212.793 437.8 212.979C437.139 213.398 437.231 214.376 437.427 215.133ZM269.06 212.661C268.181 213.369 267.665 214.893 268.593 215.535C270.015 214.111 271.437 212.687 272.859 211.264C272.565 210.899 272.138 210.645 271.677 210.56C271.113 211.538 269.94 211.954 269.06 212.661Z" fill="white"/>
<path d="M515.288 202.462C518.325 202.462 520.788 199.999 520.788 196.962C520.788 193.924 518.325 191.462 515.288 191.462C512.25 191.462 509.788 193.924 509.788 196.962C509.788 199.999 512.25 202.462 515.288 202.462Z" fill="#44D9E8"/>
<path d="M483.788 196.962C485.445 196.962 486.788 195.618 486.788 193.962C486.788 192.305 485.445 190.962 483.788 190.962C482.131 190.962 480.788 192.305 480.788 193.962C480.788 195.618 482.131 196.962 483.788 196.962Z" fill="#44D9E8"/>
<path fill-rule="evenodd" clip-rule="evenodd" d="M199.714 118.038C208.713 118.095 217.713 118.152 226.713 118.209C227.134 118.212 227.587 118.225 227.927 118.474C228.621 118.984 228.344 120.177 227.629 120.658C226.914 121.138 225.988 121.118 225.127 121.088C217.207 120.813 209.263 121.224 201.414 122.316C200.22 122.482 198.961 122.656 197.844 122.202C196.728 121.748 195.874 120.412 196.388 119.321C196.924 118.182 198.454 118.03 199.714 118.038ZM169.618 117.154C170.188 117.723 169.915 118.766 169.281 119.263C168.648 119.76 167.799 119.86 166.998 119.941C159.019 120.749 151.04 121.557 143.061 122.365C142.118 122.46 141.142 122.553 140.239 122.262C139.337 121.971 138.52 121.191 138.499 120.243C138.477 119.265 139.307 118.434 140.235 118.122C141.162 117.809 142.169 117.897 143.145 117.974C151.32 118.617 159.575 118.246 167.659 116.872C168.337 116.757 169.131 116.669 169.618 117.154ZM168.5 101.839C169.096 102.32 168.884 103.351 168.286 103.83C167.688 104.308 166.873 104.388 166.11 104.448L140.486 106.469C139.527 106.545 138.533 106.616 137.629 106.289C136.724 105.962 135.93 105.119 135.982 104.158C136.035 103.185 136.934 102.43 137.881 102.2C138.828 101.97 139.82 102.142 140.784 102.284C149.481 103.569 158.324 102.398 167.079 101.602C167.57 101.557 168.116 101.529 168.5 101.839ZM204.285 96.762C209.632 97.445 215.052 97.5489 220.421 97.0713C222.555 96.8814 225.136 96.7923 226.348 98.5589C224.909 99.7225 222.931 99.8877 221.083 100.004C214.961 100.39 208.839 100.776 202.717 101.162C201.32 101.25 199.579 101.144 199.004 99.8683C198.488 98.7236 199.396 97.347 200.563 96.8833C201.73 96.4196 203.04 96.6029 204.285 96.762ZM158.096 90.2162C158.103 91.141 156.944 91.54 156.029 91.6741L142.574 93.6463C141.613 93.7871 140.621 93.9264 139.683 93.6759C138.745 93.4255 137.868 92.6794 137.781 91.7127C137.673 90.5292 138.784 89.5304 139.944 89.2725C141.104 89.0147 142.306 89.2844 143.485 89.4362C147.549 89.9599 151.649 89.0667 155.745 88.926C156.747 88.8915 158.089 89.2135 158.096 90.2162ZM223.022 86.9954C224.063 87.1118 225.132 87.7329 225.41 88.7429C223.561 90.1412 221.117 90.3958 218.808 90.6004C214.856 90.9507 210.903 91.3011 206.951 91.6514C205.558 91.7748 204.166 91.8982 202.774 92.0216C201.755 92.1119 200.696 92.1969 199.74 91.8356C198.784 91.4743 197.967 90.5256 198.11 89.5134C198.334 87.9184 200.427 87.5044 202.038 87.539C208.012 87.6675 214.062 88.5691 219.916 87.3663C220.942 87.1555 221.981 86.879 223.022 86.9954ZM228.271 71.9079C198.984 75.857 168.956 73.8121 140.073 80.0594C138.36 80.4299 135.969 80.4482 135.526 78.7525C135.566 76.7544 138.15 76.0333 140.143 75.8911C168.242 73.8872 196.34 71.8832 224.438 69.8793C226.087 69.7617 228.4 70.2604 228.271 71.9079Z" fill="#E7EAEE"/>
<path fill-rule="evenodd" clip-rule="evenodd" d="M125.25 375.49C125.556 379.033 120.672 380.233 117.115 380.247C98.6322 380.32 80.1675 383.749 62.8899 390.315C60.2531 391.317 57.4311 392.579 56.1477 395.091C54.4484 398.418 56.3031 402.674 59.3094 404.891C62.3158 407.108 66.153 407.784 69.8397 408.384C165.667 423.988 262.92 430.828 359.988 428.79L361.548 428.756C372.743 428.497 384.168 427.896 394.425 423.463C385.934 417.512 377.444 411.562 368.953 405.611C383.651 402.675 398.816 404.766 413.731 406.239C447.868 409.609 482.331 409.677 516.481 406.444C514.077 410.286 508.791 410.819 504.26 410.916C461.303 411.841 418.293 410.315 375.509 406.348C381.091 410.021 386.673 413.695 392.255 417.368C394.278 418.699 396.516 420.389 396.633 422.808C396.808 426.443 392.342 428.256 388.752 428.85C376.838 430.818 364.718 431.132 352.644 431.308C258.345 432.687 163.929 425.939 70.785 411.165C66.24 410.444 61.5308 409.639 57.7412 407.028C53.9515 404.418 51.3679 399.454 52.9604 395.137C54.5444 390.842 59.3636 388.826 63.7147 387.404C83.6263 380.901 104.35 376.888 125.25 375.49ZM252.376 54.8643C252.573 98.2732 252.771 141.682 252.968 185.091C253.015 195.423 255.05 208.497 265.042 211.128C278.848 204.754 294.41 202.237 309.522 203.931C318.173 204.902 327.156 207.517 333.013 213.957C341.046 222.792 341.059 236.097 340.196 248.008C338.448 272.149 335.004 296.168 329.899 319.828C333.955 319.572 338.092 321.199 340.886 324.15C336.582 326.118 331.455 326.201 327.09 324.371C330.088 340.621 316.849 356.654 300.994 361.309C285.139 365.964 267.934 361.575 253.025 354.449C251.626 359.895 258.911 363.094 264.472 363.916C278.59 366.003 292.707 368.09 306.825 370.176C289.39 370.7 271.898 369.273 254.779 365.93C251.626 370.394 258.765 374.902 264.16 375.775C278.469 378.091 292.779 380.406 307.089 382.722C290.926 382.614 274.77 381.537 258.737 379.497C268.934 388.695 282.853 393.641 296.568 392.939C288.831 395.483 280.236 395.33 272.595 392.512C282.154 405.313 301.711 407.684 315.993 400.524C330.275 393.364 339.6 378.716 344.161 363.405C348.723 348.094 349.166 331.912 349.975 315.956C351.467 286.504 354.318 257.091 359.477 228.055C362.952 208.503 371.486 185.189 391.152 182.426C356.116 180.811 321.047 179.941 285.974 179.814C275.317 179.776 262.078 181.519 258.519 191.565C255.476 191.881 256.155 186.719 258.461 184.709C267.07 177.205 279.614 176.929 291.034 177.045L367.665 177.83C392.414 178.083 422.095 181.222 433.3 203.291C432.974 196.732 438.919 190.542 445.486 190.603C452.647 190.669 458.637 184.456 460.727 177.606C462.817 170.756 461.895 163.396 460.955 156.296C449.407 145.115 446.384 126.108 453.893 111.896C456.017 107.876 459.155 98.2911 476.68 92.1218C488.364 88.0089 499.913 88.4611 511.327 93.4784C532.763 89.3334 547.493 90.8047 555.518 97.8923C567.555 108.524 567.786 117.237 560.859 124.971C568.69 121.909 577.895 127.102 581.818 134.54C585.741 141.977 585.535 150.888 584.355 159.214C581.432 179.832 573.027 199.647 560.234 216.079L558.47 221.276C589.417 229.254 614.452 256.607 619.665 288.138C609.376 264.947 595.448 240.387 571.451 232.154C566.036 237.834 560.468 243.761 557.925 251.185C555.382 258.609 556.756 267.989 563.204 272.461C559.154 273.4 555.104 274.339 551.054 275.278C552.402 277.669 553.75 280.06 555.099 282.451C539.795 294.085 538.034 316.09 538.127 335.313C538.22 354.537 537.87 376.216 523.923 389.447C511.493 401.24 492.519 402.046 475.394 401.502C433.285 400.166 391.305 394.815 350.209 385.544C346.715 384.756 342.289 384.276 340.275 387.238C325.697 408.672 295.211 410.588 269.357 408.722C236.146 406.326 203.127 401.289 170.712 393.675C152.326 389.356 132.801 383.343 121.347 368.326C107.994 350.819 109.536 326.546 111.703 304.635C98.5379 311.955 82.9308 314.788 68.0331 312.563C83.7369 302.297 91.3521 282.656 91.4952 263.894C91.6383 245.133 85.3758 226.947 78.4085 209.527C63.0574 218.431 54.9805 237.199 56.1816 254.904C57.3827 272.61 66.7769 289.044 79.3811 301.537C63.8435 291.731 53.5623 274.066 52.7113 255.713C51.8603 237.359 60.4628 218.818 75.0264 207.617C72.6992 199.659 60.6929 198.686 54.4003 204.086C48.1077 209.485 46.1328 218.249 44.5142 226.382C41.5233 241.408 38.5201 256.785 40.6932 271.951C42.8663 287.117 51.2439 302.298 65.2823 308.435C58.7217 313.164 49.9836 306.356 45.6265 299.543C27.9577 271.912 27.4241 234.252 44.3031 206.132C46.3306 202.754 48.6701 199.425 51.9717 197.276C55.472 194.997 59.7394 194.248 63.8999 193.879C80.3101 192.426 97.1473 196.256 111.314 204.666C111.187 158.623 111.061 112.58 110.934 66.5367C110.927 63.9 110.964 61.1021 112.369 58.8714C114.403 55.6449 118.568 54.6448 122.316 53.945C156.419 47.5789 190.908 43.2854 225.53 41.0961C236.843 40.3808 252.325 43.5292 252.376 54.8643ZM229.253 43.8702C192.545 45.5982 155.97 50.1359 119.953 57.4306C118.42 57.7411 116.797 58.1036 115.683 59.2011C114.165 60.6961 114.048 63.0651 114.028 65.1954C113.598 111.042 113.78 156.894 114.573 202.735C118.981 201.636 123.389 200.537 127.796 199.438C126.073 190.032 124.343 180.498 125.08 170.963C125.817 161.428 129.315 151.732 136.512 145.434C144.301 138.618 155.171 136.692 165.496 135.967C175.424 135.27 185.413 135.432 195.314 136.449C205.421 137.488 216.068 139.733 223.36 146.808C233.892 157.029 234.063 173.587 233.517 188.253C232.07 227.187 230.622 266.121 229.175 305.054C228.835 314.194 228.475 323.456 225.786 332.197C223.096 340.938 217.757 349.245 209.68 353.535C201.754 357.744 192.27 357.625 183.353 356.611C174.84 355.644 166.409 353.956 158.179 351.572C153.18 350.124 148.178 348.38 143.929 345.374C129.871 335.425 128.209 315.573 127.867 298.354C122.469 297.379 117.192 301.488 114.963 306.5C112.735 311.512 112.833 317.207 112.972 322.691C113.317 336.369 113.85 350.731 120.833 362.498C131.607 380.653 154.236 387.361 174.898 391.696C211.571 399.391 248.805 404.409 286.207 406.697C269.515 398.196 254.716 383.645 251.196 365.247C250.239 360.249 250.137 355.132 250.037 350.045C248.088 250.566 246.139 151.088 244.191 51.6091C244.067 45.3181 235.538 43.5744 229.253 43.8702ZM371.55 207.195C370.622 209.46 369.947 211.972 370.565 214.34C371.183 216.708 373.484 218.776 375.898 218.373C386.711 216.573 398.367 221.899 404.083 231.252C408.799 238.97 409.454 248.412 409.985 257.441L414.821 339.686C415.338 348.475 415.593 358.147 410.13 365.051C403.043 374.01 389.735 374.308 378.367 373.196C368.986 372.279 359.118 370.718 351.835 364.735C352.093 368.218 351.078 371.78 349.023 374.604C346.488 378.089 350.581 382.675 354.564 384.323C359.429 386.335 364.718 387.037 369.939 387.714C393.85 390.818 417.776 393.811 441.716 396.693C460.142 398.911 478.863 401.059 497.182 398.082C485.593 394.83 474.503 389.804 464.418 383.233C459.387 379.954 454.522 376.209 451.09 371.28C445.489 363.235 444.309 353.013 443.376 343.254C440.605 314.236 438.542 285.151 437.19 256.032C436.193 234.555 429.306 213.38 417.479 195.425C415.364 192.214 412.776 188.883 409.037 187.989C394.17 184.435 377.351 193.053 371.55 207.195ZM303.38 393.054C304.641 393.269 305.935 393.551 306.975 394.297C308.014 395.042 308.739 396.366 308.419 397.605C308.099 398.844 306.464 399.658 305.432 398.903C304.292 398.07 302.777 398.041 301.418 397.657C300.06 397.273 298.636 396.145 298.88 394.755C299.19 392.993 301.616 392.755 303.38 393.054ZM251.022 393.578C252.586 393.903 254.418 395.018 254.097 396.584C253.815 397.965 252.107 398.425 250.71 398.611C249.144 398.82 247.473 399.014 246.051 398.326C244.63 397.637 243.708 395.695 244.64 394.421C245.269 393.561 246.446 393.332 247.511 393.289C248.687 393.241 249.869 393.338 251.022 393.578ZM344.63 376.177C343.145 377.248 342.125 378.826 341.077 380.328C336.3 387.172 330.246 393.121 323.319 397.777C323.492 398.512 324.593 398.326 325.246 397.948C333.266 393.301 338.99 385.624 344.483 378.158C344.932 377.547 345.303 376.524 344.63 376.177ZM416.347 191.282C420.626 196.335 424.938 201.436 428.069 207.27C431.462 213.596 433.369 220.605 434.904 227.617C443.491 266.845 441.199 307.628 446.764 347.397C447.768 354.573 449.096 361.901 452.83 368.111C457.204 375.386 464.463 380.429 471.859 384.596C477.84 387.966 484.083 390.926 490.652 392.922C501.098 396.096 513.646 396.319 521.654 388.897C526.15 384.73 528.516 378.784 530.363 372.938C538.282 347.882 539.152 320.64 532.85 295.129C533.009 310.387 534.99 325.608 534.536 340.859C534.083 356.111 530.952 371.816 521.987 384.162C520.211 386.608 518.153 388.955 515.469 390.345C511.934 392.177 507.735 392.141 503.783 391.659C496.881 390.816 490.133 388.73 483.96 385.532C479.27 383.103 474.931 380.051 470.727 376.854C465.84 373.138 461.042 369.135 457.618 364.039C454.225 358.989 452.333 353.089 450.833 347.192C439.878 304.135 447.711 257.689 434.712 215.205C431.648 205.192 426.327 194.449 416.347 191.282ZM155 380.703C180.289 384.607 205.579 388.51 230.869 392.414C230.228 394.087 227.916 394.145 226.14 393.908C204.512 391.019 182.884 388.13 161.256 385.24C158.811 384.914 156.366 384.587 153.921 384.26C152.76 384.105 151.319 383.685 151.172 382.524C150.966 380.886 153.369 380.452 155 380.703ZM448.371 232.1C443.029 238.044 443.414 247.013 444.114 254.974C445.645 272.399 447.177 289.824 448.708 307.249C448.78 308.064 448.867 308.924 449.345 309.588C450.127 310.674 451.64 310.863 452.975 310.957C471.157 312.238 489.339 313.519 507.521 314.801C506.162 316.95 503.098 316.982 500.562 316.786C483.445 315.465 466.258 315.036 449.096 315.504C448.8 324.305 450.097 333.157 452.906 341.503C454.123 345.121 458.81 345.891 462.624 346.046C477.167 346.634 491.71 347.223 506.254 347.812C506.923 349.319 504.573 350.26 502.925 350.241C487.976 350.069 473.027 349.897 458.078 349.725C456.03 349.702 455.29 352.602 456.061 354.499C458.078 359.456 464.498 360.524 469.839 360.858L503.261 362.951C504.024 362.999 504.183 364.198 503.626 364.721C503.069 365.244 502.22 365.259 501.456 365.243L462.324 364.413C472.442 376.455 486.633 385.011 502.005 388.339C505.318 389.056 508.829 389.527 512.047 388.465C515.898 387.193 518.738 383.924 520.961 380.532C532.751 362.544 531.967 339.4 530.762 317.926L529.396 293.587C529.873 292.931 530.853 292.703 531.57 293.083C531.847 291.89 530.295 291.181 529.09 290.96C502.492 286.074 475.199 281.181 448.579 285.953C447.729 285.604 447.737 284.28 448.384 283.626C449.031 282.972 450.012 282.813 450.923 282.688C454.562 282.187 458.201 281.687 461.839 281.186C453.489 277.414 448.427 268.455 446.915 259.418C445.403 250.381 446.88 241.14 448.371 232.1ZM317.644 380.064C320.013 380.505 322.749 381.229 323.674 383.454C321.036 385.252 317.572 385.068 314.39 384.813C313.515 384.743 312.558 384.637 311.943 384.01C310.855 382.901 311.667 380.857 313.067 380.183C314.467 379.51 316.117 379.78 317.644 380.064ZM137.212 363.805C164.459 372.366 192.694 377.779 221.175 379.901C223.384 380.066 226.354 381.119 225.93 383.293C195.808 379.886 165.87 374.852 136.291 368.218C134.404 367.795 131.982 366.451 132.685 364.648C133.303 363.065 135.591 363.296 137.212 363.805ZM237.01 377.019C238.401 377.016 239.744 377.493 241.045 377.988C241.706 378.239 242.434 378.564 242.69 379.223C243.237 380.629 241.298 381.634 239.814 381.903C238.815 382.084 237.816 382.266 236.817 382.447C235.975 382.6 235.068 382.745 234.292 382.382C233.032 381.792 232.705 379.974 233.428 378.785C234.15 377.596 235.619 377.023 237.01 377.019ZM365.313 374.016C377.365 376.308 389.71 376.438 401.978 376.56C402.927 376.57 403.183 378.063 402.505 378.728C401.827 379.393 400.769 379.422 399.819 379.403C388.367 379.178 376.901 377.971 365.482 378.871C364.239 378.969 362.948 379.086 361.781 378.649C360.613 378.211 359.618 377.031 359.84 375.805C360.031 374.747 361.062 374.006 362.117 373.801C363.172 373.597 364.257 373.815 365.313 374.016ZM392.541 185.078C378.895 187.116 367.43 199.261 366.183 213.002C365.017 225.836 361.475 238.316 358.953 250.953C350.856 291.535 353.312 333.592 346.153 374.35C348.768 369.589 349.473 364.046 350.132 358.654L367.492 216.485C367.954 212.702 368.426 208.876 369.785 205.315C373.499 195.585 383.098 189.472 392.541 185.078ZM330.495 369.21C331.238 369.446 332 369.756 332.496 370.359C332.991 370.961 333.115 371.934 332.574 372.495C332.165 372.919 331.525 372.995 330.939 373.047C329.021 373.216 327.103 373.386 325.185 373.555C324.15 373.646 323.08 373.734 322.093 373.408C321.106 373.081 320.217 372.226 320.188 371.187C320.14 369.427 322.311 368.542 324.068 368.427C326.234 368.286 328.426 368.553 330.495 369.21ZM370.888 222.031C369.3 222.601 368.876 224.606 368.696 226.283L362.708 282.049C362.354 285.352 366.618 287.46 369.838 286.642C373.057 285.824 375.515 283.309 378.298 281.496C381.082 279.684 385.006 278.641 387.562 280.762C390.451 283.16 394.728 280.496 397.237 277.704C399.747 274.912 403.015 271.546 406.584 272.71C402.397 276.715 398.211 280.72 394.024 284.724C392.636 286.053 391.412 288.705 393.166 289.489C397.976 287.783 402.325 284.793 405.64 280.913C407.173 280.864 407.245 283.271 406.39 284.544C403.167 289.341 395.581 290.409 393.628 295.848C389.069 308.543 374.85 316.975 361.524 314.887C358.791 314.459 357.428 318.054 357.099 320.802C355.787 331.756 354.475 342.71 353.163 353.664C352.862 356.183 352.58 358.849 353.618 361.165C355.349 365.03 359.979 366.492 364.084 367.532C371.795 369.486 379.633 371.453 387.582 371.172C395.531 370.892 403.751 368.049 408.785 361.89C407.391 360.08 404.286 362.401 402.255 361.354C400.269 360.329 401.324 356.917 403.457 356.247C405.589 355.576 407.84 356.642 409.82 357.678C411.064 355.251 412.343 352.654 412.087 349.938C411.831 347.223 409.339 344.538 406.681 345.148C404.934 345.55 404.222 342.522 405.631 341.413C407.039 340.305 409.062 340.664 410.806 341.079C410.903 334.525 411 327.972 411.097 321.419C411.116 320.082 411.121 318.677 410.487 317.5C409.853 316.322 408.349 315.497 407.144 316.078C405.502 316.869 404.078 314.073 405.177 312.618C406.276 311.164 408.351 310.976 410.173 310.912C410.314 305.092 409.937 299.26 409.05 293.506C402.191 296.943 400.991 306.012 400.299 313.653C398.972 328.307 396.303 342.839 392.336 357.008C391.447 360.182 390.447 363.428 388.37 365.988C386.293 368.547 382.871 370.286 379.682 369.454C380.397 367.126 382.833 365.876 384.617 364.218C387.828 361.234 389.021 356.723 390.068 352.466C393.687 337.757 397.329 322.869 397.284 307.721L397.277 306.705C397.253 303.821 397.223 300.896 398.174 298.187C399.236 295.159 401.899 292.42 405.108 292.405C408.492 292.388 409.3 287.694 408.997 284.324C407.954 272.703 406.911 261.081 405.868 249.46C405.535 245.748 405.195 242.002 404.069 238.449C399.904 225.316 383.855 217.374 370.888 222.031ZM421.95 363.766C423.541 364.193 425.084 365.828 424.423 367.336C423.792 368.777 421.81 368.857 420.244 368.708C419.478 368.636 418.662 368.544 418.064 368.06C417.015 367.212 417.163 365.413 418.145 364.489C419.128 363.565 420.647 363.416 421.95 363.766ZM230.819 362.155C231.866 362.381 232.956 362.686 233.708 363.448C234.46 364.21 234.709 365.567 233.961 366.334C233.351 366.96 232.365 366.971 231.491 366.941C230.234 366.897 228.977 366.852 227.72 366.808C226.992 366.783 226.214 366.74 225.63 366.306C224.381 365.377 224.929 363.201 226.27 362.412C227.611 361.622 229.298 361.825 230.819 362.155ZM133.97 350.751C141.006 354.023 148.737 355.451 156.382 356.783C171.858 359.479 187.381 361.907 202.941 364.066C205.118 364.368 207.53 364.796 208.857 366.549C202.831 366.961 196.809 365.957 190.853 364.957C171.218 361.66 151.583 358.363 131.948 355.065C129.89 354.72 127.233 353.577 127.634 351.528C128.109 349.101 131.727 349.708 133.97 350.751ZM256.148 281.204C255.464 283.947 255.595 286.817 255.688 289.642C256.271 307.277 255.225 324.966 252.567 342.409C251.933 346.567 254.417 350.725 257.832 353.181C261.247 355.636 265.454 356.691 269.584 357.487C278.895 359.28 288.41 360.015 297.886 359.674C301.489 359.544 305.242 359.212 308.324 357.339C311.242 355.567 313.22 352.616 314.962 349.68C322.351 337.22 327.197 323.259 329.115 308.9C302.535 308.78 276.113 298.752 256.148 281.204ZM325.667 351.124C327.482 351.723 329.297 352.322 331.111 352.92C331.717 353.12 332.365 353.352 332.724 353.878C333.331 354.768 332.742 356.07 331.803 356.598C330.865 357.126 329.725 357.098 328.649 357.055C326.69 356.977 324.526 356.812 323.158 355.407C321.791 354.002 322.26 350.971 324.216 350.843C324.711 350.811 325.196 350.969 325.667 351.124ZM420.796 351.387C421.875 351.559 423.014 351.758 423.846 352.467C424.678 353.176 425.019 354.58 424.253 355.36C423.944 355.674 423.515 355.835 423.099 355.98C421.493 356.539 419.709 356.986 418.12 356.377C416.532 355.768 415.449 353.668 416.447 352.291C417.365 351.025 419.252 351.14 420.796 351.387ZM138.647 292.676C137.529 293.206 136.332 293.811 135.78 294.918C135.368 295.744 135.389 296.71 135.42 297.632C135.838 310.196 136.365 323.21 141.984 334.456C143.502 337.492 145.432 340.415 148.165 342.429C149.82 343.65 151.715 344.497 153.594 345.333C156.855 346.785 160.122 348.237 163.507 349.37C171.26 351.967 179.466 352.847 187.597 353.71C191.045 354.077 194.717 354.405 197.81 352.838C201.451 350.994 203.391 346.997 204.957 343.228C213.69 322.208 218.676 299.638 219.61 276.896C219.743 273.665 215.606 272.238 212.379 272.021C186.617 270.292 161.979 281.617 138.647 292.676ZM223.611 275.984C222.95 276.854 222.868 278.017 222.802 279.107C221.261 304.826 214.86 330.246 204.036 353.628C214.348 348.409 222.031 338.275 224.272 326.937C225.042 323.039 225.2 319.05 225.355 315.079C225.845 302.56 226.335 290.04 226.825 277.521C226.851 276.861 226.856 276.135 226.436 275.625C225.742 274.782 224.272 275.115 223.611 275.984ZM227.882 338.628C229.19 338.699 230.42 339.243 231.692 339.559C232.831 339.842 233.175 341.464 232.539 342.451C231.903 343.437 230.677 343.866 229.515 344.029C228.301 344.2 226.997 344.135 225.953 343.493C224.91 342.851 224.233 341.51 224.649 340.358C225.095 339.126 226.573 338.557 227.882 338.628ZM421.546 335.228C422.77 335.481 423.819 336.239 424.826 336.978C425.373 337.379 425.954 337.829 426.133 338.483C426.362 339.318 425.811 340.217 425.052 340.633C424.293 341.049 423.384 341.079 422.521 341.01C421.295 340.912 420.029 340.608 419.103 339.798C418.178 338.987 417.708 337.564 418.284 336.478C418.87 335.374 420.323 334.975 421.546 335.228ZM130.494 296.334C130.159 296.931 130.226 297.662 130.304 298.342L132.121 314.347C133.108 323.033 134.4 332.393 140.471 338.682C141.483 338.202 140.912 336.681 140.274 335.76C135.356 328.663 134.409 319.64 133.611 311.043C133.144 306.004 132.676 300.965 132.209 295.925C131.739 295.428 130.828 295.738 130.494 296.334ZM454.22 329.12C470.899 329.532 487.578 329.943 504.257 330.355C506.81 330.418 509.37 330.482 511.895 330.861C511.369 332.685 508.971 333.028 507.072 333.01C490.346 332.852 473.565 331.817 456.929 333.556C455.507 333.704 453.971 333.851 452.737 333.129C451.503 332.406 450.95 330.425 452.085 329.554C452.673 329.103 453.479 329.102 454.22 329.12ZM408.394 325.843C408.762 325.963 409.137 326.09 409.437 326.334C410.434 327.146 410.063 328.88 409.043 329.663C408.024 330.445 406.649 330.536 405.364 330.567C404.026 330.6 402.466 330.495 401.704 329.395C400.747 328.014 401.884 325.971 403.468 325.411C405.052 324.851 406.798 325.32 408.394 325.843ZM420.589 322.472C422.145 322.64 423.658 323.185 424.963 324.048C425.961 324.707 425.762 326.363 424.854 327.141C423.947 327.919 422.651 328.028 421.456 327.985C420.248 327.941 418.987 327.758 418.009 327.046C417.032 326.334 416.45 324.96 416.974 323.87C417.572 322.627 419.217 322.324 420.589 322.472ZM252.566 284.409C251.658 297.499 251.251 310.625 251.346 323.746C251.35 324.301 251.728 325.089 252.202 324.801C253.206 313.771 253.699 302.695 253.678 291.619C253.674 289.166 253.624 286.623 252.566 284.409ZM234.736 317.991C236.167 318.099 237.43 318.931 238.596 319.767C238.955 320.024 239.325 320.299 239.525 320.693C239.941 321.508 239.443 322.558 238.661 323.035C237.88 323.512 236.913 323.549 235.999 323.506C233.919 323.409 231.304 322.278 231.537 320.208C231.697 318.782 233.305 317.883 234.736 317.991ZM424.054 309.173C425.447 309.745 426.88 311.238 426.16 312.56C425.673 313.455 424.486 313.649 423.467 313.659C422.284 313.671 421.1 313.574 419.934 313.371C418.294 313.085 418.043 310.505 419.316 309.433C420.589 308.361 422.514 308.541 424.054 309.173ZM586.355 283.559C586.929 284.52 586.939 285.703 586.932 286.822C586.883 294.743 586.835 302.665 586.786 310.586C586.78 311.548 586.651 312.714 585.778 313.118C585.023 313.467 584.093 312.977 583.673 312.259C583.253 311.541 583.215 310.67 583.201 309.839C583.079 302.767 583.867 295.526 581.864 288.743C581.269 286.727 580.557 284.21 582.113 282.798C583.33 281.694 585.512 282.149 586.355 283.559ZM382.699 282.641C376.695 286.367 370.379 290.198 363.33 290.706C362.048 290.798 361.471 292.33 361.218 293.59C360.079 299.261 359.451 305.034 359.343 310.816C359.337 311.17 359.34 311.55 359.544 311.838C359.869 312.297 360.532 312.316 361.093 312.287C366.592 311.999 372.166 311.425 377.272 309.366C382.379 307.307 387.025 303.578 389.106 298.481C391.187 293.383 390.186 286.881 385.936 283.381C385.022 282.628 383.706 282.017 382.699 282.641ZM336.73 304.939C338.659 305.445 340.588 305.952 342.517 306.458C343.238 306.648 344.04 306.899 344.385 307.56C344.791 308.338 344.318 309.342 343.584 309.823C342.849 310.304 341.935 310.395 341.061 310.472C339.674 310.596 338.246 310.715 336.915 310.306C335.585 309.896 334.359 308.823 334.207 307.439C334.055 306.055 335.384 304.585 336.73 304.939ZM69.1151 199.378C76.3353 202.302 81.77 208.628 85.1408 215.651C88.5115 222.673 90.0464 230.417 91.384 238.091C93.5979 250.793 95.361 263.758 93.7467 276.549C92.1324 289.341 86.7852 302.096 76.8723 310.34C84.0932 310.726 92.7149 310.44 96.635 304.364C98.3943 301.637 102.181 300.43 105.193 301.636C103.299 299.998 104.729 296.949 106.135 294.877C111.894 286.388 115.846 276.631 117.259 266.47C119.997 246.768 113.112 226.8 102.897 209.731C96.2694 198.657 80.8098 193.919 69.1151 199.378ZM240.312 301.44C241.802 302.026 241.455 304.488 240.063 305.279C238.67 306.07 236.935 305.714 235.383 305.32C234.659 305.135 233.891 304.92 233.4 304.358C232.252 303.045 233.569 300.826 235.268 300.434C236.966 300.043 238.69 300.801 240.312 301.44ZM293.876 206.63C287.501 206.743 280.81 207.52 275.605 211.204C273.884 212.422 272.321 214.017 271.692 216.029C271.064 218.042 271.593 220.515 273.339 221.697C277.752 224.686 279.55 230.277 280.377 235.542C281.204 240.806 281.403 246.319 283.802 251.078C285.039 253.532 286.813 255.673 288.674 257.696C298.761 268.664 311.919 276.778 326.248 280.867C328.767 281.586 331.972 283.142 331.44 285.707C310.825 281.383 292.026 268.943 279.988 251.657C276.33 262.891 269.115 272.938 259.638 279.992C278.124 295.724 302.047 304.941 326.31 305.679C327.409 305.713 328.652 305.671 329.394 304.859C329.88 304.327 330.032 303.58 330.164 302.871C333.598 284.404 336.018 265.748 337.41 247.016C337.886 240.607 338.235 234.092 336.849 227.818C335.464 221.543 332.122 215.443 326.658 212.061C323.291 209.977 319.35 209.042 315.452 208.346C308.338 207.077 301.101 206.502 293.876 206.63ZM420.546 296.505C422.218 296.506 424.326 296.995 424.62 298.64C424.912 300.28 423.044 301.502 421.391 301.713C420.182 301.867 418.869 301.72 417.91 300.969C416.951 300.217 416.505 298.744 417.171 297.723C417.854 296.677 419.297 296.504 420.546 296.505ZM544.051 263.574C540.983 275.458 539.192 287.63 537.407 299.774C537.318 300.378 537.267 301.093 537.723 301.499C542.505 295.557 546.892 289.298 550.846 282.775C551.236 282.132 551.619 281.29 551.182 280.677C550.191 279.292 549.2 277.907 548.21 276.522C547.475 275.495 546.717 274.14 547.364 273.055C547.889 272.172 549.066 271.986 550.089 271.891L558.491 271.118C558.4 270.597 558.084 270.149 557.775 269.719C555.526 266.589 553.072 263.297 549.47 261.924C547.474 261.163 544.585 261.505 544.051 263.574ZM154.919 140.627C148.777 141.658 142.124 143.434 138.56 148.541C136.565 151.4 135.831 154.929 135.245 158.365C132.94 171.881 132.22 185.666 133.105 199.348C159.583 187.029 190.564 184.689 218.592 192.891C220.969 193.587 223.911 195.695 222.663 197.834C201.638 190.058 178.219 188.898 156.529 194.559C149.51 196.391 142.689 198.91 135.711 200.889C125.34 203.83 114.628 205.568 103.859 206.059C123.472 232.688 126.01 270.818 110.099 299.812C119.999 297.938 129.3 293.779 138.428 289.514C152.055 283.145 165.624 276.429 180.1 272.341C194.577 268.253 210.228 266.916 224.587 271.398C226.267 271.922 227.192 269.498 227.26 267.74L230.371 186.218C230.843 173.868 230.882 160.213 222.797 150.866C215.643 142.595 203.976 140.008 193.08 139.078C180.362 137.992 167.507 138.514 154.919 140.627ZM344.619 291.935C345.021 292.198 345.436 292.529 345.53 292.999C345.721 293.955 344.558 294.563 343.621 294.829C342.26 295.215 340.857 295.602 339.45 295.454C338.043 295.306 336.611 294.497 336.148 293.16C335.686 291.823 336.615 290.068 338.03 290.042C340.349 289.999 342.677 290.668 344.619 291.935ZM544.339 240.638C539.217 243.51 533.098 244.559 527.312 243.558C528.052 245.621 531.297 246.341 531.313 248.534C531.323 249.869 530.065 250.809 529.35 251.936C528.8 252.804 528.562 253.828 528.343 254.831C526.281 264.271 525.097 273.902 524.812 283.56C524.763 285.224 525.177 287.422 526.832 287.603C530.26 287.979 533.488 289.901 535.452 292.735C537.061 282.609 538.67 272.483 540.28 262.357C540.653 260.007 540.967 257.383 539.59 255.442C537.696 252.773 539.345 249.116 541.006 246.296L544.339 240.638ZM239.371 284.406C241.12 284.755 243.109 286.265 242.446 287.92C242.038 288.94 240.806 289.352 239.709 289.41C238.613 289.469 237.472 289.306 236.444 289.696C235.235 290.154 233.812 289.083 233.665 287.799C233.517 286.515 234.41 285.268 235.573 284.704C236.737 284.14 238.104 284.153 239.371 284.406ZM420.525 282.842C421.627 282.995 422.789 283.237 423.591 284.008C424.393 284.78 424.614 286.247 423.76 286.96C423.478 287.196 423.122 287.321 422.774 287.439C421.26 287.957 419.64 288.463 418.087 288.079C416.534 287.695 415.184 286.047 415.721 284.54C416.34 282.802 418.697 282.59 420.525 282.842ZM520.848 262.025C519.681 262.306 518.83 263.28 518.061 264.202L513.426 269.752C512.52 270.836 514.114 272.348 515.522 272.466C516.93 272.584 518.575 272.253 519.577 273.249C520.627 274.293 520.194 276.113 519.335 277.318C518.475 278.523 517.256 279.508 516.736 280.894C515.959 282.966 517.245 285.563 519.364 286.202C520.515 286.548 522.13 286.015 522.14 284.813C522.2 277.787 522.61 270.764 523.37 263.779C523.5 262.586 522.015 261.744 520.848 262.025ZM285.683 265.514C286.571 266.104 287.145 267.048 287.737 267.935C292.822 275.548 301.326 280.781 310.414 281.887C312.516 282.143 314.996 282.399 316.05 284.235C314.07 286.196 310.843 285.957 308.129 285.326C298.507 283.087 289.69 277.528 283.523 269.811C282.539 268.581 281.641 266.709 282.738 265.578C283.48 264.813 284.795 264.924 285.683 265.514ZM515.85 231.872C509.056 233.541 502.27 235.898 496.763 240.214C491.256 244.53 487.16 251.088 487.203 258.085C487.258 266.958 482.898 275.752 475.802 281.08L487.749 282.486C489.148 282.65 490.716 282.769 491.811 281.884C493.414 280.588 493.004 278.101 492.599 276.081C492.194 274.061 492.284 271.391 494.205 270.648C496.592 269.725 498.567 273.036 498.205 275.569C497.844 278.102 496.374 280.54 496.834 283.057C502.492 283.86 508.168 284.536 513.856 285.085C512.725 284.157 512.601 282.396 513.174 281.049C513.746 279.701 514.858 278.67 515.938 277.682C517.089 276.63 515.43 274.775 513.879 274.608C512.329 274.441 510.505 274.814 509.411 273.702C508.052 272.319 509.072 270 510.231 268.445C512.482 265.428 515.272 261.792 513.823 258.318C510.291 249.847 511.068 239.705 515.85 231.872ZM255.268 208.726C254.321 231.915 254.451 255.148 255.657 278.326C264.515 273.519 270.987 265.062 275.001 255.817C277.45 250.177 279.089 243.961 278.11 237.891C277.38 233.364 275.237 229.182 272.745 225.333C268.325 218.505 262.554 212.342 255.268 208.726ZM460.671 197.616C463.852 197.03 466.284 200.957 465.742 204.146C465.2 207.335 462.882 209.87 461.04 212.529C458.494 216.203 456.754 220.362 455.032 224.487C450.935 234.3 449.34 245.146 450.439 255.723C451.086 261.95 452.793 268.346 457.004 272.98C461.214 277.613 468.432 279.93 473.98 277.03C478.746 274.539 481.123 269.048 482.216 263.783C483.309 258.518 483.503 253.007 485.568 248.042C489.377 238.882 498.77 233.349 508.062 229.875C494.094 227.977 481.456 218.245 476.053 205.225C474.504 201.491 473.341 197.281 470.127 194.83C466.912 192.378 460.86 193.578 460.671 197.616ZM342.602 272.317C343.584 272.505 344.548 272.791 345.475 273.168C347.004 273.79 348.646 275.51 347.662 276.835C347.125 277.56 346.093 277.647 345.192 277.67C343.548 277.712 341.775 277.717 340.432 276.767C339.09 275.818 338.625 273.521 339.979 272.588C340.723 272.076 341.715 272.146 342.602 272.317ZM416.654 268.402C417.984 268.515 419.308 268.7 420.619 268.955C421.267 269.081 421.966 269.257 422.373 269.777C422.991 270.565 422.602 271.8 421.821 272.426C421.04 273.052 420.001 273.228 419.012 273.383C417.501 273.619 415.889 273.843 414.496 273.214C413.102 272.585 412.15 270.743 413.002 269.473C413.745 268.365 415.325 268.29 416.654 268.402ZM36.486 261.249C35.3597 261.237 34.97 262.741 35.0042 263.867C35.1024 267.102 35.7573 270.32 36.9316 273.337C37.2585 273.67 37.6381 272.974 37.5924 272.51L36.486 261.249ZM252.927 269.58C252.224 269.961 251.956 270.971 252.378 271.65L252.395 271.675L252.38 271.692C252.361 271.714 252.341 271.741 252.319 271.773C252.037 272.201 252.433 272.88 252.945 272.844C253.291 271.792 253.284 270.628 252.927 269.58ZM238.287 265C239.811 265.337 241.465 266.602 241.086 268.116C240.835 269.12 239.779 269.708 238.77 269.933C237.76 270.157 236.693 270.142 235.729 270.517C234.502 270.993 233.025 270.004 232.773 268.713C232.52 267.422 233.311 266.074 234.452 265.42C235.594 264.765 237.002 264.716 238.287 265ZM247.107 51.4005C247.196 121.208 248.8 191.014 251.917 260.752L252.245 267.962L252.294 265.643C252.384 260.222 252.305 254.8 252.225 249.379C251.295 185.836 250.364 122.294 249.434 58.7513C249.395 56.0908 249.185 53.0626 247.107 51.4005ZM346.954 254.792C347.809 255.048 348.667 255.436 349.221 256.136C349.776 256.835 349.935 257.909 349.386 258.614C348.855 259.295 347.893 259.424 347.032 259.501L343.359 259.827C342.759 259.88 342.114 259.924 341.592 259.622C341.17 259.379 340.891 258.934 340.763 258.464C340.377 257.05 341.334 255.515 342.657 254.885C343.98 254.255 345.55 254.372 346.954 254.792ZM51.1182 200.148C47.2997 203.9 45.3136 209.086 43.4786 214.115C38.3652 228.128 33.506 243.002 36.029 257.704C36.8091 257.847 37.181 256.786 37.2389 255.995C38.2761 241.811 41.1103 227.76 45.6525 214.284C47.3856 209.141 49.4701 203.92 53.32 200.096C53.2673 199.164 51.7835 199.494 51.1182 200.148ZM520.548 230.803C519.882 230.966 519.451 231.594 519.103 232.185C515.817 237.761 514.27 244.345 514.729 250.8C514.919 253.466 515.776 256.536 518.265 257.508C520.289 255.565 522.313 253.622 524.337 251.679C524.658 251.37 524.987 251.05 525.165 250.642C525.609 249.62 524.974 248.479 524.391 247.529C521.507 242.836 519.34 236.887 521.743 231.93C522.042 231.313 521.214 230.639 520.548 230.803ZM562.602 224.787C562.279 224.955 562.03 225.234 561.788 225.507C555.814 232.264 550.044 239.201 544.488 246.307C543.328 247.79 542.118 249.464 542.232 251.344C542.333 253.016 543.509 254.472 544.934 255.351C546.359 256.23 548.019 256.631 549.648 257.019C550.084 257.123 550.557 257.224 550.967 257.042C551.344 256.875 551.583 256.505 551.801 256.155C555.202 250.671 558.651 245.079 560.257 238.829C560.6 237.496 561.755 236.565 562.679 235.545C564.493 233.541 565.557 230.872 565.617 228.17C565.638 227.255 565.531 226.289 565.001 225.543C564.472 224.796 563.413 224.363 562.602 224.787ZM417.096 251.534C417.919 251.738 418.827 252.05 419.196 252.813C419.847 254.159 418.32 255.562 416.892 256.004C415.785 256.346 414.551 256.465 413.49 256.001C412.428 255.537 411.622 254.366 411.863 253.232C412.291 251.221 415.1 251.039 417.096 251.534ZM239.649 248.596C240.038 248.944 240.398 249.354 240.546 249.854C240.842 250.861 240.139 251.972 239.174 252.386C238.209 252.8 237.083 252.64 236.111 252.243C235.087 251.826 234.09 251.028 233.96 249.93C233.811 248.674 234.948 247.519 236.2 247.338C237.451 247.156 238.708 247.752 239.649 248.596ZM350.375 237.558C351.374 237.965 351.478 239.475 350.789 240.305C350.101 241.134 348.952 241.41 347.878 241.501C346.804 241.591 345.693 241.552 344.689 241.945C343.146 242.549 341.469 240.685 341.836 239.07C342.203 237.455 343.938 236.451 345.592 236.374C347.247 236.297 348.842 236.933 350.375 237.558ZM415.385 235.129C416.8 235.198 418.2 235.57 419.463 236.212C420.011 236.49 420.578 236.875 420.734 237.47C421.055 238.695 419.519 239.535 418.275 239.774C417.173 239.986 416.054 240.112 414.933 240.151C413.549 240.199 411.878 239.932 411.327 238.661C410.898 237.674 411.42 236.463 412.297 235.84C413.174 235.216 414.31 235.076 415.385 235.129ZM506.643 144.72C498.385 146.053 490.089 147.157 481.77 148.032C475.744 148.665 470.068 152.084 466.69 157.115C465.996 158.149 465.518 159.798 466.59 160.432C469.622 156.933 473.738 154.388 478.223 153.238C479.826 152.827 481.58 152.603 483.092 153.276C484.603 153.949 485.683 155.804 485 157.31C483.949 159.624 480.599 158.977 478.063 158.822C471.01 158.392 464.91 166.464 467.25 173.132C468.892 166.767 477.979 164.003 483.073 168.159C488.166 172.314 487.543 181.44 482.096 185.119C480.296 186.334 477.984 187.182 477.163 189.193C476.458 190.917 477.136 192.864 477.812 194.599C478.872 197.323 479.933 200.047 480.993 202.77C483.216 208.481 485.579 214.4 490.079 218.559C493.539 221.757 498.027 223.66 502.605 224.776C519.111 228.799 537.693 222.397 548.218 209.06C549.062 207.991 550.986 209.005 551.137 210.358C551.287 211.711 550.362 212.928 549.447 213.936C544.734 219.123 538.794 223.188 532.253 225.701C529.16 226.889 525.486 228.175 524.535 231.348C523.748 233.976 525.404 236.88 527.782 238.247C530.16 239.615 533.059 239.731 535.786 239.432C541.224 238.837 546.487 236.709 550.809 233.355C552.119 232.339 553.388 231.151 553.97 229.598C554.521 228.127 554.396 226.501 554.262 224.936L554.146 223.591C553.636 217.757 552.975 211.854 550.597 206.519C549.452 203.952 547.922 201.547 547.079 198.866C546.04 195.56 546.103 192.014 545.405 188.619C544.707 185.225 542.939 181.699 539.707 180.448C540.561 178.279 542.69 176.915 544.07 175.036C545.449 173.157 545.651 169.874 543.48 169.026C542.442 168.62 541.26 168.97 540.271 169.483C536.102 171.649 533.852 176.947 535.191 181.451C536.064 184.39 531.421 186.362 528.921 184.586C526.421 182.811 525.805 179.431 525.312 176.405C523.402 164.674 519.566 152.028 509.548 145.633C508.672 145.074 507.669 144.554 506.643 144.72ZM238.774 227.93C240.091 228.357 241.404 229.541 241.13 230.898C240.871 232.181 239.394 232.782 238.104 233.003C236.274 233.316 233.887 232.957 233.372 231.173C232.883 229.475 234.66 227.848 236.417 227.662C237.209 227.578 238.016 227.684 238.774 227.93ZM450.011 203.497C448.783 204.661 448.185 206.322 447.627 207.919C446.368 211.523 445.092 215.231 445.238 219.045C445.331 221.501 443.906 223.712 442.89 225.949C441.873 228.186 441.321 231.051 442.915 232.921C446.722 229.72 447.636 224.331 448.473 219.428C449.474 213.566 450.835 207.49 454.626 202.908C453.299 201.858 451.239 202.333 450.011 203.497ZM349.692 219.833C350.672 220.148 351.781 220.778 351.793 221.808C351.808 223.059 350.267 223.635 349.035 223.861C348.418 223.974 347.801 224.087 347.183 224.2C345.61 224.487 343.924 224.764 342.461 224.116C340.999 223.468 340.025 221.494 340.98 220.211C341.597 219.381 342.733 219.155 343.765 219.091C345.764 218.967 347.786 219.22 349.692 219.833ZM206.624 201.752C208.345 202.575 210.271 204.198 209.634 205.996C191.898 202.13 172.951 204.042 156.346 211.375C148.875 214.674 141.861 219.037 134.128 221.667C131.483 222.567 128.595 223.257 125.922 222.441C123.249 221.625 121.021 218.79 121.802 216.107C122.536 213.589 125.34 212.392 127.825 211.551C140.07 207.405 152.529 203.89 165.135 201.022C178.889 197.894 193.899 195.666 206.624 201.752ZM461.279 201.54C460.012 201.535 458.947 202.464 458.115 203.418C456.095 205.732 454.659 208.508 453.591 211.388C452.265 214.966 451.48 218.745 451.272 222.555C454.94 216.247 458.86 210.086 463.022 204.092C463.745 203.052 462.545 201.545 461.279 201.54ZM438.807 212.778C438.46 212.78 438.093 212.793 437.799 212.979C437.139 213.398 437.231 214.376 437.427 215.133C438.048 217.534 438.908 219.873 439.99 222.105C440.64 218.96 441.683 215.897 443.087 213.009C441.667 212.847 440.236 212.77 438.807 212.778ZM160.899 204.672C150.401 207.898 139.903 211.125 129.406 214.351C128.152 214.736 126.697 215.331 126.43 216.616C127.283 217.861 128.909 218.39 130.417 218.317C131.925 218.244 133.356 217.665 134.754 217.094C145.404 212.742 156.054 208.391 166.704 204.039C164.802 203.508 162.787 204.091 160.899 204.672ZM271.677 210.56C271.113 211.538 269.94 211.954 269.06 212.661C268.181 213.369 267.665 214.893 268.593 215.535C270.015 214.111 271.437 212.687 272.859 211.264C272.565 210.899 272.138 210.645 271.677 210.56ZM382.439 209.803C390.07 210.598 397.769 211.004 405.413 210.345C407.39 210.175 409.756 210.095 410.929 211.696C409.448 213.205 407.119 213.387 405.006 213.477C397.072 213.817 389.139 214.157 381.205 214.497C379.657 214.563 377.697 214.366 377.195 212.9C376.799 211.747 377.698 210.474 378.826 210.011C379.954 209.548 381.226 209.677 382.439 209.803ZM500.41 201.466C502.256 203.711 502.93 206.871 502.161 209.675C501.972 210.367 501.695 211.046 501.252 211.61C500.092 213.092 497.949 213.53 496.118 213.092C494.288 212.653 492.72 211.488 491.323 210.226C489.883 208.926 488.533 207.444 487.841 205.631C487.15 203.819 487.231 201.613 488.457 200.11C489.467 198.871 491.1 198.276 492.694 198.16C495.594 197.947 498.564 199.22 500.41 201.466ZM243.176 206.687C243.905 207.276 243.783 208.5 243.16 209.2C242.538 209.901 241.589 210.2 240.679 210.427C239.605 210.695 238.476 210.904 237.399 210.648C236.322 210.392 235.313 209.557 235.18 208.458C234.988 206.864 236.657 205.617 238.243 205.366C239.974 205.093 241.812 205.585 243.176 206.687ZM491.961 201.995C491.153 203.041 491.684 204.93 492.995 205.109C494.508 205.315 495.686 206.906 495.442 208.414C495.25 209.598 496.694 210.587 497.84 210.232C498.985 209.876 499.648 208.592 499.622 207.393C499.597 206.194 499.025 205.076 498.376 204.068C497.661 202.956 496.786 201.876 495.579 201.334C494.373 200.793 492.77 200.948 491.961 201.995ZM487.931 94.4988C476.93 96.5138 466.033 101.319 458.937 109.964C451.842 118.608 449.388 131.546 454.935 141.257C456.895 144.689 459.888 147.682 463.651 148.889C467.414 150.097 471.965 149.208 474.475 146.156C477.323 142.694 483.073 146.015 487.359 144.7C493.287 142.883 499.449 141.828 505.645 141.57C507.114 141.509 508.629 141.5 510 142.032C511.488 142.609 512.664 143.765 513.795 144.892C517.716 148.799 521.718 152.82 524.04 157.845C527.722 165.815 526.811 175.532 531.462 182.978C532.005 178.309 532.549 173.64 533.093 168.971C533.294 167.238 533.519 165.439 534.455 163.968C535.392 162.496 537.264 161.464 538.903 162.059C541.795 163.109 544.806 164.238 546.881 166.509C548.957 168.78 549.725 172.566 547.73 174.908C545.802 177.171 547.989 180.442 549.013 183.234C550.787 188.07 548.701 193.596 550.096 198.554C551.251 202.662 554.588 205.729 557.776 208.565C558.708 209.395 559.795 210.279 561.038 210.165C562.078 210.071 562.915 209.295 563.625 208.529C567.862 203.962 570.764 198.171 571.886 192.043C572.339 189.571 571.479 185.968 568.989 186.306C569.669 180.374 575.122 176.333 578.325 171.293C581.779 165.858 582.595 159.174 582.753 152.736C582.911 146.266 582.28 139.234 577.968 134.407C572.787 128.607 562.721 128.174 557.061 133.507C555.65 134.836 553.791 136.593 552.108 135.631C553.427 133.265 554.746 130.898 556.065 128.532C558.215 124.675 560.41 120.679 560.847 116.286C561.71 107.617 555.111 99.4096 546.95 96.3612C538.79 93.3128 529.577 94.5768 521.391 97.5582C519.34 98.3055 516.916 99.9105 517.472 102.022C517.795 103.245 519.033 103.983 519.669 105.076C520.065 105.758 520.025 105.976 519.577 106.527C519.307 106.86 518.819 107.825 518.381 107.637C513.741 102.262 508.722 96.6352 501.918 94.6026C497.408 93.2553 492.561 93.6508 487.931 94.4988ZM435.224 205.346C434.644 205.002 433.534 204.777 433.642 205.442C433.956 207.07 435.422 208.281 437.003 208.779C438.585 209.276 440.282 209.193 441.938 209.104C442.585 209.069 443.276 209.019 443.791 208.625C444.223 208.295 444.46 207.777 444.68 207.28C445.057 206.428 445.434 205.576 445.811 204.724C442.734 202.722 438.383 207.218 435.224 205.346ZM346.373 199.785C347.667 199.882 348.952 200.108 350.201 200.458C351.284 200.762 352.528 201.396 352.582 202.519C352.652 203.997 350.729 204.601 349.254 204.729C347.753 204.858 346.252 204.988 344.751 205.118C343.658 205.212 342.421 205.261 341.617 204.513C340.537 203.51 340.973 201.563 342.142 200.665C343.311 199.768 344.903 199.675 346.373 199.785ZM381.473 199.464C388.651 200.425 395.927 200.656 403.152 200.154C404 200.095 404.923 200.045 405.621 200.53C406.319 201.015 406.493 202.264 405.731 202.64C405.5 202.754 405.233 202.766 404.976 202.776C396.241 203.105 387.507 203.435 378.772 203.764C377.976 203.795 377.099 203.799 376.486 203.289C375.39 202.376 376.019 200.424 377.277 199.749C378.534 199.075 380.059 199.274 381.473 199.464ZM451.17 192.349C448.382 192.5 445.544 192.758 442.969 193.84C440.394 194.921 438.084 196.956 437.316 199.641C437.159 200.185 437.102 200.856 437.52 201.239C437.845 201.537 438.335 201.541 438.776 201.524C443.408 201.342 448.021 200.652 452.504 199.471C454.733 198.883 457.419 197.467 457.118 195.182C456.959 193.979 455.921 193.038 454.775 192.64C453.629 192.242 452.382 192.284 451.17 192.349ZM129.455 192.013C129.011 194.366 128.902 196.783 129.134 199.167C129.71 199.789 130.468 198.574 130.419 197.728C130.308 195.795 129.984 193.875 129.455 192.013ZM278.618 189.135C294.675 189.86 310.732 190.586 326.79 191.312C328.288 191.38 330.279 191.954 330.191 193.451C328.274 194.682 325.802 194.427 323.54 194.164C309.226 192.496 294.746 192.265 280.386 193.477C279.147 193.582 277.83 193.683 276.724 193.114C275.618 192.545 274.904 191.03 275.622 190.014C276.251 189.125 277.531 189.086 278.618 189.135ZM239.682 187.451C240.388 187.557 241.124 187.742 241.637 188.239C242.81 189.376 242.086 191.537 240.675 192.361C239.264 193.184 237.516 193.069 235.888 192.928C234.102 192.774 233.523 190.094 234.696 188.739C235.869 187.383 237.909 187.183 239.682 187.451ZM296.156 181.511C322.326 182.869 348.495 184.227 374.664 185.584C376.066 185.657 377.921 186.196 377.847 187.598C373.532 188.375 369.063 188.289 364.781 187.345L368.583 190.617C366.771 191.76 364.84 192.94 362.697 192.987C360.555 193.035 358.222 191.455 358.283 189.313C359.367 188.813 360.451 188.313 361.535 187.812C340.395 186.001 319.157 185.34 297.945 185.834C296.721 185.862 295.414 185.873 294.381 185.217C293.347 184.561 292.824 182.965 293.68 182.09C294.292 181.463 295.282 181.466 296.156 181.511ZM465.607 185.011C464.664 185.063 463.864 185.689 463.133 186.287C462.266 186.996 461.4 187.705 460.534 188.414C459.626 189.156 458.643 190.043 458.59 191.214C458.561 191.85 459.045 192.605 459.665 192.462C459.838 192.422 459.988 192.317 460.133 192.214C462.197 190.759 464.261 189.303 466.325 187.847C466.746 187.55 467.196 187.214 467.332 186.717C467.582 185.807 466.55 184.959 465.607 185.011ZM497.709 177.386C497.791 179.509 496.737 181.498 496.362 183.589C495.987 185.68 496.701 188.343 498.768 188.832C499.378 188.977 499.555 189.849 499.211 190.373C498.866 190.896 498.216 191.122 497.599 191.234C495.684 191.582 493.416 190.967 492.536 189.231C492.095 188.362 492.061 187.351 492.036 186.377C491.969 183.768 491.902 181.16 491.835 178.552C491.789 176.769 491.989 174.573 493.621 173.853C495.565 172.996 497.626 175.263 497.709 177.386ZM469.242 189.218C468.865 189.394 468.608 189.802 468.612 190.218L468.518 190.243C468.727 190.707 469.481 190.78 469.775 190.364C470.07 189.947 469.751 189.261 469.242 189.218ZM465.632 175.586C464.766 175.608 463.798 175.765 463.286 176.464C462.738 177.211 462.96 178.307 463.522 179.043C464.085 179.779 464.913 180.252 465.686 180.762C468.942 182.91 471.542 186.038 473.057 189.633C474.088 188.276 475.118 186.92 476.148 185.564C476.918 184.551 477.729 183.392 477.567 182.131C477.45 181.219 476.838 180.453 476.188 179.803C473.434 177.048 469.526 175.487 465.632 175.586ZM133.731 154.603C132.521 154.702 131.893 156.061 131.513 157.214C130.933 158.971 130.353 160.728 129.774 162.485C129.14 164.405 128.502 166.346 128.329 168.36C128.214 169.694 128.305 171.037 128.396 172.374C128.681 176.548 128.965 180.721 129.25 184.895C129.305 185.702 129.919 186.816 130.587 186.359C130.309 175.698 131.368 165.003 133.731 154.603ZM476.049 169.95C474.951 170.368 473.784 171.104 473.625 172.269C473.466 173.434 475.181 174.515 475.846 173.545C476.695 172.308 478.817 172.954 479.518 174.28C480.22 175.606 480.014 177.201 480.004 178.702C479.993 180.202 480.338 181.923 481.646 182.658C481.865 180.651 482.085 178.644 482.304 176.637C482.575 174.16 482.559 171.087 480.381 169.874C479.078 169.148 477.444 169.419 476.049 169.95ZM511.327 168.816C513.11 168.896 515.014 169.517 515.989 171.012C516.965 172.507 516.447 174.956 514.729 175.437C512.276 176.124 509.983 172.668 507.585 173.526C506.086 174.063 505.16 176.172 503.596 175.869C502.627 175.682 502.09 174.52 502.283 173.551C502.476 172.583 503.199 171.808 503.973 171.194C506.036 169.56 508.698 168.699 511.327 168.816ZM238.268 167.051C239.987 167.329 241.67 169.211 240.764 170.697C240.51 171.115 240.096 171.412 239.663 171.639C238.591 172.203 237.269 172.395 236.162 171.903C235.055 171.411 234.277 170.134 234.576 168.96C234.953 167.486 236.766 166.808 238.268 167.051ZM514.123 157.265C515.306 158.389 516.227 160.508 514.903 161.462C513.502 162.472 511.824 160.767 510.484 159.679C508.986 158.462 506.957 157.926 505.053 158.242C503.836 158.445 502.689 158.973 501.468 159.151C500.247 159.328 498.826 159.048 498.16 158.009C497.461 156.92 497.905 155.378 498.867 154.511C499.828 153.644 501.164 153.327 502.453 153.21C506.681 152.823 511.046 154.34 514.123 157.265ZM238.209 153.818C239.264 154.436 239.833 155.896 239.246 156.969C238.469 158.387 236.435 158.368 234.866 157.978C234.301 157.838 233.706 157.652 233.332 157.206C232.439 156.141 233.44 154.47 234.687 153.856C235.784 153.314 237.153 153.199 238.209 153.818Z" fill="#1A0934"/>
<path fill-rule="evenodd" clip-rule="evenodd" d="M96.5398 296.445C96.6841 296.846 96.8173 297.294 96.6524 297.687C96.3565 298.391 95.3931 298.418 94.6294 298.412C89.2582 298.369 84.2646 302.982 83.8831 308.34C83.8428 308.906 83.0649 309.165 82.5616 308.903C82.0583 308.641 81.7993 308.075 81.6252 307.535C80.6439 304.49 81.2762 301.077 82.8405 298.287C84.4049 295.497 86.8256 293.271 89.4553 291.449C90.4754 290.743 91.7457 290.065 92.8999 290.521C93.6624 290.822 94.1606 291.549 94.5759 292.256C95.358 293.588 96.0164 294.992 96.5398 296.445ZM93.42 295.836C92.9472 294.39 91.0285 293.87 89.5953 294.382C88.1621 294.893 87.1171 296.111 86.1418 297.279C85.2173 298.386 84.2499 299.594 84.1409 301.033C86.6124 298.415 89.8967 296.575 93.42 295.836Z" fill="#44D9E8"/>
</svg>
